  0
SECTION
  2
HEADER
  9
$ACADVER
  1
AC1015
  9
$ACADMAINTVER
 70
     6
  9
$DWGCODEPAGE
  3
ANSI_1252
  9
$INSBASE
 10
0.0
 20
0.0
 30
0.0
  9
$EXTMIN
 10
414.8173343867
 20
-76.1650348567
 30
0.0
  9
$EXTMAX
 10
541.2018991123
 20
-41.3249608819
 30
0.0
  9
$LIMMIN
 10
0.0
 20
0.0
  9
$LIMMAX
 10
420.0
 20
297.0
  9
$ORTHOMODE
 70
     0
  9
$REGENMODE
 70
     1
  9
$FILLMODE
 70
     1
  9
$QTEXTMODE
 70
     0
  9
$MIRRTEXT
 70
     1
  9
$LTSCALE
 40
1.0
  9
$ATTMODE
 70
     1
  9
$TEXTSIZE
 40
3.5
  9
$TRACEWID
 40
1.0
  9
$TEXTSTYLE
  7
Standard
  9
$CLAYER
  8
0
  9
$CELTYPE
  6
ByLayer
  9
$CECOLOR
 62
   256
  9
$CELTSCALE
 40
1.0
  9
$DISPSILH
 70
     0
  9
$DIMSCALE
 40
1.0
  9
$DIMASZ
 40
3.302
  9
$DIMEXO
 40
1.0
  9
$DIMDLI
 40
3.75
  9
$DIMRND
 40
0.0
  9
$DIMDLE
 40
0.0
  9
$DIMEXE
 40
1.0
  9
$DIMTP
 40
0.0
  9
$DIMTM
 40
0.0
  9
$DIMTXT
 40
3.5
  9
$DIMCEN
 40
2.5
  9
$DIMTSZ
 40
0.0
  9
$DIMTOL
 70
     0
  9
$DIMLIM
 70
     0
  9
$DIMTIH
 70
     1
  9
$DIMTOH
 70
     1
  9
$DIMSE1
 70
     0
  9
$DIMSE2
 70
     0
  9
$DIMTAD
 70
     1
  9
$DIMZIN
 70
     1
  9
$DIMBLK
  1

  9
$DIMASO
 70
     1
  9
$DIMSHO
 70
     1
  9
$DIMPOST
  1

  9
$DIMAPOST
  1

  9
$DIMALT
 70
     0
  9
$DIMALTD
 70
     3
  9
$DIMALTF
 40
0.0393700787
  9
$DIMLFAC
 40
1.0
  9
$DIMTOFL
 70
     1
  9
$DIMTVP
 40
0.0
  9
$DIMTIX
 70
     0
  9
$DIMSOXD
 70
     0
  9
$DIMSAH
 70
     0
  9
$DIMBLK1
  1

  9
$DIMBLK2
  1

  9
$DIMSTYLE
  2
ISO-25
  9
$DIMCLRD
 70
     0
  9
$DIMCLRE
 70
     0
  9
$DIMCLRT
 70
     0
  9
$DIMTFAC
 40
1.0
  9
$DIMGAP
 40
1.524
  9
$DIMJUST
 70
     0
  9
$DIMSD1
 70
     0
  9
$DIMSD2
 70
     0
  9
$DIMTOLJ
 70
     0
  9
$DIMTZIN
 70
     1
  9
$DIMALTZ
 70
     0
  9
$DIMALTTZ
 70
     0
  9
$DIMUPT
 70
     0
  9
$DIMDEC
 70
     2
  9
$DIMTDEC
 70
     2
  9
$DIMALTU
 70
     2
  9
$DIMALTTD
 70
     3
  9
$DIMTXSTY
  7
Standard
  9
$DIMAUNIT
 70
     0
  9
$DIMADEC
 70
     2
  9
$DIMALTRND
 40
0.0
  9
$DIMAZIN
 70
     0
  9
$DIMDSEP
 70
    44
  9
$DIMATFIT
 70
     3
  9
$DIMFRAC
 70
     0
  9
$DIMLDRBLK
  1

  9
$DIMLUNIT
 70
     2
  9
$DIMLWD
 70
    -2
  9
$DIMLWE
 70
    -2
  9
$DIMTMOVE
 70
     0
  9
$LUNITS
 70
     2
  9
$LUPREC
 70
     2
  9
$SKETCHINC
 40
1.0
  9
$FILLETRAD
 40
10.0
  9
$AUNITS
 70
     0
  9
$AUPREC
 70
     2
  9
$MENU
  1
.
  9
$ELEVATION
 40
0.0
  9
$PELEVATION
 40
0.0
  9
$THICKNESS
 40
0.0
  9
$LIMCHECK
 70
     0
  9
$CHAMFERA
 40
0.0
  9
$CHAMFERB
 40
0.0
  9
$CHAMFERC
 40
0.0
  9
$CHAMFERD
 40
0.0
  9
$SKPOLY
 70
     0
  9
$TDCREATE
 40
2459268.425651713
  9
$TDUCREATE
 40
2459268.34231838
  9
$TDUPDATE
 40
2459268.425703773
  9
$TDUUPDATE
 40
2459268.34237044
  9
$TDINDWG
 40
0.0000000116
  9
$TDUSRTIMER
 40
0.0000000116
  9
$USRTIMER
 70
     1
  9
$ANGBASE
 50
0.0
  9
$ANGDIR
 70
     0
  9
$PDMODE
 70
     0
  9
$PDSIZE
 40
-1.0
  9
$PLINEWID
 40
0.0
  9
$SPLFRAME
 70
     0
  9
$SPLINETYPE
 70
     6
  9
$SPLINESEGS
 70
     8
  9
$HANDSEED
  5
12E
  9
$SURFTAB1
 70
     6
  9
$SURFTAB2
 70
     6
  9
$SURFTYPE
 70
     6
  9
$SURFU
 70
     6
  9
$SURFV
 70
     6
  9
$UCSBASE
  2

  9
$UCSNAME
  2

  9
$UCSORG
 10
0.0
 20
0.0
 30
0.0
  9
$UCSXDIR
 10
1.0
 20
0.0
 30
0.0
  9
$UCSYDIR
 10
0.0
 20
1.0
 30
0.0
  9
$UCSORTHOREF
  2

  9
$UCSORTHOVIEW
 70
     0
  9
$UCSORGTOP
 10
0.0
 20
0.0
 30
0.0
  9
$UCSORGBOTTOM
 10
0.0
 20
0.0
 30
0.0
  9
$UCSORGLEFT
 10
0.0
 20
0.0
 30
0.0
  9
$UCSORGRIGHT
 10
0.0
 20
0.0
 30
0.0
  9
$UCSORGFRONT
 10
0.0
 20
0.0
 30
0.0
  9
$UCSORGBACK
 10
0.0
 20
0.0
 30
0.0
  9
$PUCSBASE
  2

  9
$PUCSNAME
  2

  9
$PUCSORG
 10
0.0
 20
0.0
 30
0.0
  9
$PUCSXDIR
 10
1.0
 20
0.0
 30
0.0
  9
$PUCSYDIR
 10
0.0
 20
1.0
 30
0.0
  9
$PUCSORTHOREF
  2

  9
$PUCSORTHOVIEW
 70
     0
  9
$PUCSORGTOP
 10
0.0
 20
0.0
 30
0.0
  9
$PUCSORGBOTTOM
 10
0.0
 20
0.0
 30
0.0
  9
$PUCSORGLEFT
 10
0.0
 20
0.0
 30
0.0
  9
$PUCSORGRIGHT
 10
0.0
 20
0.0
 30
0.0
  9
$PUCSORGFRONT
 10
0.0
 20
0.0
 30
0.0
  9
$PUCSORGBACK
 10
0.0
 20
0.0
 30
0.0
  9
$USERI1
 70
     0
  9
$USERI2
 70
     0
  9
$USERI3
 70
     0
  9
$USERI4
 70
     0
  9
$USERI5
 70
     0
  9
$USERR1
 40
0.0
  9
$USERR2
 40
0.0
  9
$USERR3
 40
0.0
  9
$USERR4
 40
0.0
  9
$USERR5
 40
0.0
  9
$WORLDVIEW
 70
     1
  9
$SHADEDGE
 70
     3
  9
$SHADEDIF
 70
    70
  9
$TILEMODE
 70
     1
  9
$MAXACTVP
 70
    64
  9
$PINSBASE
 10
0.0
 20
0.0
 30
0.0
  9
$PLIMCHECK
 70
     0
  9
$PEXTMIN
 10
1.0000000000E+20
 20
1.0000000000E+20
 30
1.0000000000E+20
  9
$PEXTMAX
 10
-1.0000000000E+20
 20
-1.0000000000E+20
 30
-1.0000000000E+20
  9
$PLIMMIN
 10
0.0
 20
0.0
  9
$PLIMMAX
 10
420.0
 20
297.0
  9
$UNITMODE
 70
     0
  9
$VISRETAIN
 70
     1
  9
$PLINEGEN
 70
     0
  9
$PSLTSCALE
 70
     1
  9
$TREEDEPTH
 70
  3020
  9
$CMLSTYLE
  2
Standard
  9
$CMLJUST
 70
     0
  9
$CMLSCALE
 40
20.0
  9
$PROXYGRAPHICS
 70
     1
  9
$MEASUREMENT
 70
     1
  9
$CELWEIGHT
370
    -1
  9
$ENDCAPS
280
     0
  9
$JOINSTYLE
280
     0
  9
$LWDISPLAY
290
     1
  9
$INSUNITS
 70
     4
  9
$HYPERLINKBASE
  1

  9
$STYLESHEET
  1

  9
$XEDIT
290
     1
  9
$CEPSNTYPE
380
     0
  9
$PSTYLEMODE
290
     1
  9
$FINGERPRINTGUID
  2
{3B02933B-35D1-4345-9E1C-B9CEDA941AA6}
  9
$VERSIONGUID
  2
{FAEB1C32-E019-11D5-929B-00C0DF256EC4}
  9
$EXTNAMES
290
     1
  9
$PSVPSCALE
 40
0.0
  9
$OLESTARTUP
290
     0
  0
ENDSEC
  0
SECTION
  2
CLASSES
  0
CLASS
  1
ACDBDICTIONARYWDFLT
  2
AcDbDictionaryWithDefault
  3
ObjectDBX Classes
 90
        0
280
     0
281
     0
  0
CLASS
  1
VISUALSTYLE
  2
AcDbVisualStyle
  3
ObjectDBX Classes
 90
     4095
280
     0
281
     0
  0
CLASS
  1
MATERIAL
  2
AcDbMaterial
  3
ObjectDBX Classes
 90
     1153
280
     0
281
     0
  0
CLASS
  1
SCALE
  2
AcDbScale
  3
ObjectDBX Classes
 90
     1153
280
     0
281
     0
  0
CLASS
  1
TABLESTYLE
  2
AcDbTableStyle
  3
ObjectDBX Classes
 90
     4095
280
     0
281
     0
  0
CLASS
  1
MLEADERSTYLE
  2
AcDbMLeaderStyle
  3
ACDB_MLEADERSTYLE_CLASS
 90
     4095
280
     0
281
     0
  0
CLASS
  1
SUN
  2
AcDbSun
  3
SCENEOE
 90
     1153
280
     0
281
     0
  0
CLASS
  1
ACDBPLACEHOLDER
  2
AcDbPlaceHolder
  3
ObjectDBX Classes
 90
        0
280
     0
281
     0
  0
CLASS
  1
LAYOUT
  2
AcDbLayout
  3
ObjectDBX Classes
 90
        0
280
     0
281
     0
  0
ENDSEC
  0
SECTION
  2
TABLES
  0
TABLE
  2
VPORT
  5
8
330
0
100
AcDbSymbolTable
 70
     1
  0
VPORT
  5
29
330
8
100
AcDbSymbolTableRecord
100
AcDbViewportTableRecord
  2
*Active
 70
     0
 10
0.0
 20
0.0
 11
1.0
 21
1.0
 12
478.0096167495
 22
-58.7449978693
 13
0.0
 23
0.0
 14
10.0
 24
10.0
 15
10.0
 25
10.0
 16
0.0
 26
0.0
 36
1.0
 17
0.0
 27
0.0
 37
0.0
 40
35.5368754543
 41
3.6275630418
 42
50.0
 43
0.0
 44
0.0
 50
0.0
 51
0.0
 71
     0
 72
   100
 73
     1
 74
     3
 75
     0
 76
     0
 77
     0
 78
     0
281
     0
 65
     1
110
0.0
120
0.0
130
0.0
111
1.0
121
0.0
131
0.0
112
0.0
122
1.0
132
0.0
 79
     0
146
0.0
  0
ENDTAB
  0
TABLE
  2
LTYPE
  5
5
330
0
100
AcDbSymbolTable
 70
     6
  0
LTYPE
  5
14
330
5
100
AcDbSymbolTableRecord
100
AcDbLinetypeTableRecord
  2
ByBlock
 70
     0
  3

 72
    65
 73
     0
 40
0.0
  0
LTYPE
  5
15
330
5
100
AcDbSymbolTableRecord
100
AcDbLinetypeTableRecord
  2
ByLayer
 70
     0
  3

 72
    65
 73
     0
 40
0.0
  0
LTYPE
  5
16
330
5
100
AcDbSymbolTableRecord
100
AcDbLinetypeTableRecord
  2
Continuous
 70
     0
  3
Solid line
 72
    65
 73
     0
 40
0.0
  0
LTYPE
  5
6E
330
5
100
AcDbSymbolTableRecord
100
AcDbLinetypeTableRecord
  2
HIDDEN
 70
     0
  3
Hidden __ __ __ __ __ __ __ __ __ __ __ __ __ __
 72
    65
 73
     2
 40
1.905
 49
1.27
 74
     0
 49
-0.635
 74
     0
  0
LTYPE
  5
6F
330
5
100
AcDbSymbolTableRecord
100
AcDbLinetypeTableRecord
  2
PHANTOM
 70
     0
  3
Phantom ______  __  __  ______  __  __  ______
 72
    65
 73
     6
 40
12.7
 49
6.35
 74
     0
 49
-1.27
 74
     0
 49
1.27
 74
     0
 49
-1.27
 74
     0
 49
1.27
 74
     0
 49
-1.27
 74
     0
  0
LTYPE
  5
70
330
5
100
AcDbSymbolTableRecord
100
AcDbLinetypeTableRecord
  2
CENTER
 70
     0
  3
Center ____ _ ____ _ ____ _ ____ _ ____ _ ____
 72
    65
 73
     4
 40
10.16
 49
6.35
 74
     0
 49
-1.27
 74
     0
 49
1.27
 74
     0
 49
-1.27
 74
     0
  0
LTYPE
  5
71
330
5
100
AcDbSymbolTableRecord
100
AcDbLinetypeTableRecord
  2
CENTERX2
 70
     0
  3
Center (2x) ________  __  ________  __  _____
 72
    65
 73
     4
 40
20.32
 49
12.7
 74
     0
 49
-2.54
 74
     0
 49
2.54
 74
     0
 49
-2.54
 74
     0
  0
LTYPE
  5
72
330
5
100
AcDbSymbolTableRecord
100
AcDbLinetypeTableRecord
  2
DOT2
 70
     0
  3
Dot (.5x) ........................................
 72
    65
 73
     2
 40
0.635
 49
0.0
 74
     0
 49
-0.635
 74
     0
  0
ENDTAB
  0
TABLE
  2
LAYER
  5
2
330
0
100
AcDbSymbolTable
 70
     1
  0
LAYER
  5
10
330
2
100
AcDbSymbolTableRecord
100
AcDbLayerTableRecord
  2
0
 70
     0
 62
     7
  6
Continuous
370
    -3
390
F
  0
ENDTAB
  0
TABLE
  2
STYLE
  5
3
330
0
100
AcDbSymbolTable
 70
     1
  0
STYLE
  5
11
330
3
100
AcDbSymbolTableRecord
100
AcDbTextStyleTableRecord
  2
Standard
 70
     0
 40
0.0
 41
1.0
 50
0.0
 71
     0
 42
3.5
  3
txt
  4

  0
ENDTAB
  0
TABLE
  2
VIEW
  5
6
330
0
100
AcDbSymbolTable
 70
     0
  0
ENDTAB
  0
TABLE
  2
UCS
  5
7
330
0
100
AcDbSymbolTable
 70
     0
  0
ENDTAB
  0
TABLE
  2
APPID
  5
9
330
0
100
AcDbSymbolTable
 70
     1
  0
APPID
  5
12
330
9
100
AcDbSymbolTableRecord
100
AcDbRegAppTableRecord
  2
ACAD
 70
     0
  0
ENDTAB
  0
TABLE
  2
DIMSTYLE
  5
A
330
0
100
AcDbSymbolTable
 70
     1
100
AcDbDimStyleTable
  0
DIMSTYLE
105
27
330
A
100
AcDbSymbolTableRecord
100
AcDbDimStyleTableRecord
  2
ISO-25
 70
     0
 41
2.5
 42
0.625
 43
3.75
 44
1.25
 73
     0
 74
     0
 77
     1
 78
     8
140
2.5
141
2.5
143
0.0393700787
147
0.625
171
     3
172
     1
178
     0
271
     2
272
     2
274
     3
278
    44
283
     0
284
     8
340
11
  0
ENDTAB
  0
TABLE
  2
BLOCK_RECORD
  5
1
330
0
100
AcDbSymbolTable
 70
     1
  0
BLOCK_RECORD
  5
1F
330
1
100
AcDbSymbolTableRecord
100
AcDbBlockTableRecord
  2
*Model_Space
340
22
  0
BLOCK_RECORD
  5
1B
330
1
100
AcDbSymbolTableRecord
100
AcDbBlockTableRecord
  2
*Paper_Space
340
1E
  0
BLOCK_RECORD
  5
23
330
1
100
AcDbSymbolTableRecord
100
AcDbBlockTableRecord
  2
*Paper_Space0
340
26
  0
ENDTAB
  0
ENDSEC
  0
SECTION
  2
BLOCKS
  0
BLOCK
  5
20
330
1F
100
AcDbEntity
  8
0
100
AcDbBlockBegin
  2
*Model_Space
 70
     0
 10
0.0
 20
0.0
 30
0.0
  3
*Model_Space
  1

  0
ENDBLK
  5
21
330
1F
100
AcDbEntity
  8
0
100
AcDbBlockEnd
  0
BLOCK
  5
1C
330
1B
100
AcDbEntity
 67
     1
  8
0
100
AcDbBlockBegin
  2
*Paper_Space
 70
     0
 10
0.0
 20
0.0
 30
0.0
  3
*Paper_Space
  1

  0
ENDBLK
  5
1D
330
1B
100
AcDbEntity
 67
     1
  8
0
100
AcDbBlockEnd
  0
BLOCK
  5
24
330
23
100
AcDbEntity
  8
0
100
AcDbBlockBegin
  2
*Paper_Space0
 70
     0
 10
0.0
 20
0.0
 30
0.0
  3
*Paper_Space0
  1

  0
ENDBLK
  5
25
330
23
100
AcDbEntity
  8
0
100
AcDbBlockEnd
  0
ENDSEC
  0
SECTION
  2
ENTITIES
  0
CIRCLE
  5
73
330
1F
100
AcDbEntity
  8
0
  6
Continuous
 62
     7
370
    25
100
AcDbCircle
 10
534.8181532003
 20
-58.7449978693
 30
0.0
 40
2.449999999999932
  0
CIRCLE
  5
74
330
1F
100
AcDbEntity
  8
0
  6
Continuous
 62
     7
370
    25
100
AcDbCircle
 10
418.6173343867
 20
-58.7449978693
 30
0.0
 40
2.450000000000045
  0
SPLINE
  5
75
330
1F
100
AcDbEntity
  8
0
  6
Continuous
 62
     7
370
    25
100
AcDbSpline
210
0.0
220
0.0
230
1.0
 70
     8
 71
     3
 72
    35
 73
    31
 74
     0
 42
0.000000001
 43
0.00000001
 40
0.0131338180849196
 40
0.0131338180849196
 40
0.0131338180849196
 40
0.0131338180849196
 40
0.0146872969698789
 40
0.0146872969698789
 40
0.0146872969698789
 40
0.0178318209875813
 40
0.0178318209875813
 40
0.0178318209875813
 40
0.0204374234219852
 40
0.0204374234219852
 40
0.0204374234219852
 40
0.023166267140289
 40
0.023166267140289
 40
0.023166267140289
 40
0.02588100018153
 40
0.02588100018153
 40
0.02588100018153
 40
0.0286394679730717
 40
0.0286394679730717
 40
0.0286394679730717
 40
0.0316276121751344
 40
0.0316276121751344
 40
0.0316276121751344
 40
0.0346602660441915
 40
0.0346602660441915
 40
0.0346602660441915
 40
0.0380636407834352
 40
0.0380636407834352
 40
0.0380636407834352
 40
0.0411107422271122
 40
0.0411107422271122
 40
0.0411107422271122
 40
0.0411107422271122
 10
501.4793734089739
 20
-67.15347061419807
 30
0.0
 10
501.9911926088921
 20
-67.11052275219197
 30
0.0
 10
502.501638355568
 20
-67.02775409098726
 30
0.0
 10
502.9994643634639
 20
-66.90137102994505
 30
0.0
 10
503.9995759311287
 20
-66.64747276167368
 30
0.0
 10
504.967940325166
 20
-66.20199434026155
 30
0.0
 10
505.8121448042758
 20
-65.60869317233835
 30
0.0
 10
506.5164744537609
 20
-65.11369508362519
 30
0.0
 10
507.1590741239729
 20
-64.51551721109593
 30
0.0
 10
507.6980598944409
 20
-63.84425146475805
 30
0.0
 10
508.259896059523
 20
-63.14452729143505
 30
0.0
 10
508.7122027656325
 20
-62.33784804986792
 30
0.0
 10
508.9999278489938
 20
-61.48785506664305
 30
0.0
 10
509.2866050678032
 20
-60.64095766864203
 30
0.0
 10
509.4187464465698
 20
-59.73254951996623
 30
0.0
 10
509.4187464465699
 20
-58.83844715976065
 30
0.0
 10
509.41874644657
 20
-57.92928553730127
 30
0.0
 10
509.290789193169
 20
-57.00566435031363
 30
0.0
 10
509.0053503777759
 20
-56.14247286609935
 30
0.0
 10
508.6977415622937
 20
-55.21223739820065
 30
0.0
 10
508.1929249182378
 20
-54.33044142780786
 30
0.0
 10
507.558151560288
 20
-53.58410102749706
 30
0.0
 10
506.9117118701163
 20
-52.82404383370167
 30
0.0
 10
506.1240043552021
 20
-52.16446747040224
 30
0.0
 10
505.2586565794819
 20
-51.66773370073755
 30
0.0
 10
504.291411691184
 20
-51.11250814514722
 30
0.0
 10
503.1929182531161
 20
-50.755100592717
 30
0.0
 10
502.0889943179249
 20
-50.59638689818794
 30
0.0
 10
501.0973734808742
 20
-50.45381927952948
 30
0.0
 10
500.0716967507073
 20
-50.45205018822811
 30
0.0
 10
499.0836164926239
 20
-50.61738262288245
 30
0.0
  0
LINE
  5
76
330
1F
100
AcDbEntity
  8
0
  6
Continuous
 62
     7
370
    25
100
AcDbLine
 10
501.479373409
 20
-60.8558521046
 30
0.0
 11
501.479373409
 21
-67.1534706142
 31
0.0
  0
SPLINE
  5
77
330
1F
100
AcDbEntity
  8
0
  6
Continuous
 62
     7
370
    25
100
AcDbSpline
210
0.0
220
0.0
230
1.0
 70
     8
 71
     3
 72
    11
 73
     7
 74
     0
 42
0.000000001
 43
0.00000001
 40
0.0037848396213397
 40
0.0037848396213397
 40
0.0037848396213397
 40
0.0037848396213397
 40
0.0042499535818403
 40
0.0042499535818403
 40
0.0042499535818403
 40
0.0046977104921656
 40
0.0046977104921656
 40
0.0046977104921656
 40
0.0046977104921656
 10
502.2401586460459
 20
-60.35425119063545
 30
0.0
 10
502.1267899207506
 20
-60.460626084898
 30
0.0
 10
502.0045792736448
 20
-60.55853276461189
 30
0.0
 10
501.8748071218748
 20
-60.64413226595055
 30
0.0
 10
501.7499981873652
 20
-60.7264579607234
 30
0.0
 10
501.6172177903034
 20
-60.79794082168959
 30
0.0
 10
501.479373408974
 20
-60.85585210460711
 30
0.0
  0
SPLINE
  5
78
330
1F
100
AcDbEntity
  8
0
  6
Continuous
 62
     7
370
    25
100
AcDbSpline
210
0.0
220
0.0
230
1.0
 70
     8
 71
     3
 72
    38
 73
    34
 74
     0
 42
0.000000001
 43
0.00000001
 40
0.0219879470535413
 40
0.0219879470535413
 40
0.0219879470535413
 40
0.0219879470535413
 40
0.0224322437550941
 40
0.0224322437550941
 40
0.0224322437550941
 40
0.0233318328884552
 40
0.0233318328884552
 40
0.0233318328884552
 40
0.0242302782783438
 40
0.0242302782783438
 40
0.0242302782783438
 40
0.0249792291736253
 40
0.0249792291736253
 40
0.0249792291736253
 40
0.0254453080396083
 40
0.0254453080396083
 40
0.0254453080396083
 40
0.0261653418348656
 40
0.0261653418348656
 40
0.0261653418348656
 40
0.0268853731141041
 40
0.0268853731141041
 40
0.0268853731141041
 40
0.0276248676893661
 40
0.0276248676893661
 40
0.0276248676893661
 40
0.0283404305969973
 40
0.0283404305969973
 40
0.0283404305969973
 40
0.0290519819107641
 40
0.0290519819107641
 40
0.0290519819107641
 40
0.0291063385246963
 40
0.0291063385246963
 40
0.0291063385246963
 40
0.0291063385246963
 10
499.0836164926239
 20
-56.84473039303676
 30
0.0
 10
499.2112900013258
 20
-56.76923171550417
 30
0.0
 10
499.3446014268542
 20
-56.70244712894753
 30
0.0
 10
499.4818377132929
 20
-56.64617300684935
 30
0.0
 10
499.7583707033995
 20
-56.53277988282028
 30
0.0
 10
500.0557780452468
 20
-56.46182669104045
 30
0.0
 10
500.3535640946719
 20
-56.43629310605596
 30
0.0
 10
500.6511119712795
 20
-56.41077994313585
 30
0.0
 10
500.956709006787
 20
-56.42495223162892
 30
0.0
 10
501.2477587226579
 20
-56.49185307801675
 30
0.0
 10
501.4903396285541
 20
-56.54761285731568
 30
0.0
 10
501.7275769788296
 20
-56.64363629646284
 30
0.0
 10
501.9381744249799
 20
-56.77631396816325
 30
0.0
 10
502.0704357888251
 20
-56.85963943165625
 30
0.0
 10
502.1941374815041
 20
-56.95795220533691
 30
0.0
 10
502.3063442073269
 20
-57.06679085615846
 30
0.0
 10
502.4782471722469
 20
-57.23353386230995
 30
0.0
 10
502.6259549724272
 20
-57.43056939305825
 30
0.0
 10
502.7331952090579
 20
-57.64470344242014
 30
0.0
 10
502.8405027561752
 20
-57.85897189531868
 30
0.0
 10
502.9099228740688
 20
-58.09498170388413
 30
0.0
 10
502.9429632677238
 20
-58.33232999640585
 30
0.0
 10
502.9769765342449
 20
-58.57666699844504
 30
0.0
 10
502.978783198501
 20
-58.82876910953328
 30
0.0
 10
502.9400565757139
 20
-59.07240351094745
 30
0.0
 10
502.9026801735328
 20
-59.30754349262126
 30
0.0
 10
502.8240629024701
 20
-59.53952793050602
 30
0.0
 10
502.7104753559399
 20
-59.74877820098335
 30
0.0
 10
502.597201755903
 20
-59.95745012118705
 30
0.0
 10
502.4478181426363
 20
-60.14845102233612
 30
0.0
 10
502.279467750315
 20
-60.31588167709225
 30
0.0
 10
502.2664849514865
 20
-60.3287935478544
 30
0.0
 10
502.2533796133226
 20
-60.3415832982983
 30
0.0
 10
502.2401586460459
 20
-60.35425119063545
 30
0.0
  0
LINE
  5
79
330
1F
100
AcDbEntity
  8
0
  6
Continuous
 62
     7
370
    25
100
AcDbLine
 10
499.0836164926
 20
-50.6173826229
 30
0.0
 11
499.0836164926
 21
-56.844730393
 31
0.0
  0
LINE
  5
7A
330
1F
100
AcDbEntity
  8
0
  6
Continuous
 62
     7
370
    25
100
AcDbLine
 10
499.579373409
 20
-67.1529936446
 30
0.0
 11
499.579373409
 21
-60.8801337166
 31
0.0
  0
SPLINE
  5
7B
330
1F
100
AcDbEntity
  8
0
  6
Continuous
 62
     7
370
    25
100
AcDbSpline
210
0.0
220
0.0
230
1.0
 70
     8
 71
     3
 72
    23
 73
    19
 74
     0
 42
0.000000001
 43
0.00000001
 40
0.0
 40
0.0
 40
0.0
 40
0.0
 40
0.0054196872270877
 40
0.0054196872270877
 40
0.0054196872270877
 40
0.0108693352620779
 40
0.0108693352620779
 40
0.0108693352620779
 40
0.0133979631622211
 40
0.0133979631622211
 40
0.0133979631622211
 40
0.0159306494121751
 40
0.0159306494121751
 40
0.0159306494121751
 40
0.0183915370993475
 40
0.0183915370993475
 40
0.0183915370993475
 40
0.0206017021822638
 40
0.0206017021822638
 40
0.0206017021822638
 40
0.0206017021822638
 10
491.7522927814509
 20
-50.82496088188755
 30
0.0
 10
491.7522927814509
 20
-52.63152329091678
 30
0.0
 10
491.7522927814509
 20
-54.43808569994602
 30
0.0
 10
491.7522927814509
 20
-56.24464810897526
 30
0.0
 10
491.7522927814509
 20
-58.05619710384615
 30
0.0
 10
491.6345373980768
 20
-59.9292378225537
 30
0.0
 10
492.1552545760459
 20
-61.66433533606286
 30
0.0
 10
492.3993204453135
 20
-62.47759462693217
 30
0.0
 10
492.7777547704271
 20
-63.26489450795986
 30
0.0
 10
493.2786162483629
 20
-63.95053041910115
 30
0.0
 10
493.7802673401208
 20
-64.63724724306202
 30
0.0
 10
494.413329393519
 20
-65.2424694840086
 30
0.0
 10
495.118126989738
 20
-65.71838351252295
 30
0.0
 10
495.8043498069691
 20
-66.18175493597694
 30
0.0
 10
496.5767818317158
 20
-66.53103996466052
 30
0.0
 10
497.371281633395
 20
-66.76424565947563
 30
0.0
 10
498.0883787776795
 20
-66.9747317255884
 30
0.0
 10
498.8340937462973
 20
-67.0973975766706
 30
0.0
 10
499.5793734089739
 20
-67.15299364460046
 30
0.0
  0
LINE
  5
7C
330
1F
100
AcDbEntity
  8
0
  6
Continuous
 62
     7
370
    25
100
AcDbLine
 10
498.1010154674
 20
-50.8249608819
 30
0.0
 11
491.7522927815
 21
-50.8249608819
 31
0.0
  0
SPLINE
  5
7D
330
1F
100
AcDbEntity
  8
0
  6
Continuous
 62
     7
370
    25
100
AcDbSpline
210
0.0
220
0.0
230
1.0
 70
     8
 71
     3
 72
    26
 73
    22
 74
     0
 42
0.000000001
 43
0.00000001
 40
0.0240756530549618
 40
0.0240756530549618
 40
0.0240756530549618
 40
0.0240756530549618
 40
0.0244482466756146
 40
0.0244482466756146
 40
0.0244482466756146
 40
0.0253128138599424
 40
0.0253128138599424
 40
0.0253128138599424
 40
0.0261702482041315
 40
0.0261702482041315
 40
0.0261702482041315
 40
0.0272348422059997
 40
0.0272348422059997
 40
0.0272348422059997
 40
0.0290111450964699
 40
0.0290111450964699
 40
0.0290111450964699
 40
0.0329288833863805
 40
0.0329288833863805
 40
0.0329288833863805
 40
0.0346431434916873
 40
0.0346431434916873
 40
0.0346431434916873
 40
0.0346431434916873
 10
499.579373408974
 20
-60.88013371662285
 30
0.0
 10
499.4634180241885
 20
-60.83430510614691
 30
0.0
 10
499.3510817275596
 20
-60.77788912140905
 30
0.0
 10
499.2452877718919
 20
-60.71190767141665
 30
0.0
 10
499.0017966543914
 20
-60.56004741728816
 30
0.0
 10
498.7881816074657
 20
-60.3524238781518
 30
0.0
 10
498.6207708060779
 20
-60.11935074657215
 30
0.0
 10
498.4542238592661
 20
-59.88748029301307
 30
0.0
 10
498.3294619586703
 20
-59.62201644345305
 30
0.0
 10
498.247320971561
 20
-59.34860347565025
 30
0.0
 10
498.1452492152402
 20
-59.0088493187231
 30
0.0
 10
498.1036860767549
 20
-58.64916999543226
 30
0.0
 10
498.1011415841899
 20
-58.29442352801465
 30
0.0
 10
498.096859665402
 20
-57.69744966189616
 30
0.0
 10
498.101015467446
 20
-57.10044508766313
 30
0.0
 10
498.101015467446
 20
-56.50345586526715
 30
0.0
 10
498.101015467446
 20
-55.18676176225608
 30
0.0
 10
498.101015467446
 20
-53.87006765924502
 30
0.0
 10
498.101015467446
 20
-52.55337355623395
 30
0.0
 10
498.101015467446
 20
-51.97723599811848
 30
0.0
 10
498.101015467446
 20
-51.40109844000302
 30
0.0
 10
498.101015467446
 20
-50.82496088188755
 30
0.0
  0
SPLINE
  5
7E
330
1F
100
AcDbEntity
  8
0
  6
Continuous
 62
     7
370
    25
100
AcDbSpline
210
0.0
220
0.0
230
1.0
 70
     8
 71
     3
 72
    17
 73
    13
 74
     0
 42
0.000000001
 43
0.00000001
 40
0.0180249400084274
 40
0.0180249400084274
 40
0.0180249400084274
 40
0.0180249400084274
 40
0.0182648032646691
 40
0.0182648032646691
 40
0.0182648032646691
 40
0.0192248746405183
 40
0.0192248746405183
 40
0.0192248746405183
 40
0.0229988941674063
 40
0.0229988941674063
 40
0.0229988941674063
 40
0.0282047991697272
 40
0.0282047991697272
 40
0.0282047991697272
 40
0.0282047991697272
 10
479.5466761533993
 20
-60.8416365355922
 30
0.0
 10
479.5010431565919
 20
-60.77583583904565
 30
0.0
 10
479.4633030480391
 20
-60.70413619991776
 30
0.0
 10
479.4329384844079
 20
-60.63004102234775
 30
0.0
 10
479.3140721758418
 20
-60.33998514183928
 30
0.0
 10
479.309407260543
 20
-60.01125569751594
 30
0.0
 10
479.309407260543
 20
-59.69778861291265
 30
0.0
 10
479.309407260543
 20
-58.45478540033248
 30
0.0
 10
479.3094072605439
 20
-57.21178218775232
 30
0.0
 10
479.3094072605439
 20
-55.96877897517216
 30
0.0
 10
479.3094072605439
 20
-54.25417294407728
 30
0.0
 10
479.3094072605439
 20
-52.53956691298242
 30
0.0
 10
479.3094072605439
 20
-50.82496088188755
 30
0.0
  0
LINE
  5
7F
330
1F
100
AcDbEntity
  8
0
  6
Continuous
 62
     7
370
    25
100
AcDbLine
 10
479.5466761534
 20
-67.1638555691
 30
0.0
 11
479.5466761534
 21
-60.8416365356
 31
0.0
  0
SPLINE
  5
80
330
1F
100
AcDbEntity
  8
0
  6
Continuous
 62
     7
370
    25
100
AcDbSpline
210
0.0
220
0.0
230
1.0
 70
     8
 71
     3
 72
    23
 73
    19
 74
     0
 42
0.000000001
 43
0.00000001
 40
0.0632539129229095
 40
0.0632539129229095
 40
0.0632539129229095
 40
0.0632539129229095
 40
0.0717211749297706
 40
0.0717211749297706
 40
0.0717211749297706
 40
0.0754088512318449
 40
0.0754088512318449
 40
0.0754088512318449
 40
0.0776649687254977
 40
0.0776649687254977
 40
0.0776649687254977
 40
0.079899509809096
 40
0.079899509809096
 40
0.079899509809096
 40
0.0823614161062123
 40
0.0823614161062123
 40
0.0823614161062123
 40
0.0831497400190711
 40
0.0831497400190711
 40
0.0831497400190711
 40
0.0831497400190711
 10
472.960684574549
 20
-50.82496088188755
 30
0.0
 10
472.960684574549
 20
-53.64738155084125
 30
0.0
 10
472.9606845745489
 20
-56.46980221979495
 30
0.0
 10
472.960684574549
 20
-59.29222288874865
 30
0.0
 10
472.960684574549
 20
-60.50439375391725
 30
0.0
 10
473.1175180416264
 20
-61.75147046179293
 30
0.0
 10
473.564345509185
 20
-62.87828163523715
 30
0.0
 10
473.8396227176308
 20
-63.57247672571845
 30
0.0
 10
474.2398135481757
 20
-64.2309718653728
 30
0.0
 10
474.7404341716589
 20
-64.78510484262766
 30
0.0
 10
475.2389654439525
 20
-65.33692513370659
 30
0.0
 10
475.8240009657257
 20
-65.82394343990366
 30
0.0
 10
476.466081150416
 20
-66.19913952134524
 30
0.0
 10
477.1715740440263
 20
-66.61139047609974
 30
0.0
 10
477.9622474499084
 20
-66.89653519021051
 30
0.0
 10
478.764611184646
 20
-67.05107809625514
 30
0.0
 10
479.0232423504581
 20
-67.10089292490188
 30
0.0
 10
479.2845504764939
 20
-67.13813152223332
 30
0.0
 10
479.5466761533989
 20
-67.16385556914516
 30
0.0
  0
LINE
  5
81
330
1F
100
AcDbEntity
  8
0
  6
Continuous
 62
     7
370
    25
100
AcDbLine
 10
479.3094072605
 20
-50.8249608819
 30
0.0
 11
472.9606845745
 21
-50.8249608819
 31
0.0
  0
SPLINE
  5
82
330
1F
100
AcDbEntity
  8
0
  6
Continuous
 62
     7
370
    25
100
AcDbSpline
210
0.0
220
0.0
230
1.0
 70
     8
 71
     3
 72
    23
 73
    19
 74
     0
 42
0.000000001
 43
0.00000001
 40
0.0387960471090166
 40
0.0387960471090166
 40
0.0387960471090166
 40
0.0387960471090166
 40
0.0396627336623
 40
0.0396627336623
 40
0.0396627336623
 40
0.0423270704153166
 40
0.0423270704153166
 40
0.0423270704153166
 40
0.0446632214641596
 40
0.0446632214641596
 40
0.0446632214641596
 40
0.047165775012864
 40
0.047165775012864
 40
0.047165775012864
 40
0.0496511760517976
 40
0.0496511760517976
 40
0.0496511760517976
 40
0.0585194894728049
 40
0.0585194894728049
 40
0.0585194894728049
 40
0.0585194894728049
 10
481.4466761533992
 20
-67.15874085584032
 30
0.0
 10
481.7350435017536
 20
-67.12739040552933
 30
0.0
 10
482.022232138129
 20
-67.08073066006
 30
0.0
 10
482.3053756585309
 20
-67.01773601595373
 30
0.0
 10
483.1667181926692
 20
-66.8261018711405
 30
0.0
 10
484.006723144064
 20
-66.46911053162728
 30
0.0
 10
484.7398831724689
 20
-65.97808000373374
 30
0.0
 10
485.3866652062545
 20
-65.54490073702878
 30
0.0
 10
485.972215571182
 20
-65.00608090823047
 30
0.0
 10
486.4631025324679
 20
-64.40192756050294
 30
0.0
 10
486.9864616539938
 20
-63.75780948389863
 30
0.0
 10
487.4050682644808
 20
-63.01051579979425
 30
0.0
 10
487.6691292794569
 20
-62.22370918628455
 30
0.0
 10
487.9319743810572
 20
-61.4405255562194
 30
0.0
 10
488.050992546713
 20
-60.60107690785132
 30
0.0
 10
488.050992546713
 20
-59.77496302596985
 30
0.0
 10
488.050992546713
 20
-56.79162897794242
 30
0.0
 10
488.050992546713
 20
-53.80829492991499
 30
0.0
 10
488.050992546713
 20
-50.82496088188755
 30
0.0
  0
LINE
  5
83
330
1F
100
AcDbEntity
  8
0
  6
Continuous
 62
     7
370
    25
100
AcDbLine
 10
481.4466761534
 20
-60.8722514765
 30
0.0
 11
481.4466761534
 21
-67.1587408558
 31
0.0
  0
SPLINE
  5
84
330
1F
100
AcDbEntity
  8
0
  6
Continuous
 62
     7
370
    25
100
AcDbSpline
210
0.0
220
0.0
230
1.0
 70
     8
 71
     3
 72
    17
 73
    13
 74
     0
 42
0.000000001
 43
0.00000001
 40
0.0373018599931096
 40
0.0373018599931096
 40
0.0373018599931096
 40
0.0373018599931096
 40
0.0424736240120867
 40
0.0424736240120867
 40
0.0424736240120867
 40
0.0467211113093245
 40
0.0467211113093245
 40
0.0467211113093245
 40
0.0471085394720044
 40
0.0471085394720044
 40
0.0471085394720044
 40
0.0473960417010354
 40
0.0473960417010354
 40
0.0473960417010354
 40
0.0473960417010354
 10
481.7022698607179
 20
-50.82496088188755
 30
0.0
 10
481.7022698607179
 20
-52.54888222154655
 30
0.0
 10
481.7022698607179
 20
-54.27280356120556
 30
0.0
 10
481.7022698607179
 20
-55.99672490086456
 30
0.0
 10
481.7022698607179
 20
-57.41253318378594
 30
0.0
 10
481.8740716836065
 20
-58.84174895936014
 30
0.0
 10
481.6792377375249
 20
-60.24408730207315
 30
0.0
 10
481.6614155420559
 20
-60.37236447635494
 30
0.0
 10
481.6317169835208
 20
-60.50034097916486
 30
0.0
 10
481.5841581324199
 20
-60.62080184324535
 30
0.0
 10
481.549078481681
 20
-60.70965438997077
 30
0.0
 10
481.5035298199837
 20
-60.79548548430707
 30
0.0
 10
481.4466761533992
 20
-60.87225147646152
 30
0.0
  0
LINE
  5
85
330
1F
100
AcDbEntity
  8
0
  6
Continuous
 62
     7
370
    25
100
AcDbLine
 10
488.0509925467
 20
-50.8249608819
 30
0.0
 11
481.7022698607
 21
-50.8249608819
 31
0.0
  0
SPLINE
  5
86
330
1F
100
AcDbEntity
  8
0
  6
Continuous
 62
     7
370
    25
100
AcDbSpline
210
0.0
220
0.0
230
1.0
 70
     8
 71
     3
 72
    23
 73
    19
 74
     0
 42
0.000000001
 43
0.00000001
 40
0.0470236352951831
 40
0.0470236352951831
 40
0.0470236352951831
 40
0.0470236352951831
 40
0.0482647105182837
 40
0.0482647105182837
 40
0.0482647105182837
 40
0.0509317705338601
 40
0.0509317705338601
 40
0.0509317705338601
 40
0.0535235795820189
 40
0.0535235795820189
 40
0.0535235795820189
 40
0.0561166845145854
 40
0.0561166845145854
 40
0.0561166845145854
 40
0.0600947438921604
 40
0.0600947438921604
 40
0.0600947438921604
 40
0.0733536737837261
 40
0.0733536737837261
 40
0.0733536737837261
 40
0.0733536737837261
 10
442.3411605015974
 20
-67.14981760242561
 30
0.0
 10
442.7553577088775
 20
-67.11060288380034
 30
0.0
 10
443.1677484502403
 20
-67.04224480029163
 30
0.0
 10
443.5726526428689
 20
-66.94659065523084
 30
0.0
 10
444.4427816197707
 20
-66.7410322913181
 30
0.0
 10
445.2926625607141
 20
-66.41155048323736
 30
0.0
 10
446.0723197608294
 20
-65.97392812580253
 30
0.0
 10
446.8279179434152
 20
-65.54981011869926
 30
0.0
 10
447.5294089071198
 20
-65.00307140806514
 30
0.0
 10
448.109906360723
 20
-64.35977722665474
 30
0.0
 10
448.690460263545
 20
-63.71642048949349
 30
0.0
 10
449.1662687071512
 20
-62.96306736807988
 30
0.0
 10
449.5019420899969
 20
-62.16414678042334
 30
0.0
 10
450.0121118012149
 20
-60.94991560714607
 30
0.0
 10
450.218307478847
 20
-59.59552231110697
 30
0.0
 10
450.218307478847
 20
-58.27846860058394
 30
0.0
 10
450.218307478847
 20
-53.81473146507795
 30
0.0
 10
450.218307478847
 20
-49.35099432957194
 30
0.0
 10
450.218307478847
 20
-44.88725719406595
 30
0.0
  0
LINE
  5
87
330
1F
100
AcDbEntity
  8
0
  6
Continuous
 62
     7
370
    25
100
AcDbLine
 10
442.3411605016
 20
-61.1121364855
 30
0.0
 11
442.3411605016
 21
-67.1498176024
 31
0.0
  0
SPLINE
  5
88
330
1F
100
AcDbEntity
  8
0
  6
Continuous
 62
     7
370
    25
100
AcDbSpline
210
0.0
220
0.0
230
1.0
 70
     8
 71
     3
 72
    26
 73
    22
 74
     0
 42
0.000000001
 43
0.00000001
 40
0.0431523334243525
 40
0.0431523334243525
 40
0.0431523334243525
 40
0.0431523334243525
 40
0.0444918654320329
 40
0.0444918654320329
 40
0.0444918654320329
 40
0.0522656478260086
 40
0.0522656478260086
 40
0.0522656478260086
 40
0.0566211262238482
 40
0.0566211262238482
 40
0.0566211262238482
 40
0.0578261102732421
 40
0.0578261102732421
 40
0.0578261102732421
 40
0.0586818725045316
 40
0.0586818725045316
 40
0.0586818725045316
 40
0.0593452344262178
 40
0.0593452344262178
 40
0.0593452344262178
 40
0.0599893720896806
 40
0.0599893720896806
 40
0.0599893720896806
 40
0.0599893720896806
 10
443.8695847928519
 20
-44.88725719406595
 30
0.0
 10
443.8695847928519
 20
-45.33376786329278
 30
0.0
 10
443.8695847928519
 20
-45.78027853251961
 30
0.0
 10
443.8695847928519
 20
-46.22678920174644
 30
0.0
 10
443.8695847928519
 20
-48.81804999973834
 30
0.0
 10
443.8695847928519
 20
-51.40931079773024
 30
0.0
 10
443.8695847928519
 20
-54.00057159572214
 30
0.0
 10
443.8695847928519
 20
-55.45239643738909
 30
0.0
 10
443.9205460659904
 20
-56.90532773795999
 30
0.0
 10
443.8637765181119
 20
-58.35604224788774
 30
0.0
 10
443.8481448072189
 20
-58.75550200501075
 30
0.0
 10
443.8006905724953
 20
-59.15820806566165
 30
0.0
 10
443.692428770051
 20
-59.54303507884775
 30
0.0
 10
443.6156325123201
 20
-59.81601478008336
 30
0.0
 10
443.5054531939654
 20
-60.08454026749508
 30
0.0
 10
443.3504389479559
 20
-60.32199798167234
 30
0.0
 10
443.2302124411297
 20
-60.50616629025955
 30
0.0
 10
443.0794402133599
 20
-60.67455767190469
 30
0.0
 10
442.9056523913395
 20
-60.80935445135025
 30
0.0
 10
442.736933012343
 20
-60.94021994384772
 30
0.0
 10
442.5429230185915
 20
-61.04225163225048
 30
0.0
 10
442.3411605015974
 20
-61.11213648548605
 30
0.0
  0
LINE
  5
89
330
1F
100
AcDbEntity
  8
0
  6
Continuous
 62
     7
370
    25
100
AcDbLine
 10
450.2183074788
 20
-44.8872571941
 30
0.0
 11
443.8695847929
 21
-44.8872571941
 31
0.0
  0
LINE
  5
8A
330
1F
100
AcDbEntity
  8
0
  6
Continuous
 62
     7
370
    25
100
AcDbLine
 10
440.4411605016
 20
-67.1410046785
 30
0.0
 11
440.4411605016
 21
-61.0713921184
 31
0.0
  0
SPLINE
  5
8B
330
1F
100
AcDbEntity
  8
0
  6
Continuous
 62
     7
370
    25
100
AcDbSpline
210
0.0
220
0.0
230
1.0
 70
     8
 71
     3
 72
    35
 73
    31
 74
     0
 42
0.000000001
 43
0.00000001
 40
0.0
 40
0.0
 40
0.0
 40
0.0
 40
0.0042078115168239
 40
0.0042078115168239
 40
0.0042078115168239
 40
0.0070758713861901
 40
0.0070758713861901
 40
0.0070758713861901
 40
0.0099223224446754
 40
0.0099223224446754
 40
0.0099223224446754
 40
0.0124963612560001
 40
0.0124963612560001
 40
0.0124963612560001
 40
0.0150695008952039
 40
0.0150695008952039
 40
0.0150695008952039
 40
0.0177628824337487
 40
0.0177628824337487
 40
0.0177628824337487
 40
0.0204489678029153
 40
0.0204489678029153
 40
0.0204489678029153
 40
0.0229986081661704
 40
0.0229986081661704
 40
0.0229986081661704
 40
0.0260519352552805
 40
0.0260519352552805
 40
0.0260519352552805
 40
0.0272638628134694
 40
0.0272638628134694
 40
0.0272638628134694
 40
0.0272638628134694
 10
442.902257358739
 20
-50.59807301739355
 30
0.0
 10
441.506172861299
 20
-50.46299672406043
 30
0.0
 10
440.0476898486044
 20
-50.44023821959285
 30
0.0
 10
438.7009639081714
 20
-50.83219072995324
 30
0.0
 10
437.7733108452192
 20
-51.10217583668607
 30
0.0
 10
436.8835396245368
 20
-51.54785656087869
 30
0.0
 10
436.1029173805349
 20
-52.11712018630344
 30
0.0
 10
435.325602060414
 20
-52.68397225928788
 30
0.0
 10
434.6236011803265
 20
-53.37392659727472
 30
0.0
 10
434.0518927723189
 20
-54.14767712280275
 30
0.0
 10
433.5357337218186
 20
-54.84624711230576
 30
0.0
 10
433.1240436966434
 20
-55.63868196819036
 30
0.0
 10
432.8666895009679
 20
-56.46825355257345
 30
0.0
 10
432.6092224014504
 20
-57.29818907825128
 30
0.0
 10
432.4998886590737
 20
-58.18297544146466
 30
0.0
 10
432.5183142392705
 20
-59.05173477644214
 30
0.0
 10
432.5375751088553
 20
-59.95987769910666
 30
0.0
 10
432.6982258550295
 20
-60.88054668797247
 30
0.0
 10
433.018919927577
 20
-61.73039953459694
 30
0.0
 10
433.3384976103115
 20
-62.57729390103227
 30
0.0
 10
433.8258603543836
 20
-63.37313868170747
 30
0.0
 10
434.4178977949524
 20
-64.05786609620655
 30
0.0
 10
434.982557308165
 20
-64.7109292676554
 30
0.0
 10
435.6462959207492
 20
-65.28970723240874
 30
0.0
 10
436.3710859848489
 20
-65.75876078451836
 30
0.0
 10
437.233950984063
 20
-66.31717060954149
 30
0.0
 10
438.2132784770359
 20
-66.72231807199852
 30
0.0
 10
439.2160971148615
 20
-66.94751203102224
 30
0.0
 10
439.6194682891399
 20
-67.03809346645384
 30
0.0
 10
440.0296010613097
 20
-67.10186227447448
 30
0.0
 10
440.4411605015974
 20
-67.14100467850923
 30
0.0
  0
LINE
  5
8C
330
1F
100
AcDbEntity
  8
0
  6
Continuous
 62
     7
370
    25
100
AcDbLine
 10
442.9022573587
 20
-57.2309225028
 30
0.0
 11
442.9022573587
 21
-50.5980730174
 31
0.0
  0
SPLINE
  5
8D
330
1F
100
AcDbEntity
  8
0
  6
Continuous
 62
     7
370
    25
100
AcDbSpline
210
0.0
220
0.0
230
1.0
 70
     8
 71
     3
 72
    23
 73
    19
 74
     0
 42
0.000000001
 43
0.00000001
 40
0.0044206671264807
 40
0.0044206671264807
 40
0.0044206671264807
 40
0.0044206671264807
 40
0.0046906515016138
 40
0.0046906515016138
 40
0.0046906515016138
 40
0.0054982061253993
 40
0.0054982061253993
 40
0.0054982061253993
 40
0.0063027107874579
 40
0.0063027107874579
 40
0.0063027107874579
 40
0.007105360826352
 40
0.007105360826352
 40
0.007105360826352
 40
0.0079837538328353
 40
0.0079837538328353
 40
0.0079837538328353
 40
0.0080206986242937
 40
0.0080206986242937
 40
0.0080206986242937
 40
0.0080206986242937
 10
439.648982461906
 20
-57.32264312888584
 30
0.0
 10
439.7136772805294
 20
-57.25998121405044
 30
0.0
 10
439.7813673658555
 20
-57.20023795148501
 30
0.0
 10
439.8518992495599
 20
-57.14422734080575
 30
0.0
 10
440.0606099368586
 20
-56.9784865093276
 30
0.0
 10
440.2997388469561
 20
-56.84405492391864
 30
0.0
 10
440.551990550483
 20
-56.75803601739474
 30
0.0
 10
440.8035160950648
 20
-56.67226473416752
 30
0.0
 10
441.0735122247428
 20
-56.63232473265944
 30
0.0
 10
441.3392598730929
 20
-56.63232473265944
 30
0.0
 10
441.6030474592787
 20
-56.63232473265945
 30
0.0
 10
441.8701358547229
 20
-56.68622497128968
 30
0.0
 10
442.1167511234894
 20
-56.77984548099225
 30
0.0
 10
442.3876415902484
 20
-56.88268138283399
 30
0.0
 10
442.6418847941083
 20
-57.03370374965287
 30
0.0
 10
442.8729524343424
 20
-57.20853113116155
 30
0.0
 10
442.8827559873615
 20
-57.21594856746751
 30
0.0
 10
442.892524285231
 20
-57.22341282284464
 30
0.0
 10
442.902257358739
 20
-57.23092250281385
 30
0.0
  0
SPLINE
  5
8E
330
1F
100
AcDbEntity
  8
0
  6
Continuous
 62
     7
370
    25
100
AcDbSpline
210
0.0
220
0.0
230
1.0
 70
     8
 71
     3
 72
    23
 73
    19
 74
     0
 42
0.000000001
 43
0.00000001
 40
0.0066063332173632
 40
0.0066063332173632
 40
0.0066063332173632
 40
0.0066063332173632
 40
0.0072180392193759
 40
0.0072180392193759
 40
0.0072180392193759
 40
0.0079215704008023
 40
0.0079215704008023
 40
0.0079215704008023
 40
0.0084309701252892
 40
0.0084309701252892
 40
0.0084309701252892
 40
0.0091786367354403
 40
0.0091786367354403
 40
0.0091786367354403
 40
0.0099281112176606
 40
0.0099281112176606
 40
0.0099281112176606
 40
0.0102566056491345
 40
0.0102566056491345
 40
0.0102566056491345
 40
0.0102566056491345
 10
439.6744384470139
 20
-60.58596645650164
 30
0.0
 10
439.5251845445584
 20
-60.44742538440033
 30
0.0
 10
439.3894781517803
 20
-60.29136398715338
 30
0.0
 10
439.2789428325274
 20
-60.12033095158764
 30
0.0
 10
439.1517821994257
 20
-59.92357330678368
 30
0.0
 10
439.0566216729695
 20
-59.70194260007182
 30
0.0
 10
439.0033224291889
 20
-59.47381415377004
 30
0.0
 10
438.9644165028795
 20
-59.30729118099708
 30
0.0
 10
438.9463972729184
 20
-59.13496711446329
 30
0.0
 10
438.9463972729184
 20
-58.96395959543815
 30
0.0
 10
438.9463972729184
 20
-58.71464805663732
 30
0.0
 10
438.984777329542
 20
-58.46138398909584
 30
0.0
 10
439.065866307262
 20
-58.22562813853945
 30
0.0
 10
439.1471241383283
 20
-57.98938136843502
 30
0.0
 10
439.2731927462817
 20
-57.76554808402537
 30
0.0
 10
439.4278637389444
 20
-57.56935365106894
 30
0.0
 10
439.4962333390067
 20
-57.48262934236219
 30
0.0
 10
439.5704798349339
 20
-57.40031452318143
 30
0.0
 10
439.648982461906
 20
-57.32264312888584
 30
0.0
  0
SPLINE
  5
8F
330
1F
100
AcDbEntity
  8
0
  6
Continuous
 62
     7
370
    25
100
AcDbSpline
210
0.0
220
0.0
230
1.0
 70
     8
 71
     3
 72
    11
 73
     7
 74
     0
 42
0.000000001
 43
0.00000001
 40
0.0003897983722294
 40
0.0003897983722294
 40
0.0003897983722294
 40
0.0003897983722294
 40
0.0008371791784762
 40
0.0008371791784762
 40
0.0008371791784762
 40
0.0012975145195349
 40
0.0012975145195349
 40
0.0012975145195349
 40
0.0012975145195349
 10
440.4411605015974
 20
-61.07139211836936
 30
0.0
 10
440.3022288105338
 20
-61.01587259975249
 30
0.0
 10
440.1679989284037
 20
-60.94696133072031
 30
0.0
 10
440.041602852852
 20
-60.86690844935825
 30
0.0
 10
439.91141205907
 20
-60.78445218539939
 30
0.0
 10
439.7884911245806
 20
-60.68960363608264
 30
0.0
 10
439.6744384470139
 20
-60.58596645650164
 30
0.0
  0
SPLINE
  5
90
330
1F
100
AcDbEntity
  8
0
  6
Continuous
 62
     7
370
    25
100
AcDbSpline
210
0.0
220
0.0
230
1.0
 70
     8
 71
     3
 72
    14
 73
    10
 74
     0
 42
0.000000001
 43
0.00000001
 40
0.1387184904926396
 40
0.1387184904926396
 40
0.1387184904926396
 40
0.1387184904926396
 40
0.2478522281088925
 40
0.2478522281088925
 40
0.375348709180253
 40
0.375348709180253
 40
0.500488992449473
 40
0.500488992449473
 40
0.6094304877393053
 40
0.6094304877393053
 40
0.6094304877393053
 40
0.6094304877393053
 10
462.3331201928498
 20
-67.15751066568387
 30
0.0
 10
464.4125442744368
 20
-66.95696172593244
 30
0.0
 10
466.1958507644775
 20
-66.1722210608925
 30
0.0
 10
469.4273237134029
 20
-63.19751441418704
 30
0.0
 10
470.297988532227
 20
-61.22318343763375
 30
0.0
 10
470.297988532227
 20
-56.56474111344846
 30
0.0
 10
469.427393841525
 20
-54.59033395221345
 30
0.0
 10
466.1704033940107
 20
-51.52919120135623
 30
0.0
 10
464.3855894944895
 20
-50.7284001500358
 30
0.0
 10
462.3331201928499
 20
-50.54329271532175
 30
0.0
  0
LINE
  5
91
330
1F
100
AcDbEntity
  8
0
  6
Continuous
 62
     7
370
    25
100
AcDbLine
 10
462.3331201928
 20
-61.1020310513
 30
0.0
 11
462.3331201928
 21
-67.1575106657
 31
0.0
  0
SPLINE
  5
92
330
1F
100
AcDbEntity
  8
0
  6
Continuous
 62
     7
370
    25
100
AcDbSpline
210
0.0
220
0.0
230
1.0
 70
     8
 71
     3
 72
    15
 73
    11
 74
     0
 42
0.000000001
 43
0.00000001
 40
0.6903481128410658
 40
0.6903481128410658
 40
0.6903481128410658
 40
0.6903481128410658
 40
0.751571325232864
 40
0.751571325232864
 40
0.8744500245800501
 40
0.8744500245800501
 40
1.0
 40
1.0
 40
1.0
 40
1.063687655228081
 40
1.063687655228081
 40
1.063687655228081
 40
1.063687655228081
 10
462.33312019285
 20
-56.61597715907033
 30
0.0
 10
462.6207572548218
 20
-56.73424808453753
 30
0.0
 10
462.8847611510813
 20
-56.91187459134281
 30
0.0
 10
463.605646134777
 20
-57.62449409905325
 30
0.0
 10
463.847441905799
 20
-58.18674797451195
 30
0.0
 10
463.847441905799
 20
-59.53359295735925
 30
0.0
 10
463.6081556457809
 20
-60.10322631928035
 30
0.0
 10
463.1346743227679
 20
-60.57148425238495
 30
0.0
 10
462.8945460690722
 20
-60.8089634396105
 30
0.0
 10
462.6269186179633
 20
-60.98560247213143
 30
0.0
 10
462.3331201928493
 20
-61.10203105132
 30
0.0
  0
LINE
  5
93
330
1F
100
AcDbEntity
  8
0
  6
Continuous
 62
     7
370
    25
100
AcDbLine
 10
462.3331201928
 20
-50.5432927153
 30
0.0
 11
462.3331201928
 21
-56.6159771591
 31
0.0
  0
SPLINE
  5
94
330
1F
100
AcDbEntity
  8
0
  6
Continuous
 62
     7
370
    25
100
AcDbSpline
210
0.0
220
0.0
230
1.0
 70
     8
 71
     3
 72
    15
 73
    11
 74
     0
 42
0.000000001
 43
0.00000001
 40
0.6424058906379448
 40
0.6424058906379448
 40
0.6424058906379448
 40
0.6424058906379448
 40
0.751158395088528
 40
0.751158395088528
 40
0.8764930964080521
 40
0.8764930964080521
 40
1.0
 40
1.0
 40
1.0
 40
1.106373810989514
 40
1.106373810989514
 40
1.106373810989514
 40
1.106373810989514
 10
460.4331201928499
 20
-50.5443663097831
 30
0.0
 10
458.385732316989
 20
-50.73167968217934
 30
0.0
 10
456.6071720564914
 20
-51.53323007413866
 30
0.0
 10
453.3646672382259
 20
-54.58067914946905
 30
0.0
 10
452.494072547524
 20
-56.55508631070404
 30
0.0
 10
452.494072547524
 20
-61.15559981842274
 30
0.0
 10
453.3493936471609
 20
-63.11552477554104
 30
0.0
 10
455.065127043456
 20
-64.75201384072115
 30
0.0
 10
456.5863176299183
 20
-66.20294541679009
 30
0.0
 10
458.3756486797164
 20
-67.01256736042612
 30
0.0
 10
460.4331201928499
 20
-67.17751521539792
 30
0.0
  0
LINE
  5
95
330
1F
100
AcDbEntity
  8
0
  6
Continuous
 62
     7
370
    25
100
AcDbLine
 10
460.4331201928
 20
-56.629698698
 30
0.0
 11
460.4331201928
 21
-50.5443663098
 31
0.0
  0
SPLINE
  5
96
330
1F
100
AcDbEntity
  8
0
  6
Continuous
 62
     7
370
    25
100
AcDbSpline
210
0.0
220
0.0
230
1.0
 70
     8
 71
     3
 72
    14
 73
    10
 74
     0
 42
0.000000001
 43
0.00000001
 40
0.1905691838920192
 40
0.1905691838920192
 40
0.1905691838920192
 40
0.1905691838920192
 40
0.253045141298766
 40
0.253045141298766
 40
0.380511910236581
 40
0.380511910236581
 40
0.505266620260826
 40
0.505266620260826
 40
0.5652317017479127
 40
0.5652317017479127
 40
0.5652317017479127
 40
0.5652317017479127
 10
460.4331201928499
 20
-61.09010606940568
 30
0.0
 10
460.1484341052603
 20
-60.97367844344759
 30
0.0
 10
459.8894566463817
 20
-60.80099397423485
 30
0.0
 10
459.183905433969
 20
-60.10322631928034
 30
0.0
 10
458.9446191739519
 20
-59.53359295735925
 30
0.0
 10
458.9446191739519
 20
-58.18674797451195
 30
0.0
 10
459.183905433969
 20
-57.62194201396305
 30
0.0
 10
459.9000488241381
 20
-56.92146165266328
 30
0.0
 10
460.1551423330833
 20
-56.74812251325383
 30
0.0
 10
460.4331201928476
 20
-56.62969869795651
 30
0.0
  0
LINE
  5
97
330
1F
100
AcDbEntity
  8
0
  6
Continuous
 62
     7
370
    25
100
AcDbLine
 10
460.4331201928
 20
-67.1775152154
 30
0.0
 11
460.4331201928
 21
-61.0901060694
 31
0.0
  0
ARC
  5
98
330
1F
100
AcDbEntity
  8
0
  6
Continuous
 62
     7
370
    25
100
AcDbCircle
 10
538.3518991123
 20
-44.1749608819
 30
0.0
 40
2.850000000000231
100
AcDbArc
 50
350.0
 51
90.0
  0
LINE
  5
99
330
1F
100
AcDbEntity
  8
0
  6
Continuous
 62
     7
370
    25
100
AcDbLine
 10
417.6673343867
 20
-41.3249608819
 30
0.0
 11
538.3518991123
 21
-41.3249608819
 31
0.0
  0
ARC
  5
9A
330
1F
100
AcDbEntity
  8
0
  6
Continuous
 62
     7
370
    25
100
AcDbCircle
 10
417.6673343867
 20
-44.1749608819
 30
0.0
 40
2.850000000000023
100
AcDbArc
 50
90.0
 51
180.0
  0
LINE
  5
9B
330
1F
100
AcDbEntity
  8
0
  6
Continuous
 62
     7
370
    25
100
AcDbLine
 10
414.8173343867
 20
-44.1749608819
 30
0.0
 11
414.8173343867
 21
-73.3150348567
 31
0.0
  0
ARC
  5
9C
330
1F
100
AcDbEntity
  8
0
  6
Continuous
 62
     7
370
    25
100
AcDbCircle
 10
417.6673343867
 20
-73.3150348567
 30
0.0
 40
2.850000000000023
100
AcDbArc
 50
180.0
 51
270.0
  0
LINE
  5
9D
330
1F
100
AcDbEntity
  8
0
  6
Continuous
 62
     7
370
    25
100
AcDbLine
 10
533.2137178507
 20
-76.1650348567
 30
0.0
 11
417.6673343867
 21
-76.1650348567
 31
0.0
  0
ARC
  5
9E
330
1F
100
AcDbEntity
  8
0
  6
Continuous
 62
     7
370
    25
100
AcDbCircle
 10
533.2137178507
 20
-73.3150348567
 30
0.0
 40
2.850000000000105
100
AcDbArc
 50
270.0
 51
350.0
  0
LINE
  5
9F
330
1F
100
AcDbEntity
  8
0
  6
Continuous
 62
     7
370
    25
100
AcDbLine
 10
541.1586012084
 20
-44.6698581882
 30
0.0
 11
536.0204199468
 21
-73.8099321631
 31
0.0
  0
SPLINE
  5
A0
330
1F
100
AcDbEntity
  8
0
  6
Continuous
 62
     7
370
    25
100
AcDbSpline
210
0.0
220
0.0
230
1.0
 70
     8
 71
     3
 72
    35
 73
    31
 74
     0
 42
0.000000001
 43
0.00000001
 40
0.0038184123724103
 40
0.0038184123724103
 40
0.0038184123724103
 40
0.0038184123724103
 40
0.0048422932995323
 40
0.0048422932995323
 40
0.0048422932995323
 40
0.006146331277065
 40
0.006146331277065
 40
0.006146331277065
 40
0.0072421872196035
 40
0.0072421872196035
 40
0.0072421872196035
 40
0.0084130731345737
 40
0.0084130731345737
 40
0.0084130731345737
 40
0.0087245007591769
 40
0.0087245007591769
 40
0.0087245007591769
 40
0.0096978932394518
 40
0.0096978932394518
 40
0.0096978932394518
 40
0.0106825542909745
 40
0.0106825542909745
 40
0.0106825542909745
 40
0.0115374082156743
 40
0.0115374082156743
 40
0.0115374082156743
 40
0.0125581600247198
 40
0.0125581600247198
 40
0.0125581600247198
 40
0.013346002512529
 40
0.013346002512529
 40
0.013346002512529
 40
0.013346002512529
 10
424.3092058356805
 20
-73.17100183386015
 30
0.0
 10
424.5600143148113
 20
-73.39914770638735
 30
0.0
 10
424.8467482918242
 20
-73.59455599560613
 30
0.0
 10
425.1546244528104
 20
-73.73656902969634
 30
0.0
 10
425.5452530331602
 20
-73.9167530027592
 30
0.0
 10
425.9818788139237
 20
-74.01339976969543
 30
0.0
 10
426.4118095762084
 20
-74.02811342240524
 30
0.0
 10
426.7756551440506
 20
-74.04056542118008
 30
0.0
 10
427.1467217723626
 20
-74.00001839420895
 30
0.0
 10
427.4962164615364
 20
-73.89807668659525
 30
0.0
 10
427.8682350521402
 20
-73.78956513673492
 30
0.0
 10
428.2244587050165
 20
-73.60654742896836
 30
0.0
 10
428.5329433405294
 20
-73.37200571016244
 30
0.0
 10
428.6162646877544
 20
-73.30865626016836
 30
0.0
 10
428.6967580690582
 20
-73.2414331728039
 30
0.0
 10
428.7741856236659
 20
-73.17100183386015
 30
0.0
 10
429.013658070594
 20
-72.95316768989508
 30
0.0
 10
429.2272282763565
 20
-72.69888313292046
 30
0.0
 10
429.3859993712884
 20
-72.41676523818705
 30
0.0
 10
429.5459157110903
 20
-72.13261237561649
 30
0.0
 10
429.6521661805944
 20
-71.81165010393421
 30
0.0
 10
429.6937392220935
 20
-71.48824978349035
 30
0.0
 10
429.7301146384563
 20
-71.20528224289639
 30
0.0
 10
429.7225684246077
 20
-70.91426412811047
 30
0.0
 10
429.677745078519
 20
-70.63251127969404
 30
0.0
 10
429.6246842804276
 20
-70.29897904022413
 30
0.0
 10
429.5077550713518
 20
-69.96841158160377
 30
0.0
 10
429.3314792661999
 20
-69.68033859852834
 30
0.0
 10
429.1944851933666
 20
-69.4564605048173
 30
0.0
 10
429.0202301556147
 20
-69.25289911425524
 30
0.0
 10
428.8250975938824
 20
-69.07736547022374
 30
0.0
  0
SPLINE
  5
A1
330
1F
100
AcDbEntity
  8
0
  6
Continuous
 62
     7
370
    25
100
AcDbSpline
210
0.0
220
0.0
230
1.0
 70
     8
 71
     3
 72
    35
 73
    31
 74
     0
 42
0.000000001
 43
0.00000001
 40
0.0
 40
0.0
 40
0.0
 40
0.0
 40
0.0010256649165018
 40
0.0010256649165018
 40
0.0010256649165018
 40
0.0020461669838605
 40
0.0020461669838605
 40
0.0020461669838605
 40
0.0034865037161423
 40
0.0034865037161423
 40
0.0034865037161423
 40
0.0045023619178999
 40
0.0045023619178999
 40
0.0045023619178999
 40
0.0055197701954776
 40
0.0055197701954776
 40
0.0055197701954776
 40
0.0065027474308109
 40
0.0065027474308109
 40
0.0065027474308109
 40
0.007354955847255
 40
0.007354955847255
 40
0.007354955847255
 40
0.0083719718197232
 40
0.0083719718197232
 40
0.0083719718197232
 40
0.0092323313037883
 40
0.0092323313037883
 40
0.0092323313037883
 40
0.0095220032858955
 40
0.0095220032858955
 40
0.0095220032858955
 40
0.0095220032858955
 10
428.8250975938824
 20
-69.07736547022374
 30
0.0
 10
428.5709185422336
 20
-68.84871590617213
 30
0.0
 10
428.2737113539527
 20
-68.66044689255563
 30
0.0
 10
427.9576642726944
 20
-68.53005572772373
 30
0.0
 10
427.6423628197961
 20
-68.39997218588898
 30
0.0
 10
427.3023188773248
 20
-68.323232495166
 30
0.0
 10
426.962781898378
 20
-68.29080759757564
 30
0.0
 10
426.485492614763
 20
-68.24522771349294
 30
0.0
 10
425.9917831558073
 20
-68.27183069288415
 30
0.0
 10
425.5280902658785
 20
-68.39377941127043
 30
0.0
 10
425.1998069772437
 20
-68.48011613798361
 30
0.0
 10
424.8802971387423
 20
-68.6205035941398
 30
0.0
 10
424.598748370673
 20
-68.81011962504184
 30
0.0
 10
424.3168058273428
 20
-69.0000008537018
 30
0.0
 10
424.0622419696011
 20
-69.24084664024944
 30
0.0
 10
423.8630730307064
 20
-69.51630664191303
 30
0.0
 10
423.6711421009067
 20
-69.78175613687611
 30
0.0
 10
423.5292994841187
 20
-70.09041017660192
 30
0.0
 10
423.4511920525824
 20
-70.40852987943204
 30
0.0
 10
423.3829491801512
 20
-70.68647273161761
 30
0.0
 10
423.357248809379
 20
-70.97739885861706
 30
0.0
 10
423.370259068955
 20
-71.26330103045994
 30
0.0
 10
423.3856406023142
 20
-71.60131225675424
 30
0.0
 10
423.4676862660286
 20
-71.94319463827675
 30
0.0
 10
423.6122553263905
 20
-72.24911614365934
 30
0.0
 10
423.7355012213276
 20
-72.5099158584602
 30
0.0
 10
423.9051369389226
 20
-72.75141567362553
 30
0.0
 10
424.1007157177244
 20
-72.96344157567864
 30
0.0
 10
424.1672055212558
 20
-73.0355228140289
 30
0.0
 10
424.2369419851834
 20
-73.10471054629481
 30
0.0
 10
424.3092058356805
 20
-73.17100183386015
 30
0.0
  0
LINE
  5
A2
330
1F
100
AcDbEntity
  8
0
  6
Continuous
 62
     7
370
    25
100
AcDbLine
 10
423.3876991748
 20
-50.8249608819
 30
0.0
 11
423.3876991748
 21
-66.8712430431
 31
0.0
  0
LINE
  5
A3
330
1F
100
AcDbEntity
  8
0
  6
Continuous
 62
     7
370
    25
100
AcDbLine
 10
429.7364218608
 20
-50.8249608819
 30
0.0
 11
423.3876991748
 21
-50.8249608819
 31
0.0
  0
LINE
  5
A4
330
1F
100
AcDbEntity
  8
0
  6
Continuous
 62
     7
370
    25
100
AcDbLine
 10
429.7364218608
 20
-66.8712430431
 30
0.0
 11
429.7364218608
 21
-50.8249608819
 31
0.0
  0
LINE
  5
A5
330
1F
100
AcDbEntity
  8
0
  6
Continuous
 62
     7
370
    25
100
AcDbLine
 10
423.3876991748
 20
-66.8712430431
 30
0.0
 11
429.7364218608
 21
-66.8712430431
 31
0.0
  0
LINE
  5
A6
330
1F
100
AcDbEntity
  8
0
  6
Continuous
 62
     7
370
    25
100
AcDbLine
 10
514.2553836171
 20
-61.0300873827
 30
0.0
 11
511.1497534339
 21
-66.8712430431
 31
0.0
  0
LINE
  5
A7
330
1F
100
AcDbEntity
  8
0
  6
Continuous
 62
     7
370
    25
100
AcDbLine
 10
509.6376679185
 20
-50.8249608819
 30
0.0
 11
514.2553836171
 21
-61.0300873827
 31
0.0
  0
LINE
  5
A8
330
1F
100
AcDbEntity
  8
0
  6
Continuous
 62
     7
370
    25
100
AcDbLine
 10
516.6635198084
 20
-50.8249608819
 30
0.0
 11
509.6376679185
 21
-50.8249608819
 31
0.0
  0
LINE
  5
A9
330
1F
100
AcDbEntity
  8
0
  6
Continuous
 62
     7
370
    25
100
AcDbLine
 10
520.6346534853
 20
-61.3004218596
 30
0.0
 11
516.6635198084
 21
-50.8249608819
 31
0.0
  0
LINE
  5
AA
330
1F
100
AcDbEntity
  8
0
  6
Continuous
 62
     7
370
    25
100
AcDbLine
 10
517.753035971
 20
-66.8712430431
 30
0.0
 11
520.6346534853
 21
-61.3004218596
 31
0.0
  0
LINE
  5
AB
330
1F
100
AcDbEntity
  8
0
  6
Continuous
 62
     7
370
    25
100
AcDbLine
 10
511.1497534339
 20
-66.8712430431
 30
0.0
 11
517.753035971
 21
-66.8712430431
 31
0.0
  0
LINE
  5
AC
330
1F
100
AcDbEntity
  8
0
  6
Continuous
 62
     7
370
    25
100
AcDbLine
 10
520.8739397453
 20
-50.8249608819
 30
0.0
 11
520.8739397453
 21
-72.7896371255
 31
0.0
  0
LINE
  5
AD
330
1F
100
AcDbEntity
  8
0
  6
Continuous
 62
     7
370
    25
100
AcDbLine
 10
527.2226624313
 20
-50.8249608819
 30
0.0
 11
520.8739397453
 21
-50.8249608819
 31
0.0
  0
LINE
  5
AE
330
1F
100
AcDbEntity
  8
0
  6
Continuous
 62
     7
370
    25
100
AcDbLine
 10
527.2226624313
 20
-72.7896371255
 30
0.0
 11
527.2226624313
 21
-50.8249608819
 31
0.0
  0
LINE
  5
AF
330
1F
100
AcDbEntity
  8
0
  6
Continuous
 62
     7
370
    25
100
AcDbLine
 10
520.8739397453
 20
-72.7896371255
 30
0.0
 11
527.2226624313
 21
-72.7896371255
 31
0.0
  0
LINE
  5
B0
330
1F
100
AcDbEntity
  8
0
  6
Continuous
 62
     7
370
    25
100
AcDbLine
 10
455.7495409276
 20
-44.8530088785
 30
0.0
 11
454.2982598215
 21
-44.8530088785
 31
0.0
  0
LINE
  5
B1
330
1F
100
AcDbEntity
  8
0
  6
Continuous
 62
     7
370
    25
100
AcDbLine
 10
454.2982598215
 20
-44.8530088785
 30
0.0
 11
455.0231938112
 21
-47.7842280771
 31
0.0
  0
LINE
  5
B2
330
1F
100
AcDbEntity
  8
0
  6
Continuous
 62
     7
370
    25
100
AcDbLine
 10
455.0231938112
 20
-47.7842280771
 30
0.0
 11
454.7405684741
 21
-48.9249608819
 31
0.0
  0
LINE
  5
B3
330
1F
100
AcDbEntity
  8
0
  6
Continuous
 62
     7
370
    25
100
AcDbLine
 10
454.7405684741
 20
-48.9249608819
 30
0.0
 11
453.8926924627
 21
-48.9249608819
 31
0.0
  0
LINE
  5
B4
330
1F
100
AcDbEntity
  8
0
  6
Continuous
 62
     7
370
    25
100
AcDbLine
 10
453.8926924627
 20
-48.9249608819
 30
0.0
 11
452.4795657771
 21
-43.2249608819
 31
0.0
  0
LINE
  5
B5
330
1F
100
AcDbEntity
  8
0
  6
Continuous
 62
     7
370
    25
100
AcDbLine
 10
452.4795657771
 20
-43.2249608819
 30
0.0
 11
453.8926924627
 21
-43.2249608819
 31
0.0
  0
LINE
  5
B6
330
1F
100
AcDbEntity
  8
0
  6
Continuous
 62
     7
370
    25
100
AcDbLine
 10
453.8926924627
 20
-43.2249608819
 30
0.0
 11
454.0961827054
 21
-44.0395955508
 31
0.0
  0
LINE
  5
B7
330
1F
100
AcDbEntity
  8
0
  6
Continuous
 62
     7
370
    25
100
AcDbLine
 10
454.0961827054
 20
-44.0395955508
 30
0.0
 11
455.9516180436
 21
-44.0395955508
 31
0.0
  0
LINE
  5
B8
330
1F
100
AcDbEntity
  8
0
  6
Continuous
 62
     7
370
    25
100
AcDbLine
 10
455.9516180436
 20
-44.0395955508
 30
0.0
 11
455.7495409276
 21
-44.8530088785
 31
0.0
  0
LINE
  5
B9
330
1F
100
AcDbEntity
  8
0
  6
Continuous
 62
     7
370
    25
100
AcDbLine
 10
456.7189458339
 20
-43.2249608819
 30
0.0
 11
455.3058191483
 21
-48.9249608819
 31
0.0
  0
LINE
  5
BA
330
1F
100
AcDbEntity
  8
0
  6
Continuous
 62
     7
370
    25
100
AcDbLine
 10
458.1320725195
 20
-43.2249608819
 30
0.0
 11
456.7189458339
 21
-43.2249608819
 31
0.0
  0
LINE
  5
BB
330
1F
100
AcDbEntity
  8
0
  6
Continuous
 62
     7
370
    25
100
AcDbLine
 10
456.7189458339
 20
-48.9249608819
 30
0.0
 11
458.1320725195
 21
-43.2249608819
 31
0.0
  0
LINE
  5
BC
330
1F
100
AcDbEntity
  8
0
  6
Continuous
 62
     7
370
    25
100
AcDbLine
 10
455.3058191483
 20
-48.9249608819
 30
0.0
 11
456.7189458339
 21
-48.9249608819
 31
0.0
  0
LINE
  5
BD
330
1F
100
AcDbEntity
  8
0
  6
Continuous
 62
     7
370
    25
100
AcDbLine
 10
458.8400489889
 20
-43.2249608819
 30
0.0
 11
460.2531756745
 21
-43.2249608819
 31
0.0
  0
LINE
  5
BE
330
1F
100
AcDbEntity
  8
0
  6
Continuous
 62
     7
370
    25
100
AcDbLine
 10
460.2531756745
 20
-43.2249608819
 30
0.0
 11
460.2531756745
 21
-48.9249608819
 31
0.0
  0
LINE
  5
BF
330
1F
100
AcDbEntity
  8
0
  6
Continuous
 62
     7
370
    25
100
AcDbLine
 10
460.2531756745
 20
-48.9249608819
 30
0.0
 11
458.8400489889
 21
-48.9249608819
 31
0.0
  0
LINE
  5
C0
330
1F
100
AcDbEntity
  8
0
  6
Continuous
 62
     7
370
    25
100
AcDbLine
 10
458.8400489889
 20
-48.9249608819
 30
0.0
 11
458.8400489889
 21
-43.2249608819
 31
0.0
  0
LINE
  5
C1
330
1F
100
AcDbEntity
  8
0
  6
Continuous
 62
     7
370
    25
100
AcDbLine
 10
464.4925557313
 20
-45.6676435474
 30
0.0
 11
464.4925557313
 21
-46.4822782164
 31
0.0
  0
SPLINE
  5
C2
330
1F
100
AcDbEntity
  8
0
  6
Continuous
 62
     7
370
    25
100
AcDbSpline
210
0.0
220
0.0
230
1.0
 70
     8
 71
     3
 72
    38
 73
    34
 74
     0
 42
0.000000001
 43
0.00000001
 40
0.0
 40
0.0
 40
0.0
 40
0.0
 40
0.001103638725017
 40
0.001103638725017
 40
0.001103638725017
 40
0.0014250170281061
 40
0.0014250170281061
 40
0.0014250170281061
 40
0.0016649474942359
 40
0.0016649474942359
 40
0.0016649474942359
 40
0.0019079215797518
 40
0.0019079215797518
 40
0.0019079215797518
 40
0.0021158961885626
 40
0.0021158961885626
 40
0.0021158961885626
 40
0.0024852362102018
 40
0.0024852362102018
 40
0.0024852362102018
 40
0.0027546550807629
 40
0.0027546550807629
 40
0.0027546550807629
 40
0.0029685968497219
 40
0.0029685968497219
 40
0.0029685968497219
 40
0.0031827124963705
 40
0.0031827124963705
 40
0.0031827124963705
 40
0.0034787467621909
 40
0.0034787467621909
 40
0.0034787467621909
 40
0.0047538623519214
 40
0.0047538623519214
 40
0.0047538623519214
 40
0.0047538623519214
 10
464.4925557313019
 20
-46.48227821636365
 30
0.0
 10
464.1246761562963
 20
-46.48227821636365
 30
0.0
 10
463.7554786802752
 20
-46.45755205435901
 30
0.0
 10
463.3889368501169
 20
-46.48889640712856
 30
0.0
 10
463.2826141915489
 20
-46.49798845241057
 30
0.0
 10
463.1757250663481
 20
-46.51724200991898
 30
0.0
 10
463.0754282107999
 20
-46.55367981692675
 30
0.0
 10
463.0006139840965
 20
-46.58085979519381
 30
0.0
 10
462.9282114198155
 20
-46.61860877689919
 30
0.0
 10
462.8657438275629
 20
-46.66794152113665
 30
0.0
 10
462.802784571556
 20
-46.71766254866429
 30
0.0
 10
462.7487190249859
 20
-46.78099420141181
 30
0.0
 10
462.70941164493
 20
-46.85092973149845
 30
0.0
 10
462.6754926267936
 20
-46.91127831006081
 30
0.0
 10
462.6512845810304
 20
-46.97761162845082
 30
0.0
 10
462.6355036156269
 20
-47.04501646401005
 30
0.0
 10
462.607638499417
 20
-47.16403602510497
 30
0.0
 10
462.6027913066904
 20
-47.28936741131566
 30
0.0
 10
462.6139405834149
 20
-47.41109585603234
 30
0.0
 10
462.6220847882397
 20
-47.50001475286057
 30
0.0
 10
462.6410307393307
 20
-47.58943912615447
 30
0.0
 10
462.675549709295
 20
-47.67178801198775
 30
0.0
 10
462.7029698524144
 20
-47.73720184784711
 30
0.0
 10
462.7411748350036
 20
-47.79929925763119
 30
0.0
 10
462.788538530025
 20
-47.85209617576515
 30
0.0
 10
462.8359557629828
 20
-47.90495277332329
 30
0.0
 10
462.8935611327977
 20
-47.9496797162338
 30
0.0
 10
462.9555117494079
 20
-47.98438324614665
 30
0.0
 10
463.0409866809271
 20
-48.03226463950609
 30
0.0
 10
463.1366039767353
 20
-48.06308339217095
 30
0.0
 10
463.232717274026
 20
-48.08207880825385
 30
0.0
 10
463.6447981499626
 20
-48.16352068902244
 30
0.0
 10
464.072504034179
 20
-48.11032621293536
 30
0.0
 10
464.4925557313019
 20
-48.11032621293536
 30
0.0
  0
LINE
  5
C3
330
1F
100
AcDbEntity
  8
0
  6
Continuous
 62
     7
370
    25
100
AcDbLine
 10
464.4925557313
 20
-48.1103262129
 30
0.0
 11
464.4925557313
 21
-48.9249608819
 31
0.0
  0
SPLINE
  5
C4
330
1F
100
AcDbEntity
  8
0
  6
Continuous
 62
     7
370
    25
100
AcDbSpline
210
0.0
220
0.0
230
1.0
 70
     8
 71
     3
 72
    41
 73
    37
 74
     0
 42
0.000000001
 43
0.00000001
 40
0.0109706819658289
 40
0.0109706819658289
 40
0.0109706819658289
 40
0.0109706819658289
 40
0.0119384542092155
 40
0.0119384542092155
 40
0.0119384542092155
 40
0.0131232016158506
 40
0.0131232016158506
 40
0.0131232016158506
 40
0.013747225820686
 40
0.013747225820686
 40
0.013747225820686
 40
0.0141829518765332
 40
0.0141829518765332
 40
0.0141829518765332
 40
0.0146188682740341
 40
0.0146188682740341
 40
0.0146188682740341
 40
0.0151693590183556
 40
0.0151693590183556
 40
0.0151693590183556
 40
0.0154300429431033
 40
0.0154300429431033
 40
0.0154300429431033
 40
0.0158605728730014
 40
0.0158605728730014
 40
0.0158605728730014
 40
0.0162938641815586
 40
0.0162938641815586
 40
0.0162938641815586
 40
0.0168723914115741
 40
0.0168723914115741
 40
0.0168723914115741
 40
0.0174408688090413
 40
0.0174408688090413
 40
0.0174408688090413
 40
0.0178484204095382
 40
0.0178484204095382
 40
0.0178484204095382
 40
0.0178484204095382
 10
464.4925557313019
 20
-48.92496088188755
 30
0.0
 10
464.1699937136668
 20
-48.92496088188755
 30
0.0
 10
463.847429208855
 20
-48.92617595259087
 30
0.0
 10
463.524869679793
 20
-48.92490889610575
 30
0.0
 10
463.1327857170355
 20
-48.92336873845121
 30
0.0
 10
462.7337498733631
 20
-48.89087831782254
 30
0.0
 10
462.357497217457
 20
-48.78057806913394
 30
0.0
 10
462.1587216867407
 20
-48.72230608054584
 30
0.0
 10
461.9631083546113
 20
-48.63964304528968
 30
0.0
 10
461.792052651851
 20
-48.52282145987554
 30
0.0
 10
461.6722978546684
 20
-48.44103555597378
 30
0.0
 10
461.562842475145
 20
-48.340260060704
 30
0.0
 10
461.475130050034
 20
-48.22477553357425
 30
0.0
 10
461.3874513617994
 20
-48.10933542531934
 30
0.0
 10
461.3197682795684
 20
-47.97655223505166
 30
0.0
 10
461.2749927271329
 20
-47.83867866663284
 30
0.0
 10
461.2184946630696
 20
-47.66470896045444
 30
0.0
 10
461.195731173824
 20
-47.47860543058202
 30
0.0
 10
461.195731173824
 20
-47.29569154398315
 30
0.0
 10
461.195731173824
 20
-47.20832956908843
 30
0.0
 10
461.200817762146
 20
-47.1207357904632
 30
0.0
 10
461.21227398959
 20
-47.03412823011044
 30
0.0
 10
461.2310627208136
 20
-46.89208791349174
 30
0.0
 10
461.2678058395652
 20
-46.75053507722391
 30
0.0
 10
461.32603146685
 20
-46.61962195987724
 30
0.0
 10
461.3844485042182
 20
-46.48827848064556
 30
0.0
 10
461.466425481806
 20
-46.36516179111081
 30
0.0
 10
461.565380770974
 20
-46.26089525507334
 30
0.0
 10
461.6967818727275
 20
-46.12244143591371
 30
0.0
 10
461.8613254136725
 20
-46.01293343311396
 30
0.0
 10
462.0342887736
 20
-45.93219072010204
 30
0.0
 10
462.2055508165964
 20
-45.85224221544019
 30
0.0
 10
462.3888644132338
 20
-45.7968043605219
 30
0.0
 10
462.5737688190659
 20
-45.75765322423155
 30
0.0
 10
462.7065701298916
 20
-45.72953425001742
 30
0.0
 10
462.8412380905627
 20
-45.7096280253888
 30
0.0
 10
462.976270797666
 20
-45.69573439806495
 30
0.0
  0
LINE
  5
C5
330
1F
100
AcDbEntity
  8
0
  6
Continuous
 62
     7
370
    25
100
AcDbLine
 10
462.9762707977
 20
-45.6957343981
 30
0.0
 11
461.1957311738
 21
-43.2249608819
 31
0.0
  0
LINE
  5
C6
330
1F
100
AcDbEntity
  8
0
  6
Continuous
 62
     7
370
    25
100
AcDbLine
 10
461.1957311738
 20
-43.2249608819
 30
0.0
 11
462.750170528
 21
-43.2249608819
 31
0.0
  0
LINE
  5
C7
330
1F
100
AcDbEntity
  8
0
  6
Continuous
 62
     7
370
    25
100
AcDbLine
 10
462.750170528
 20
-43.2249608819
 30
0.0
 11
464.4925557313
 21
-45.6676435474
 31
0.0
  0
LINE
  5
C8
330
1F
100
AcDbEntity
  8
0
  6
Continuous
 62
     7
370
    25
100
AcDbLine
 10
464.9645400443
 20
-48.9249608819
 30
0.0
 11
464.9645400443
 21
-43.2249608819
 31
0.0
  0
LINE
  5
C9
330
1F
100
AcDbEntity
  8
0
  6
Continuous
 62
     7
370
    25
100
AcDbLine
 10
464.9645400443
 20
-43.2249608819
 30
0.0
 11
466.3776667299
 21
-43.2249608819
 31
0.0
  0
LINE
  5
CA
330
1F
100
AcDbEntity
  8
0
  6
Continuous
 62
     7
370
    25
100
AcDbLine
 10
466.3776667299
 20
-43.2249608819
 30
0.0
 11
466.3776667299
 21
-48.9249608819
 31
0.0
  0
LINE
  5
CB
330
1F
100
AcDbEntity
  8
0
  6
Continuous
 62
     7
370
    25
100
AcDbLine
 10
466.3776667299
 20
-48.9249608819
 30
0.0
 11
464.9645400443
 21
-48.9249608819
 31
0.0
  0
LINE
  5
CC
330
1F
100
AcDbEntity
  8
0
  6
Continuous
 62
     7
370
    25
100
AcDbLine
 10
469.675904414
 20
-44.0395955508
 30
0.0
 11
469.675904414
 21
-43.2249608819
 31
0.0
  0
SPLINE
  5
CD
330
1F
100
AcDbEntity
  8
0
  6
Continuous
 62
     7
370
    25
100
AcDbSpline
210
0.0
220
0.0
230
1.0
 70
     8
 71
     3
 72
    44
 73
    40
 74
     0
 42
0.000000001
 43
0.00000001
 40
0.0
 40
0.0
 40
0.0
 40
0.0
 40
0.0004344678100974
 40
0.0004344678100974
 40
0.0004344678100974
 40
0.0006720875280763
 40
0.0006720875280763
 40
0.0006720875280763
 40
0.0009131797661147
 40
0.0009131797661147
 40
0.0009131797661147
 40
0.0011216176470436
 40
0.0011216176470436
 40
0.0011216176470436
 40
0.0014542882990502
 40
0.0014542882990502
 40
0.0014542882990502
 40
0.0029916854303762
 40
0.0029916854303762
 40
0.0029916854303762
 40
0.0035398001194217
 40
0.0035398001194217
 40
0.0035398001194217
 40
0.0039925455688617
 40
0.0039925455688617
 40
0.0039925455688617
 40
0.0042344473767627
 40
0.0042344473767627
 40
0.0042344473767627
 40
0.0044802006942434
 40
0.0044802006942434
 40
0.0044802006942434
 40
0.0046907669798507
 40
0.0046907669798507
 40
0.0046907669798507
 40
0.0050117924876047
 40
0.0050117924876047
 40
0.0050117924876047
 40
0.0052569109596186
 40
0.0052569109596186
 40
0.0052569109596186
 40
0.0052569109596186
 10
469.675904414042
 20
-48.11032621293536
 30
0.0
 10
469.5310818106761
 20
-48.11032621293536
 30
0.0
 10
469.3835006589118
 20
-48.09667935447913
 30
0.0
 10
469.245098520601
 20
-48.05403624768994
 30
0.0
 10
469.1690492173772
 20
-48.0306046837113
 30
0.0
 10
469.0947260261635
 20
-47.99751980303685
 30
0.0
 10
469.028876751656
 20
-47.95283862402225
 30
0.0
 10
468.9624508065905
 20
-47.90776615261112
 30
0.0
 10
468.9033868881536
 20
-47.84905219516616
 30
0.0
 10
468.858927358763
 20
-47.78221445056545
 30
0.0
 10
468.820223715934
 20
-47.72402975473151
 30
0.0
 10
468.7913233407932
 20
-47.65864466898688
 30
0.0
 10
468.771718702896
 20
-47.59156942041905
 30
0.0
 10
468.7405494408314
 20
-47.48492700184328
 30
0.0
 10
468.7333489147539
 20
-47.37157701992712
 30
0.0
 10
468.7333489147539
 20
-47.26047288707266
 30
0.0
 10
468.7333489147539
 20
-46.74358229650939
 30
0.0
 10
468.733348914754
 20
-46.22669170594612
 30
0.0
 10
468.7333489147539
 20
-45.70980111538286
 30
0.0
 10
468.7333489147539
 20
-45.52551865540922
 30
0.0
 10
468.7333489147539
 20
-45.34123619543559
 30
0.0
 10
468.7333489147539
 20
-45.15695373546195
 30
0.0
 10
468.7333489147539
 20
-45.00476611407951
 30
0.0
 10
468.7233865850769
 20
-44.85146480906509
 30
0.0
 10
468.7425036992329
 20
-44.70048266426515
 30
0.0
 10
468.7526820375127
 20
-44.62009671629067
 30
0.0
 10
468.7724641073681
 20
-44.53974086019095
 30
0.0
 10
468.805220376395
 20
-44.4656292818693
 30
0.0
 10
468.8382851644501
 20
-44.39081967435213
 30
0.0
 10
468.8862717234063
 20
-44.32075705051213
 30
0.0
 10
468.9453866038349
 20
-44.26423105208745
 30
0.0
 10
468.9963843902983
 20
-44.21546666693796
 30
0.0
 10
469.056520288266
 20
-44.17535751679421
 30
0.0
 10
469.1200317818859
 20
-44.1446161820584
 30
0.0
 10
469.2165326149481
 20
-44.09790708670627
 30
0.0
 10
469.3229742819443
 20
-44.07070319480398
 30
0.0
 10
469.4291308582009
 20
-44.0557054720513
 30
0.0
 10
469.5107532458379
 20
-44.04417392136121
 30
0.0
 10
469.5934714665945
 20
-44.03959555083981
 30
0.0
 10
469.675904414042
 20
-44.03959555083981
 30
0.0
  0
LINE
  5
CE
330
1F
100
AcDbEntity
  8
0
  6
Continuous
 62
     7
370
    25
100
AcDbLine
 10
469.675904414
 20
-48.9249608819
 30
0.0
 11
469.675904414
 21
-48.1103262129
 31
0.0
  0
SPLINE
  5
CF
330
1F
100
AcDbEntity
  8
0
  6
Continuous
 62
     7
370
    25
100
AcDbSpline
210
0.0
220
0.0
230
1.0
 70
     8
 71
     3
 72
    44
 73
    40
 74
     0
 42
0.000000001
 43
0.00000001
 40
0.0269067546289184
 40
0.0269067546289184
 40
0.0269067546289184
 40
0.0269067546289184
 40
0.027031159595224
 40
0.027031159595224
 40
0.027031159595224
 40
0.0281506531150114
 40
0.0281506531150114
 40
0.0281506531150114
 40
0.0286700668407195
 40
0.0286700668407195
 40
0.0286700668407195
 40
0.0291983954139604
 40
0.0291983954139604
 40
0.0291983954139604
 40
0.0296650529743909
 40
0.0296650529743909
 40
0.0296650529743909
 40
0.0301647762209951
 40
0.0301647762209951
 40
0.0301647762209951
 40
0.0323529093353971
 40
0.0323529093353971
 40
0.0323529093353971
 40
0.0330115424216505
 40
0.0330115424216505
 40
0.0330115424216505
 40
0.0334547500503799
 40
0.0334547500503799
 40
0.0334547500503799
 40
0.0338997543546278
 40
0.0338997543546278
 40
0.0338997543546278
 40
0.034463946122123
 40
0.034463946122123
 40
0.034463946122123
 40
0.0354617813851994
 40
0.0354617813851994
 40
0.0354617813851994
 40
0.0358224184329098
 40
0.0358224184329098
 40
0.0358224184329098
 40
0.0358224184329098
 10
469.675904414042
 20
-43.22496088188755
 30
0.0
 10
469.6344346861084
 20
-43.22496088188755
 30
0.0
 10
469.5929629434539
 20
-43.2253382684658
 30
0.0
 10
469.551500674807
 20
-43.22612478834825
 30
0.0
 10
469.1809655033594
 20
-43.23315366759197
 30
0.0
 10
468.8045395355359
 20
-43.27002365801401
 30
0.0
 10
468.4502007853949
 20
-43.3786043587469
 30
0.0
 10
468.284842564087
 20
-43.42927539468194
 30
0.0
 10
468.1226198028186
 20
-43.49714048085087
 30
0.0
 10
467.975555681011
 20
-43.5881516851822
 30
0.0
 10
467.8270430539533
 20
-43.68005930262682
 30
0.0
 10
467.6910625723367
 20
-43.79960977302115
 30
0.0
 10
467.5876111681719
 20
-43.9403251507033
 30
0.0
 10
467.4959222538467
 20
-44.06504110127642
 30
0.0
 10
467.4275257981882
 20
-44.20930058481374
 30
0.0
 10
467.384821027945
 20
-44.35808643069956
 30
0.0
 10
467.3389214475508
 20
-44.51800317667035
 30
0.0
 10
467.3202222291659
 20
-44.68663539162245
 30
0.0
 10
467.3202222291659
 20
-44.85300887845925
 30
0.0
 10
467.320222229166
 20
-45.58768601656115
 30
0.0
 10
467.3202222291659
 20
-46.32236315466304
 30
0.0
 10
467.3202222291659
 20
-47.05704029276495
 30
0.0
 10
467.3202222291659
 20
-47.27765577925314
 30
0.0
 10
467.3156034438401
 20
-47.50247966007403
 30
0.0
 10
467.365758180289
 20
-47.71731842587335
 30
0.0
 10
467.3995205622497
 20
-47.86194023000336
 30
0.0
 10
467.4555599876921
 20
-48.00378908445045
 30
0.0
 10
467.5341460864009
 20
-48.12980332870565
 30
0.0
 10
467.6129682921714
 20
-48.25619617494564
 30
0.0
 10
467.7164840844344
 20
-48.36936372268403
 30
0.0
 10
467.8333565874319
 20
-48.46171581928325
 30
0.0
 10
467.9814257994835
 20
-48.57871940715928
 30
0.0
 10
468.153909291153
 20
-48.66667733940349
 30
0.0
 10
468.3312429253159
 20
-48.73123052157165
 30
0.0
 10
468.644014836809
 20
-48.84508609259748
 30
0.0
 10
468.9805926510768
 20
-48.89441231251965
 30
0.0
 10
469.3128385022289
 20
-48.91446359838665
 30
0.0
 10
469.4336911612079
 20
-48.92175714683751
 30
0.0
 10
469.5548318695437
 20
-48.92496088188755
 30
0.0
 10
469.675904414042
 20
-48.92496088188755
 30
0.0
  0
LINE
  5
D0
330
1F
100
AcDbEntity
  8
0
  6
Continuous
 62
     7
370
    25
100
AcDbLine
 10
470.1464756003
 20
-48.1103262129
 30
0.0
 11
470.1464756003
 21
-48.9249608819
 31
0.0
  0
SPLINE
  5
D1
330
1F
100
AcDbEntity
  8
0
  6
Continuous
 62
     7
370
    25
100
AcDbSpline
210
0.0
220
0.0
230
1.0
 70
     8
 71
     3
 72
    44
 73
    40
 74
     0
 42
0.000000001
 43
0.00000001
 40
0.0
 40
0.0
 40
0.0
 40
0.0
 40
0.0004348886675444
 40
0.0004348886675444
 40
0.0004348886675444
 40
0.0006727783039161
 40
0.0006727783039161
 40
0.0006727783039161
 40
0.0009141284053134
 40
0.0009141284053134
 40
0.0009141284053134
 40
0.0011229070450052
 40
0.0011229070450052
 40
0.0011229070450052
 40
0.0014549825534335
 40
0.0014549825534335
 40
0.0014549825534335
 40
0.0029969883847401
 40
0.0029969883847401
 40
0.0029969883847401
 40
0.0035433113509448
 40
0.0035433113509448
 40
0.0035433113509448
 40
0.004000859877463
 40
0.004000859877463
 40
0.004000859877463
 40
0.0042404590540801
 40
0.0042404590540801
 40
0.0042404590540801
 40
0.0044837139547347
 40
0.0044837139547347
 40
0.0044837139547347
 40
0.0046940086425998
 40
0.0046940086425998
 40
0.0046940086425998
 40
0.0050174468866479
 40
0.0050174468866479
 40
0.0050174468866479
 40
0.0052555929362346
 40
0.0052555929362346
 40
0.0052555929362346
 40
0.0052555929362346
 10
470.146475600343
 20
-44.03959555083981
 30
0.0
 10
470.2914384895244
 20
-44.03959555083981
 30
0.0
 10
470.4391754860298
 20
-44.05334613349148
 30
0.0
 10
470.5776687301769
 20
-44.09616973172255
 30
0.0
 10
470.6537854652865
 20
-44.11970584356011
 30
0.0
 10
470.7281587301434
 20
-44.15292264184292
 30
0.0
 10
470.7940332772679
 20
-44.19773614388536
 30
0.0
 10
470.8604821421213
 20
-44.24294034597563
 30
0.0
 10
470.9195479358237
 20
-44.30178486254358
 30
0.0
 10
470.963992081104
 20
-44.36874447333415
 30
0.0
 10
471.0027025902615
 20
-44.42706578000691
 30
0.0
 10
471.0315836292975
 20
-44.49259478425638
 30
0.0
 10
471.0511307043349
 20
-44.559809293023
 30
0.0
 10
471.0821038296992
 20
-44.66631338135049
 30
0.0
 10
471.089031099631
 20
-44.77947667287653
 30
0.0
 10
471.089031099631
 20
-44.89039310684961
 30
0.0
 10
471.089031099631
 20
-45.40881177917716
 30
0.0
 10
471.089031099631
 20
-45.9272304515047
 30
0.0
 10
471.089031099631
 20
-46.44564912383225
 30
0.0
 10
471.089031099631
 20
-46.62932159837918
 30
0.0
 10
471.089031099631
 20
-46.81299407292612
 30
0.0
 10
471.089031099631
 20
-46.99666654747305
 30
0.0
 10
471.089031099631
 20
-47.15045400730808
 30
0.0
 10
471.0993382315409
 20
-47.30552729827865
 30
0.0
 10
471.078608140372
 20
-47.45791117578095
 30
0.0
 10
471.0677838483025
 20
-47.53747896847985
 30
0.0
 10
471.0473532520336
 20
-47.61691557799412
 30
0.0
 10
471.014146495113
 20
-47.69002857429845
 30
0.0
 10
470.9806388553677
 20
-47.76380403953647
 30
0.0
 10
470.9324714680692
 20
-47.83271057431767
 30
0.0
 10
470.873537449752
 20
-47.88831959046945
 30
0.0
 10
470.8222532955343
 20
-47.93671034069571
 30
0.0
 10
470.7619538211785
 20
-47.97643824357053
 30
0.0
 10
470.6983498293139
 20
-48.00687278644816
 30
0.0
 10
470.6008717578179
 20
-48.0535160938823
 30
0.0
 10
470.4934632778233
 20
-48.08044733652214
 30
0.0
 10
470.3863991729319
 20
-48.09510509879375
 30
0.0
 10
470.3070044762404
 20
-48.10597474171387
 30
0.0
 10
470.2266109046723
 20
-48.11032621293536
 30
0.0
 10
470.146475600343
 20
-48.11032621293536
 30
0.0
  0
LINE
  5
D2
330
1F
100
AcDbEntity
  8
0
  6
Continuous
 62
     7
370
    25
100
AcDbLine
 10
470.1464756003
 20
-43.2249608819
 30
0.0
 11
470.1464756003
 21
-44.0395955508
 31
0.0
  0
SPLINE
  5
D3
330
1F
100
AcDbEntity
  8
0
  6
Continuous
 62
     7
370
    25
100
AcDbSpline
210
0.0
220
0.0
230
1.0
 70
     8
 71
     3
 72
    41
 73
    37
 74
     0
 42
0.000000001
 43
0.00000001
 40
0.0135849742016033
 40
0.0135849742016033
 40
0.0135849742016033
 40
0.0135849742016033
 40
0.0145491432309204
 40
0.0145491432309204
 40
0.0145491432309204
 40
0.015154870265478
 40
0.015154870265478
 40
0.015154870265478
 40
0.0156598797112534
 40
0.0156598797112534
 40
0.0156598797112534
 40
0.0161718028730326
 40
0.0161718028730326
 40
0.0161718028730326
 40
0.0165992394397123
 40
0.0165992394397123
 40
0.0165992394397123
 40
0.0186276234449101
 40
0.0186276234449101
 40
0.0186276234449101
 40
0.0192648421952302
 40
0.0192648421952302
 40
0.0192648421952302
 40
0.0198286144507046
 40
0.0198286144507046
 40
0.0198286144507046
 40
0.0202644261778955
 40
0.0202644261778955
 40
0.0202644261778955
 40
0.0206998521042207
 40
0.0206998521042207
 40
0.0206998521042207
 40
0.021331623063847
 40
0.021331623063847
 40
0.021331623063847
 40
0.0225296153809773
 40
0.0225296153809773
 40
0.0225296153809773
 40
0.0225296153809773
 10
470.146475600343
 20
-48.92496088188755
 30
0.0
 10
470.4672036398346
 20
-48.92496088188755
 30
0.0
 10
470.7906988468481
 20
-48.90370188305309
 30
0.0
 10
471.104796286486
 20
-48.83882296714725
 30
0.0
 10
471.3026911363929
 20
-48.79794646926775
 30
0.0
 10
471.4991198073545
 20
-48.73876155345946
 30
0.0
 10
471.6812746204499
 20
-48.65128079120425
 30
0.0
 10
471.8327124255466
 20
-48.57855202604577
 30
0.0
 10
471.9768689722113
 20
-48.48383048908924
 30
0.0
 10
472.0970710443339
 20
-48.36646633804055
 30
0.0
 10
472.2182923955446
 20
-48.24810697266045
 30
0.0
 10
472.3172704593925
 20
-48.10237272959843
 30
0.0
 10
472.3828670381079
 20
-47.94616567398525
 30
0.0
 10
472.4381403336139
 20
-47.81454175526723
 30
0.0
 10
472.4721911417906
 20
-47.67299480595409
 30
0.0
 10
472.4888558747029
 20
-47.53121229697735
 30
0.0
 10
472.5681567940737
 20
-46.85652501745641
 30
0.0
 10
472.5021577852189
 20
-46.17259230451405
 30
0.0
 10
472.5021577852189
 20
-45.49326060279505
 30
0.0
 10
472.5021577852189
 20
-45.27984336134978
 30
0.0
 10
472.5021577852189
 20
-45.06642611990452
 30
0.0
 10
472.5021577852189
 20
-44.85300887845925
 30
0.0
 10
472.5021577852189
 20
-44.66627677726849
 30
0.0
 10
472.4783403649643
 20
-44.47609175915917
 30
0.0
 10
472.4191089468159
 20
-44.29900275125851
 30
0.0
 10
472.3732489933823
 20
-44.16189150338021
 30
0.0
 10
472.304446106227
 20
-44.03011786772182
 30
0.0
 10
472.2159360996039
 20
-43.91579985360655
 30
0.0
 10
472.1274158229493
 20
-43.8014685748937
 30
0.0
 10
472.0174746631907
 20
-43.70195303926393
 30
0.0
 10
471.897516932831
 20
-43.62122123885005
 30
0.0
 10
471.7239582523698
 20
-43.50441588825643
 30
0.0
 10
471.5258303932819
 20
-43.42232591514438
 30
0.0
 10
471.3247132032179
 20
-43.3647239937226
 30
0.0
 10
470.9445010382522
 20
-43.25582752772191
 30
0.0
 10
470.5419749438258
 20
-43.22496088188755
 30
0.0
 10
470.146475600343
 20
-43.22496088188755
 30
0.0
  0
LINE
  5
D4
330
1F
100
AcDbEntity
  8
0
  6
Continuous
 62
     7
370
    25
100
AcDbLine
 10
476.269553529
 20
-44.0395955508
 30
0.0
 11
473.4433001578
 21
-44.0395955508
 31
0.0
  0
LINE
  5
D5
330
1F
100
AcDbEntity
  8
0
  6
Continuous
 62
     7
370
    25
100
AcDbLine
 10
473.4433001578
 20
-44.0395955508
 30
0.0
 11
473.4433001578
 21
-43.2249608819
 31
0.0
  0
LINE
  5
D6
330
1F
100
AcDbEntity
  8
0
  6
Continuous
 62
     7
370
    25
100
AcDbLine
 10
473.4433001578
 20
-43.2249608819
 30
0.0
 11
476.269553529
 21
-43.2249608819
 31
0.0
  0
LINE
  5
D7
330
1F
100
AcDbEntity
  8
0
  6
Continuous
 62
     7
370
    25
100
AcDbLine
 10
476.269553529
 20
-43.2249608819
 30
0.0
 11
476.269553529
 21
-44.0395955508
 31
0.0
  0
LINE
  5
D8
330
1F
100
AcDbEntity
  8
0
  6
Continuous
 62
     7
370
    25
100
AcDbLine
 10
476.741537842
 20
-43.2249608819
 30
0.0
 11
476.741537842
 21
-48.9249608819
 31
0.0
  0
LINE
  5
D9
330
1F
100
AcDbEntity
  8
0
  6
Continuous
 62
     7
370
    25
100
AcDbLine
 10
478.1546645276
 20
-43.2249608819
 30
0.0
 11
476.741537842
 21
-43.2249608819
 31
0.0
  0
LINE
  5
DA
330
1F
100
AcDbEntity
  8
0
  6
Continuous
 62
     7
370
    25
100
AcDbLine
 10
478.1546645276
 20
-48.9249608819
 30
0.0
 11
478.1546645276
 21
-43.2249608819
 31
0.0
  0
LINE
  5
DB
330
1F
100
AcDbEntity
  8
0
  6
Continuous
 62
     7
370
    25
100
AcDbLine
 10
476.741537842
 20
-48.9249608819
 30
0.0
 11
478.1546645276
 21
-48.9249608819
 31
0.0
  0
LINE
  5
DC
330
1F
100
AcDbEntity
  8
0
  6
Continuous
 62
     7
370
    25
100
AcDbLine
 10
489.9698167458
 20
-44.0395955508
 30
0.0
 11
489.9698167458
 21
-43.2249608819
 31
0.0
  0
SPLINE
  5
DD
330
1F
100
AcDbEntity
  8
0
  6
Continuous
 62
     7
370
    25
100
AcDbSpline
210
0.0
220
0.0
230
1.0
 70
     8
 71
     3
 72
    44
 73
    40
 74
     0
 42
0.000000001
 43
0.00000001
 40
0.0
 40
0.0
 40
0.0
 40
0.0
 40
0.0004344678100974
 40
0.0004344678100974
 40
0.0004344678100974
 40
0.0006720875280764
 40
0.0006720875280764
 40
0.0006720875280764
 40
0.000913179766115
 40
0.000913179766115
 40
0.000913179766115
 40
0.0011216176470439
 40
0.0011216176470439
 40
0.0011216176470439
 40
0.0014542882990509
 40
0.0014542882990509
 40
0.0014542882990509
 40
0.0029916854303812
 40
0.0029916854303812
 40
0.0029916854303812
 40
0.0035398001194251
 40
0.0035398001194251
 40
0.0035398001194251
 40
0.003992545568867
 40
0.003992545568867
 40
0.003992545568867
 40
0.0042344473767663
 40
0.0042344473767663
 40
0.0042344473767663
 40
0.0044802006942446
 40
0.0044802006942446
 40
0.0044802006942446
 40
0.0046907669798521
 40
0.0046907669798521
 40
0.0046907669798521
 40
0.0050117924876069
 40
0.0050117924876069
 40
0.0050117924876069
 40
0.0052569109596176
 40
0.0052569109596176
 40
0.0052569109596176
 40
0.0052569109596176
 10
489.9698167457819
 20
-48.11032621293536
 30
0.0
 10
489.8249941424161
 20
-48.11032621293536
 30
0.0
 10
489.6774129906518
 20
-48.09667935447912
 30
0.0
 10
489.5390108523409
 20
-48.05403624768994
 30
0.0
 10
489.4629615491172
 20
-48.0306046837113
 30
0.0
 10
489.3886383579034
 20
-47.99751980303677
 30
0.0
 10
489.3227890833959
 20
-47.95283862402215
 30
0.0
 10
489.2563631383304
 20
-47.90776615261095
 30
0.0
 10
489.1972992198936
 20
-47.84905219516586
 30
0.0
 10
489.152839690503
 20
-47.78221445056506
 30
0.0
 10
489.1141360476741
 20
-47.72402975473109
 30
0.0
 10
489.0852356725331
 20
-47.65864466898656
 30
0.0
 10
489.0656310346359
 20
-47.59156942041875
 30
0.0
 10
489.0344617725714
 20
-47.48492700184281
 30
0.0
 10
489.0272612464939
 20
-47.37157701992648
 30
0.0
 10
489.0272612464939
 20
-47.26047288707185
 30
0.0
 10
489.0272612464939
 20
-46.74358229650711
 30
0.0
 10
489.0272612464939
 20
-46.22669170594239
 30
0.0
 10
489.0272612464939
 20
-45.70980111537765
 30
0.0
 10
489.0272612464939
 20
-45.52551865540459
 30
0.0
 10
489.0272612464939
 20
-45.34123619543152
 30
0.0
 10
489.0272612464939
 20
-45.15695373545845
 30
0.0
 10
489.0272612464939
 20
-45.00476611407537
 30
0.0
 10
489.017298916817
 20
-44.85146480906023
 30
0.0
 10
489.0364160309739
 20
-44.70048266425975
 30
0.0
 10
489.046594369254
 20
-44.62009671628586
 30
0.0
 10
489.0663764391098
 20
-44.53974086018679
 30
0.0
 10
489.0991327081369
 20
-44.4656292818658
 30
0.0
 10
489.1321974961921
 20
-44.39081967434947
 30
0.0
 10
489.1801840551476
 20
-44.32075705050993
 30
0.0
 10
489.239298935576
 20
-44.26423105208595
 30
0.0
 10
489.2902967220396
 20
-44.21546666693654
 30
0.0
 10
489.3504326200078
 20
-44.17535751679338
 30
0.0
 10
489.4139441136279
 20
-44.14461618205765
 30
0.0
 10
489.5104449466904
 20
-44.09790708670559
 30
0.0
 10
489.616886613687
 20
-44.07070319480341
 30
0.0
 10
489.723043189944
 20
-44.0557054720509
 30
0.0
 10
489.8046655775799
 20
-44.04417392136111
 30
0.0
 10
489.8873837983355
 20
-44.03959555083981
 30
0.0
 10
489.9698167457819
 20
-44.03959555083981
 30
0.0
  0
LINE
  5
DE
330
1F
100
AcDbEntity
  8
0
  6
Continuous
 62
     7
370
    25
100
AcDbLine
 10
489.9698167458
 20
-48.9249608819
 30
0.0
 11
489.9698167458
 21
-48.1103262129
 31
0.0
  0
SPLINE
  5
DF
330
1F
100
AcDbEntity
  8
0
  6
Continuous
 62
     7
370
    25
100
AcDbSpline
210
0.0
220
0.0
230
1.0
 70
     8
 71
     3
 72
    44
 73
    40
 74
     0
 42
0.000000001
 43
0.00000001
 40
0.0269067546288829
 40
0.0269067546288829
 40
0.0269067546288829
 40
0.0269067546288829
 40
0.0270311595952145
 40
0.0270311595952145
 40
0.0270311595952145
 40
0.0281506531149895
 40
0.0281506531149895
 40
0.0281506531149895
 40
0.0286700668406948
 40
0.0286700668406948
 40
0.0286700668406948
 40
0.0291983954139337
 40
0.0291983954139337
 40
0.0291983954139337
 40
0.0296650529743619
 40
0.0296650529743619
 40
0.0296650529743619
 40
0.0301647762209593
 40
0.0301647762209593
 40
0.0301647762209593
 40
0.0323529093353607
 40
0.0323529093353607
 40
0.0323529093353607
 40
0.0330115424216141
 40
0.0330115424216141
 40
0.0330115424216141
 40
0.0334547500503435
 40
0.0334547500503435
 40
0.0334547500503435
 40
0.0338997543545913
 40
0.0338997543545913
 40
0.0338997543545913
 40
0.0344639461220861
 40
0.0344639461220861
 40
0.0344639461220861
 40
0.0354617813851623
 40
0.0354617813851623
 40
0.0354617813851623
 40
0.0358224184328726
 40
0.0358224184328726
 40
0.0358224184328726
 40
0.0358224184328726
 10
489.9698167457819
 20
-43.22496088188755
 30
0.0
 10
489.9283470178398
 20
-43.22496088188755
 30
0.0
 10
489.8868752751765
 20
-43.22533826846592
 30
0.0
 10
489.845413006521
 20
-43.22612478834871
 30
0.0
 10
489.4748778350776
 20
-43.23315366759387
 30
0.0
 10
489.0984518672583
 20
-43.27002365801731
 30
0.0
 10
488.7441131171219
 20
-43.3786043587508
 30
0.0
 10
488.5787548958151
 20
-43.4292753946864
 30
0.0
 10
488.416532134548
 20
-43.49714048085622
 30
0.0
 10
488.2694680127419
 20
-43.58815168518805
 30
0.0
 10
488.1209553856855
 20
-43.68005930263333
 30
0.0
 10
487.9849749040703
 20
-43.79960977302826
 30
0.0
 10
487.8815234999069
 20
-43.9403251507106
 30
0.0
 10
487.789834585583
 20
-44.0650411012838
 30
0.0
 10
487.7214381299253
 20
-44.20930058482059
 30
0.0
 10
487.678733359683
 20
-44.3580864307059
 30
0.0
 10
487.6328337792902
 20
-44.5180031766748
 30
0.0
 10
487.6141345609059
 20
-44.68663539162463
 30
0.0
 10
487.6141345609059
 20
-44.85300887845925
 30
0.0
 10
487.6141345609059
 20
-45.58768601656111
 30
0.0
 10
487.6141345609059
 20
-46.32236315466298
 30
0.0
 10
487.6141345609059
 20
-47.05704029276485
 30
0.0
 10
487.6141345609059
 20
-47.27765577925307
 30
0.0
 10
487.6095157755801
 20
-47.502479660074
 30
0.0
 10
487.6596705120289
 20
-47.71731842587335
 30
0.0
 10
487.6934328939897
 20
-47.86194023000341
 30
0.0
 10
487.7494723194321
 20
-48.00378908445053
 30
0.0
 10
487.828058418141
 20
-48.12980332870575
 30
0.0
 10
487.9068806239116
 20
-48.25619617494574
 30
0.0
 10
488.0103964161744
 20
-48.36936372268415
 30
0.0
 10
488.127268919172
 20
-48.46171581928335
 30
0.0
 10
488.2753381312236
 20
-48.57871940715935
 30
0.0
 10
488.447821622893
 20
-48.66667733940352
 30
0.0
 10
488.6251552570559
 20
-48.73123052157165
 30
0.0
 10
488.937927168549
 20
-48.84508609259745
 30
0.0
 10
489.2745049828168
 20
-48.89441231251965
 30
0.0
 10
489.6067508339689
 20
-48.91446359838665
 30
0.0
 10
489.7276034929479
 20
-48.92175714683751
 30
0.0
 10
489.8487442012837
 20
-48.92496088188755
 30
0.0
 10
489.9698167457819
 20
-48.92496088188755
 30
0.0
  0
LINE
  5
E0
330
1F
100
AcDbEntity
  8
0
  6
Continuous
 62
     7
370
    25
100
AcDbLine
 10
481.923473398
 20
-48.9249608819
 30
0.0
 11
481.923473398
 21
-48.1103262129
 31
0.0
  0
SPLINE
  5
E1
330
1F
100
AcDbEntity
  8
0
  6
Continuous
 62
     7
370
    25
100
AcDbSpline
210
0.0
220
0.0
230
1.0
 70
     8
 71
     3
 72
    44
 73
    40
 74
     0
 42
0.000000001
 43
0.00000001
 40
0.0
 40
0.0
 40
0.0
 40
0.0
 40
0.0004347170832988
 40
0.0004347170832988
 40
0.0004347170832988
 40
0.0006725769792934
 40
0.0006725769792934
 40
0.0006725769792934
 40
0.0009138901888559
 40
0.0009138901888559
 40
0.0009138901888559
 40
0.0011227000747436
 40
0.0011227000747436
 40
0.0011227000747436
 40
0.0014554959069048
 40
0.0014554959069048
 40
0.0014554959069048
 40
0.0029988748696536
 40
0.0029988748696536
 40
0.0029988748696536
 40
0.0035445059351374
 40
0.0035445059351374
 40
0.0035445059351374
 40
0.0040019285790275
 40
0.0040019285790275
 40
0.0040019285790275
 40
0.0042409539803991
 40
0.0042409539803991
 40
0.0042409539803991
 40
0.0044835964698838
 40
0.0044835964698838
 40
0.0044835964698838
 40
0.0046936660370378
 40
0.0046936660370378
 40
0.0046936660370378
 40
0.0050172378837454
 40
0.0050172378837454
 40
0.0050172378837454
 40
0.0052554863747068
 40
0.0052554863747068
 40
0.0052554863747068
 40
0.0052554863747068
 10
481.9234733980399
 20
-48.11032621293536
 30
0.0
 10
482.0683790924729
 20
-48.11032621293536
 30
0.0
 10
482.2160583878499
 20
-48.09658732602259
 30
0.0
 10
482.3544973971889
 20
-48.05378194117075
 30
0.0
 10
482.4306043419063
 20
-48.03024965013459
 30
0.0
 10
482.5049672771862
 20
-47.99703286306399
 30
0.0
 10
482.5708286875799
 20
-47.95221868699685
 30
0.0
 10
482.6372633920088
 20
-47.90701442362854
 30
0.0
 10
482.6963109841943
 20
-47.84817175053497
 30
0.0
 10
482.7407508334759
 20
-47.78122329890945
 30
0.0
 10
482.7794694368793
 20
-47.7228938808566
 30
0.0
 10
482.8083635078183
 20
-47.65736178600775
 30
0.0
 10
482.8279378570569
 20
-47.59014351385076
 30
0.0
 10
482.8590158605105
 20
-47.48342171846591
 30
0.0
 10
482.8660288973269
 20
-47.37001664414628
 30
0.0
 10
482.8660288973269
 20
-47.25886186958025
 30
0.0
 10
482.8660288973269
 20
-46.73997244001852
 30
0.0
 10
482.8660288973269
 20
-46.22108301045679
 30
0.0
 10
482.8660288973269
 20
-45.70219358089506
 30
0.0
 10
482.8660288973269
 20
-45.51875049973772
 30
0.0
 10
482.8660288973269
 20
-45.33530741858038
 30
0.0
 10
482.8660288973269
 20
-45.15186433742305
 30
0.0
 10
482.8660288973269
 20
-44.99811691461364
 30
0.0
 10
482.8763765556753
 20
-44.84307167874388
 30
0.0
 10
482.85555215791
 20
-44.6907410696128
 30
0.0
 10
482.8447013100555
 20
-44.61136704488051
 30
0.0
 10
482.8242438735217
 20
-44.53213267359367
 30
0.0
 10
482.7910453535459
 20
-44.45922290077285
 30
0.0
 10
482.7575482497402
 20
-44.38565738549053
 30
0.0
 10
482.7094405979115
 20
-44.3169676491264
 30
0.0
 10
482.6506275646819
 20
-44.2615152540071
 30
0.0
 10
482.5993764801316
 20
-44.21319270992597
 30
0.0
 10
482.5391341978109
 20
-44.17351809637029
 30
0.0
 10
482.4755951373059
 20
-44.14311201598814
 30
0.0
 10
482.3780749572279
 20
-44.09644455803757
 30
0.0
 10
482.2706195087186
 20
-44.06949694954694
 30
0.0
 10
482.1635079748879
 20
-44.05482873648345
 30
0.0
 10
482.0840768343125
 20
-44.04395116940763
 30
0.0
 10
482.0036458843342
 20
-44.03959555083981
 30
0.0
 10
481.9234733980399
 20
-44.03959555083981
 30
0.0
  0
LINE
  5
E2
330
1F
100
AcDbEntity
  8
0
  6
Continuous
 62
     7
370
    25
100
AcDbLine
 10
481.923473398
 20
-44.0395955508
 30
0.0
 11
481.923473398
 21
-43.2249608819
 31
0.0
  0
SPLINE
  5
E3
330
1F
100
AcDbEntity
  8
0
  6
Continuous
 62
     7
370
    25
100
AcDbSpline
210
0.0
220
0.0
230
1.0
 70
     8
 71
     3
 72
    41
 73
    37
 74
     0
 42
0.000000001
 43
0.00000001
 40
0.0284068696534472
 40
0.0284068696534472
 40
0.0284068696534472
 40
0.0284068696534472
 40
0.0291400421613392
 40
0.0291400421613392
 40
0.0291400421613392
 40
0.0299564147422823
 40
0.0299564147422823
 40
0.0299564147422823
 40
0.0304350437581413
 40
0.0304350437581413
 40
0.0304350437581413
 40
0.030919801101991
 40
0.030919801101991
 40
0.030919801101991
 40
0.0313492413936043
 40
0.0313492413936043
 40
0.0313492413936043
 40
0.0316625223341597
 40
0.0316625223341597
 40
0.0316625223341597
 40
0.0342753001197603
 40
0.0342753001197603
 40
0.0342753001197603
 40
0.0347664240185943
 40
0.0347664240185943
 40
0.0347664240185943
 40
0.0352637971619651
 40
0.0352637971619651
 40
0.0352637971619651
 40
0.0356901861785304
 40
0.0356901861785304
 40
0.0356901861785304
 40
0.0364417616516461
 40
0.0364417616516461
 40
0.0364417616516461
 40
0.0373342027361911
 40
0.0373342027361911
 40
0.0373342027361911
 40
0.0373342027361911
 10
481.9234733980399
 20
-43.22496088188755
 30
0.0
 10
482.1674571776661
 20
-43.22496088188755
 30
0.0
 10
482.4123364599649
 20
-43.23762070213868
 30
0.0
 10
482.65393300951
 20
-43.2716676104948
 30
0.0
 10
482.921591161291
 20
-43.30938724093496
 30
0.0
 10
483.1903766633093
 20
-43.37377288164856
 30
0.0
 10
483.4355919353459
 20
-43.4874967889652
 30
0.0
 10
483.5798925779495
 20
-43.55441934549636
 30
0.0
 10
483.7179502772854
 20
-43.64045525669238
 30
0.0
 10
483.836042655751
 20
-43.74701741778534
 30
0.0
 10
483.9550533181633
 20
-43.85440820408796
 30
0.0
 10
484.0558051476924
 20
-43.9863573755548
 30
0.0
 10
484.1267531173179
 20
-44.13010265149985
 30
0.0
 10
484.1899977829144
 20
-44.25824052431281
 30
0.0
 10
484.2318191724222
 20
-44.39817276170254
 30
0.0
 10
484.2548750887939
 20
-44.53919625937475
 30
0.0
 10
484.2718031894395
 20
-44.64273844453417
 30
0.0
 10
484.279155582916
 20
-44.74809203186608
 30
0.0
 10
484.279155582916
 20
-44.85300887845925
 30
0.0
 10
484.279155582916
 20
-45.73063092687323
 30
0.0
 10
484.3516081465215
 20
-46.61198433504548
 30
0.0
 10
484.2706159934399
 20
-47.48586117476695
 30
0.0
 10
484.2555025022841
 20
-47.64893042760153
 30
0.0
 10
484.2181937591419
 20
-47.81269603388805
 30
0.0
 10
484.1527398319819
 20
-47.96281526068555
 30
0.0
 10
484.0867701193588
 20
-48.11411744652428
 30
0.0
 10
483.9891671895977
 20
-48.25490101445185
 30
0.0
 10
483.870654393409
 20
-48.36978822680675
 30
0.0
 10
483.7682396087317
 20
-48.46906990350235
 30
0.0
 10
483.6487433819234
 20
-48.55210698811016
 30
0.0
 10
483.522665382074
 20
-48.61881513905105
 30
0.0
 10
483.3016187885054
 20
-48.73577138475888
 30
0.0
 10
483.0558059727059
 20
-48.80754548960286
 30
0.0
 10
482.8098666989399
 20
-48.85286914300625
 30
0.0
 10
482.5183358155337
 20
-48.90659478232186
 30
0.0
 10
482.2199134430735
 20
-48.92496088188755
 30
0.0
 10
481.9234733980399
 20
-48.92496088188755
 30
0.0
  0
LINE
  5
E4
330
1F
100
AcDbEntity
  8
0
  6
Continuous
 62
     7
370
    25
100
AcDbLine
 10
481.4529022117
 20
-48.9249608819
 30
0.0
 11
481.4529022117
 21
-48.1103262129
 31
0.0
  0
SPLINE
  5
E5
330
1F
100
AcDbEntity
  8
0
  6
Continuous
 62
     7
370
    25
100
AcDbSpline
210
0.0
220
0.0
230
1.0
 70
     8
 71
     3
 72
    20
 73
    16
 74
     0
 42
0.000000001
 43
0.00000001
 40
0.0
 40
0.0
 40
0.0
 40
0.0
 40
0.0005316737107986
 40
0.0005316737107986
 40
0.0005316737107986
 40
0.0009682601945611
 40
0.0009682601945611
 40
0.0009682601945611
 40
0.0014049126959435
 40
0.0014049126959435
 40
0.0014049126959435
 40
0.002019473684836
 40
0.002019473684836
 40
0.002019473684836
 40
0.0032514727929697
 40
0.0032514727929697
 40
0.0032514727929697
 40
0.0032514727929697
 10
479.0972200268619
 20
-47.29569154398315
 30
0.0
 10
479.0972200268619
 20
-47.47291611424937
 30
0.0
 10
479.1185329477105
 20
-47.65298127654313
 30
0.0
 10
479.171236078187
 20
-47.82218803865395
 30
0.0
 10
479.2145037661483
 20
-47.96110171072208
 30
0.0
 10
479.2806539000881
 20
-48.09525722965293
 30
0.0
 10
479.3672008512669
 20
-48.21221331692765
 30
0.0
 10
479.453811591672
 20
-48.32925560641052
 30
0.0
 10
479.5626140707714
 20
-48.43173064049336
 30
0.0
 10
479.682103015599
 20
-48.51493346463355
 30
0.0
 10
479.8498799525236
 20
-48.63176029742436
 30
0.0
 10
480.0421945031244
 20
-48.71515613638361
 30
0.0
 10
480.237897175544
 20
-48.77430064949815
 30
0.0
 10
480.6285502870289
 20
-48.8923623386401
 30
0.0
 10
481.0447987739246
 20
-48.92496088188755
 30
0.0
 10
481.452902211739
 20
-48.92496088188755
 30
0.0
  0
LINE
  5
E6
330
1F
100
AcDbEntity
  8
0
  6
Continuous
 62
     7
370
    25
100
AcDbLine
 10
480.5103467125
 20
-47.295691544
 30
0.0
 11
479.0972200269
 21
-47.295691544
 31
0.0
  0
SPLINE
  5
E7
330
1F
100
AcDbEntity
  8
0
  6
Continuous
 62
     7
370
    25
100
AcDbSpline
210
0.0
220
0.0
230
1.0
 70
     8
 71
     3
 72
    23
 73
    19
 74
     0
 42
0.000000001
 43
0.00000001
 40
0.0041005873822351
 40
0.0041005873822351
 40
0.0041005873822351
 40
0.0041005873822351
 40
0.0042905275159906
 40
0.0042905275159906
 40
0.0042905275159906
 40
0.0046025483457921
 40
0.0046025483457921
 40
0.0046025483457921
 40
0.0048524498427386
 40
0.0048524498427386
 40
0.0048524498427386
 40
0.0050709870898656
 40
0.0050709870898656
 40
0.0050709870898656
 40
0.0052878228445828
 40
0.0052878228445828
 40
0.0052878228445828
 40
0.0055292370411223
 40
0.0055292370411223
 40
0.0055292370411223
 40
0.0055292370411223
 10
481.452902211739
 20
-48.11032621293536
 30
0.0
 10
481.3895691483522
 20
-48.11032621293536
 30
0.0
 10
481.3261276756656
 20
-48.10760364258984
 30
0.0
 10
481.263125144945
 20
-48.10114159641665
 30
0.0
 10
481.160058036838
 20
-48.09057020501528
 30
0.0
 10
481.0566088718401
 20
-48.0698871975573
 30
0.0
 10
480.9599670389749
 20
-48.03253831229735
 30
0.0
 10
480.8827552151415
 20
-48.00269848555183
 30
0.0
 10
480.8084366733228
 20
-47.96094829133641
 30
0.0
 10
480.7458089464369
 20
-47.90682021336395
 30
0.0
 10
480.690995830229
 20
-47.85944617033946
 30
0.0
 10
480.6440953452724
 20
-47.80131103946224
 30
0.0
 10
480.6090164917799
 20
-47.73792135813665
 30
0.0
 10
480.5740806898465
 20
-47.67479017992154
 30
0.0
 10
480.5496897445612
 20
-47.60526590562173
 30
0.0
 10
480.534253770058
 20
-47.53478337863315
 30
0.0
 10
480.517118796735
 20
-47.45654301749255
 30
0.0
 10
480.5103467124509
 20
-47.37578624681794
 30
0.0
 10
480.5103467124509
 20
-47.29569154398315
 30
0.0
  0
LINE
  5
E8
330
1F
100
AcDbEntity
  8
0
  6
Continuous
 62
     7
370
    25
100
AcDbLine
 10
481.923473398
 20
-46.4822782164
 30
0.0
 11
479.0972200269
 21
-46.4822782164
 31
0.0
  0
SPLINE
  5
E9
330
1F
100
AcDbEntity
  8
0
  6
Continuous
 62
     7
370
    25
100
AcDbSpline
210
0.0
220
0.0
230
1.0
 70
     8
 71
     3
 72
    23
 73
    19
 74
     0
 42
0.000000001
 43
0.00000001
 40
0.0
 40
0.0
 40
0.0
 40
0.0
 40
0.001628658667238
 40
0.001628658667238
 40
0.001628658667238
 40
0.0021639185427235
 40
0.0021639185427235
 40
0.0021639185427235
 40
0.0026044809642642
 40
0.0026044809642642
 40
0.0026044809642642
 40
0.0030451424806368
 40
0.0030451424806368
 40
0.0030451424806368
 40
0.0036642643860634
 40
0.0036642643860634
 40
0.0036642643860634
 40
0.0049120421230856
 40
0.0049120421230856
 40
0.0049120421230856
 40
0.0049120421230856
 10
479.0972200268619
 20
-46.48227821636365
 30
0.0
 10
479.0972200268619
 20
-45.93939199395098
 30
0.0
 10
479.097220026862
 20
-45.39650577153832
 30
0.0
 10
479.0972200268619
 20
-44.85361954912565
 30
0.0
 10
479.0972200268619
 20
-44.67691786115282
 30
0.0
 10
479.1182917779035
 20
-44.49739762858955
 30
0.0
 10
479.170612726275
 20
-44.3286196534448
 30
0.0
 10
479.2136639290352
 20
-44.18974421147373
 30
0.0
 10
479.2795651785942
 20
-44.05558287904234
 30
0.0
 10
479.3658889952929
 20
-43.9385871820603
 30
0.0
 10
479.4522803169414
 20
-43.82149999481604
 30
0.0
 10
479.5608928219421
 20
-43.71895035992153
 30
0.0
 10
479.6802229235669
 20
-43.6356845402886
 30
0.0
 10
479.8474902879659
 20
-43.51896919349116
 30
0.0
 10
480.0392706967931
 20
-43.43558080174594
 30
0.0
 10
480.2344565426699
 20
-43.37639187592065
 30
0.0
 10
480.626117781253
 20
-43.25762297700284
 30
0.0
 10
481.0436289812944
 20
-43.22496088188755
 30
0.0
 10
481.452902211739
 20
-43.22496088188755
 30
0.0
  0
LINE
  5
EA
330
1F
100
AcDbEntity
  8
0
  6
Continuous
 62
     7
370
    25
100
AcDbLine
 10
481.4529022117
 20
-43.2249608819
 30
0.0
 11
481.4529022117
 21
-44.0395955508
 31
0.0
  0
SPLINE
  5
EB
330
1F
100
AcDbEntity
  8
0
  6
Continuous
 62
     7
370
    25
100
AcDbSpline
210
0.0
220
0.0
230
1.0
 70
     8
 71
     3
 72
    29
 73
    25
 74
     0
 42
0.000000001
 43
0.00000001
 40
0.0056311281996452
 40
0.0056311281996452
 40
0.0056311281996452
 40
0.0056311281996452
 40
0.0057348192793928
 40
0.0057348192793928
 40
0.0057348192793928
 40
0.0060280151297429
 40
0.0060280151297429
 40
0.0060280151297429
 40
0.006326108502761
 40
0.006326108502761
 40
0.006326108502761
 40
0.0065370345669468
 40
0.0065370345669468
 40
0.0065370345669468
 40
0.006697168899333
 40
0.006697168899333
 40
0.006697168899333
 40
0.0070379099169776
 40
0.0070379099169776
 40
0.0070379099169776
 40
0.0076745362808509
 40
0.0076745362808509
 40
0.0076745362808509
 40
0.0078743019829553
 40
0.0078743019829553
 40
0.0078743019829553
 40
0.0078743019829553
 10
481.452902211739
 20
-44.03959555083981
 30
0.0
 10
481.4183305272171
 20
-44.03959555083981
 30
0.0
 10
481.3837453732932
 20
-44.04041270978741
 30
0.0
 10
481.3492198122159
 20
-44.04219792769835
 30
0.0
 10
481.2519467007328
 20
-44.04722764178423
 30
0.0
 10
481.1542677418361
 20
-44.05984419333006
 30
0.0
 10
481.0601539822109
 20
-44.08494312738365
 30
0.0
 10
480.9651645351377
 20
-44.11027559606172
 30
0.0
 10
480.8715434439009
 20
-44.1496546452056
 30
0.0
 10
480.7916265761299
 20
-44.20690866925879
 30
0.0
 10
480.7347887646503
 20
-44.24762840110461
 30
0.0
 10
480.6839274842795
 20
-44.29847958037298
 30
0.0
 10
480.6438560278739
 20
-44.3557762797276
 30
0.0
 10
480.6132213556243
 20
-44.3995796690516
 30
0.0
 10
480.5882240424298
 20
-44.44771702211928
 30
0.0
 10
480.5690135833099
 20
-44.4975986652409
 30
0.0
 10
480.5286175528403
 20
-44.60249050373568
 30
0.0
 10
480.5124473538272
 20
-44.71731010208103
 30
0.0
 10
480.5105428130479
 20
-44.82969564289895
 30
0.0
 10
480.5069404458914
 20
-45.04226866077555
 30
0.0
 10
480.5103467124509
 20
-45.25490269161313
 30
0.0
 10
480.5103467124509
 20
-45.46750623104345
 30
0.0
 10
480.5103467124509
 20
-45.53421866983279
 30
0.0
 10
480.5103467124509
 20
-45.60093110862211
 30
0.0
 10
480.5103467124509
 20
-45.66764354741145
 30
0.0
  0
LINE
  5
EC
330
1F
100
AcDbEntity
  8
0
  6
Continuous
 62
     7
370
    25
100
AcDbLine
 10
480.5103467125
 20
-45.6676435474
 30
0.0
 11
481.923473398
 21
-45.6676435474
 31
0.0
  0
LINE
  5
ED
330
1F
100
AcDbEntity
  8
0
  6
Continuous
 62
     7
370
    25
100
AcDbLine
 10
481.923473398
 20
-45.6676435474
 30
0.0
 11
481.923473398
 21
-46.4822782164
 31
0.0
  0
LINE
  5
EE
330
1F
100
AcDbEntity
  8
0
  6
Continuous
 62
     7
370
    25
100
AcDbLine
 10
494.2077836759
 20
-46.4822782164
 30
0.0
 11
494.2077836759
 21
-45.6676435474
 31
0.0
  0
LINE
  5
EF
330
1F
100
AcDbEntity
  8
0
  6
Continuous
 62
     7
370
    25
100
AcDbLine
 10
494.2077836759
 20
-45.6676435474
 30
0.0
 11
496.5634658607
 21
-45.6676435474
 31
0.0
  0
LINE
  5
F0
330
1F
100
AcDbEntity
  8
0
  6
Continuous
 62
     7
370
    25
100
AcDbLine
 10
496.5634658607
 20
-45.6676435474
 30
0.0
 11
496.5634658607
 21
-46.4822782164
 31
0.0
  0
LINE
  5
F1
330
1F
100
AcDbEntity
  8
0
  6
Continuous
 62
     7
370
    25
100
AcDbLine
 10
496.5634658607
 20
-46.4822782164
 30
0.0
 11
494.2077836759
 21
-46.4822782164
 31
0.0
  0
LINE
  5
F2
330
1F
100
AcDbEntity
  8
0
  6
Continuous
 62
     7
370
    25
100
AcDbLine
 10
493.7372124896
 20
-48.1103262129
 30
0.0
 11
493.7372124896
 21
-48.9249608819
 31
0.0
  0
LINE
  5
F3
330
1F
100
AcDbEntity
  8
0
  6
Continuous
 62
     7
370
    25
100
AcDbLine
 10
496.5634658607
 20
-48.1103262129
 30
0.0
 11
493.7372124896
 21
-48.1103262129
 31
0.0
  0
LINE
  5
F4
330
1F
100
AcDbEntity
  8
0
  6
Continuous
 62
     7
370
    25
100
AcDbLine
 10
496.5634658607
 20
-48.9249608819
 30
0.0
 11
496.5634658607
 21
-48.1103262129
 31
0.0
  0
LINE
  5
F5
330
1F
100
AcDbEntity
  8
0
  6
Continuous
 62
     7
370
    25
100
AcDbLine
 10
493.7372124896
 20
-48.9249608819
 30
0.0
 11
496.5634658607
 21
-48.9249608819
 31
0.0
  0
LINE
  5
F6
330
1F
100
AcDbEntity
  8
0
  6
Continuous
 62
     7
370
    25
100
AcDbLine
 10
496.5634658607
 20
-44.0395955508
 30
0.0
 11
493.7372124896
 21
-44.0395955508
 31
0.0
  0
LINE
  5
F7
330
1F
100
AcDbEntity
  8
0
  6
Continuous
 62
     7
370
    25
100
AcDbLine
 10
493.7372124896
 20
-44.0395955508
 30
0.0
 11
493.7372124896
 21
-43.2249608819
 31
0.0
  0
LINE
  5
F8
330
1F
100
AcDbEntity
  8
0
  6
Continuous
 62
     7
370
    25
100
AcDbLine
 10
493.7372124896
 20
-43.2249608819
 30
0.0
 11
496.5634658607
 21
-43.2249608819
 31
0.0
  0
LINE
  5
F9
330
1F
100
AcDbEntity
  8
0
  6
Continuous
 62
     7
370
    25
100
AcDbLine
 10
496.5634658607
 20
-43.2249608819
 30
0.0
 11
496.5634658607
 21
-44.0395955508
 31
0.0
  0
LINE
  5
FA
330
1F
100
AcDbEntity
  8
0
  6
Continuous
 62
     7
370
    25
100
AcDbLine
 10
490.4403879321
 20
-48.1103262129
 30
0.0
 11
490.4403879321
 21
-48.9249608819
 31
0.0
  0
SPLINE
  5
FB
330
1F
100
AcDbEntity
  8
0
  6
Continuous
 62
     7
370
    25
100
AcDbSpline
210
0.0
220
0.0
230
1.0
 70
     8
 71
     3
 72
    44
 73
    40
 74
     0
 42
0.000000001
 43
0.00000001
 40
0.0
 40
0.0
 40
0.0
 40
0.0
 40
0.0004348886675445
 40
0.0004348886675445
 40
0.0004348886675445
 40
0.0006727783039162
 40
0.0006727783039162
 40
0.0006727783039162
 40
0.0009141284053135
 40
0.0009141284053135
 40
0.0009141284053135
 40
0.0011229070450053
 40
0.0011229070450053
 40
0.0011229070450053
 40
0.0014549825534338
 40
0.0014549825534338
 40
0.0014549825534338
 40
0.0029969883847414
 40
0.0029969883847414
 40
0.0029969883847414
 40
0.003543311350946
 40
0.003543311350946
 40
0.003543311350946
 40
0.0040008598774642
 40
0.0040008598774642
 40
0.0040008598774642
 40
0.004240459054081
 40
0.004240459054081
 40
0.004240459054081
 40
0.0044837139547354
 40
0.0044837139547354
 40
0.0044837139547354
 40
0.0046940086426005
 40
0.0046940086426005
 40
0.0046940086426005
 40
0.0050174468866485
 40
0.0050174468866485
 40
0.0050174468866485
 40
0.0052555929362352
 40
0.0052555929362352
 40
0.0052555929362352
 40
0.0052555929362352
 10
490.440387932083
 20
-44.03959555083981
 30
0.0
 10
490.5853508212644
 20
-44.03959555083981
 30
0.0
 10
490.7330878177698
 20
-44.05334613349145
 30
0.0
 10
490.871581061917
 20
-44.0961697317225
 30
0.0
 10
490.9476977970265
 20
-44.11970584356005
 30
0.0
 10
491.0220710618834
 20
-44.15292264184292
 30
0.0
 10
491.087945609008
 20
-44.19773614388536
 30
0.0
 10
491.1543944738613
 20
-44.24294034597563
 30
0.0
 10
491.2134602675637
 20
-44.30178486254366
 30
0.0
 10
491.257904412844
 20
-44.36874447333425
 30
0.0
 10
491.2966149220015
 20
-44.42706578000699
 30
0.0
 10
491.3254959610375
 20
-44.4925947842564
 30
0.0
 10
491.3450430360749
 20
-44.559809293023
 30
0.0
 10
491.3760161614392
 20
-44.66631338135051
 30
0.0
 10
491.382943431371
 20
-44.77947667287656
 30
0.0
 10
491.382943431371
 20
-44.89039310684966
 30
0.0
 10
491.382943431371
 20
-45.40881177917748
 30
0.0
 10
491.382943431371
 20
-45.92723045150532
 30
0.0
 10
491.382943431371
 20
-46.44564912383315
 30
0.0
 10
491.382943431371
 20
-46.62932159838002
 30
0.0
 10
491.382943431371
 20
-46.81299407292688
 30
0.0
 10
491.382943431371
 20
-46.99666654747375
 30
0.0
 10
491.382943431371
 20
-47.15045400730879
 30
0.0
 10
491.393250563281
 20
-47.30552729827936
 30
0.0
 10
491.3725204721119
 20
-47.45791117578165
 30
0.0
 10
491.3616961800424
 20
-47.53747896848046
 30
0.0
 10
491.3412655837736
 20
-47.61691557799463
 30
0.0
 10
491.3080588268529
 20
-47.69002857429886
 30
0.0
 10
491.2745511871076
 20
-47.76380403953677
 30
0.0
 10
491.2263837998091
 20
-47.83271057431783
 30
0.0
 10
491.1674497814919
 20
-47.88831959046955
 30
0.0
 10
491.1161656272743
 20
-47.93671034069578
 30
0.0
 10
491.0558661529185
 20
-47.97643824357065
 30
0.0
 10
490.992262161054
 20
-48.00687278644826
 30
0.0
 10
490.8947840895578
 20
-48.05351609388237
 30
0.0
 10
490.7873756095633
 20
-48.08044733652216
 30
0.0
 10
490.680311504672
 20
-48.09510509879375
 30
0.0
 10
490.6009168079804
 20
-48.10597474171386
 30
0.0
 10
490.5205232364123
 20
-48.11032621293536
 30
0.0
 10
490.440387932083
 20
-48.11032621293536
 30
0.0
  0
LINE
  5
FC
330
1F
100
AcDbEntity
  8
0
  6
Continuous
 62
     7
370
    25
100
AcDbLine
 10
490.4403879321
 20
-43.2249608819
 30
0.0
 11
490.4403879321
 21
-44.0395955508
 31
0.0
  0
SPLINE
  5
FD
330
1F
100
AcDbEntity
  8
0
  6
Continuous
 62
     7
370
    25
100
AcDbSpline
210
0.0
220
0.0
230
1.0
 70
     8
 71
     3
 72
    44
 73
    40
 74
     0
 42
0.000000001
 43
0.00000001
 40
0.0268916609675431
 40
0.0268916609675431
 40
0.0268916609675431
 40
0.0268916609675431
 40
0.0270105651721337
 40
0.0270105651721337
 40
0.0270105651721337
 40
0.028132893146206
 40
0.028132893146206
 40
0.028132893146206
 40
0.0286533293889039
 40
0.0286533293889039
 40
0.0286533293889039
 40
0.0291826833867283
 40
0.0291826833867283
 40
0.0291826833867283
 40
0.0296504841873853
 40
0.0296504841873853
 40
0.0296504841873853
 40
0.0301501530392795
 40
0.0301501530392795
 40
0.0301501530392795
 40
0.0323241697613668
 40
0.0323241697613668
 40
0.0323241697613668
 40
0.0329980991593819
 40
0.0329980991593819
 40
0.0329980991593819
 40
0.0334402576097371
 40
0.0334402576097371
 40
0.0334402576097371
 40
0.0338841666514692
 40
0.0338841666514692
 40
0.0338841666514692
 40
0.0344484257995233
 40
0.0344484257995233
 40
0.0344484257995233
 40
0.0354472677849752
 40
0.0354472677849752
 40
0.0354472677849752
 40
0.0358055077058861
 40
0.0358055077058861
 40
0.0358055077058861
 40
0.0358055077058861
 10
490.440387932083
 20
-48.92496088188755
 30
0.0
 10
490.4800239179122
 20
-48.92496088188755
 30
0.0
 10
490.5196616639365
 20
-48.92461470926964
 30
0.0
 10
490.5592911095399
 20
-48.92389469967575
 30
0.0
 10
490.930755309108
 20
-48.91714573351176
 30
0.0
 10
491.3081615095829
 20
-48.88038938006769
 30
0.0
 10
491.6634233397269
 20
-48.77166848903145
 30
0.0
 10
491.8291249325277
 20
-48.7209587778077
 30
0.0
 10
491.9916880479345
 20
-48.65301658716608
 30
0.0
 10
492.139080166585
 20
-48.56188999374336
 30
0.0
 10
492.2879215443696
 20
-48.46986738193723
 30
0.0
 10
492.4242295268562
 20
-48.35016360877727
 30
0.0
 10
492.527966175557
 20
-48.20923588070085
 30
0.0
 10
492.6199502802386
 20
-48.08427415257209
 30
0.0
 10
492.6885872040302
 20
-47.93968987113078
 30
0.0
 10
492.7314176893669
 20
-47.79055215444975
 30
0.0
 10
492.7773367550556
 20
-47.63065985915848
 30
0.0
 10
492.7960701169599
 20
-47.46204690664762
 30
0.0
 10
492.7960701169599
 20
-47.29569154398315
 30
0.0
 10
492.79607011696
 20
-46.56574243656612
 30
0.0
 10
492.7960701169589
 20
-45.83579332914909
 30
0.0
 10
492.7960701169589
 20
-45.10584422173206
 30
0.0
 10
492.7960701169589
 20
-44.88008589918853
 30
0.0
 10
492.8017546060796
 20
-44.64990974186584
 30
0.0
 10
492.7501545110449
 20
-44.43012746234795
 30
0.0
 10
492.7162756065571
 20
-44.28582573478522
 30
0.0
 10
492.6601471720421
 20
-44.1443280433737
 30
0.0
 10
492.581557653886
 20
-44.01865204573345
 30
0.0
 10
492.5027364083596
 20
-43.89260548253798
 30
0.0
 10
492.3993227627238
 20
-43.77977626939413
 30
0.0
 10
492.2826247368949
 20
-43.68767797621045
 30
0.0
 10
492.1344021560921
 20
-43.5707004471883
 30
0.0
 10
491.9617686076475
 20
-43.48280565657288
 30
0.0
 10
491.7843022898389
 20
-43.4183123871607
 30
0.0
 10
491.4710192868266
 20
-43.30446179643999
 30
0.0
 10
491.133934334773
 20
-43.25524755157075
 30
0.0
 10
490.801201705615
 20
-43.2353178130511
 30
0.0
 10
490.6810961663701
 20
-43.22812383271329
 30
0.0
 10
490.5607087279181
 20
-43.22496088188755
 30
0.0
 10
490.440387932083
 20
-43.22496088188755
 30
0.0
  0
LINE
  5
FE
330
1F
100
AcDbEntity
  8
0
  6
Continuous
 62
     7
370
    25
100
AcDbLine
 10
497.0354501737
 20
-48.9249608819
 30
0.0
 11
497.0354501737
 21
-43.2249608819
 31
0.0
  0
LINE
  5
FF
330
1F
100
AcDbEntity
  8
0
  6
Continuous
 62
     7
370
    25
100
AcDbLine
 10
497.0354501737
 20
-43.2249608819
 30
0.0
 11
498.4485768593
 21
-43.2249608819
 31
0.0
  0
LINE
  5
100
330
1F
100
AcDbEntity
  8
0
  6
Continuous
 62
     7
370
    25
100
AcDbLine
 10
498.4485768593
 20
-43.2249608819
 30
0.0
 11
498.4485768593
 21
-48.9249608819
 31
0.0
  0
LINE
  5
101
330
1F
100
AcDbEntity
  8
0
  6
Continuous
 62
     7
370
    25
100
AcDbLine
 10
498.4485768593
 20
-48.9249608819
 30
0.0
 11
497.0354501737
 21
-48.9249608819
 31
0.0
  0
LINE
  5
102
330
1F
100
AcDbEntity
  8
0
  6
Continuous
 62
     7
370
    25
100
AcDbLine
 10
502.6879569161
 20
-43.2249608819
 30
0.0
 11
502.6879569161
 21
-44.0395955508
 31
0.0
  0
SPLINE
  5
103
330
1F
100
AcDbEntity
  8
0
  6
Continuous
 62
     7
370
    25
100
AcDbSpline
210
0.0
220
0.0
230
1.0
 70
     8
 71
     3
 72
    47
 73
    43
 74
     0
 42
0.000000001
 43
0.00000001
 40
0.0
 40
0.0
 40
0.0
 40
0.0
 40
0.0011730310921986
 40
0.0011730310921986
 40
0.0011730310921986
 40
0.0014530818148298
 40
0.0014530818148298
 40
0.0014530818148298
 40
0.0016891382922644
 40
0.0016891382922644
 40
0.0016891382922644
 40
0.0019276875066271
 40
0.0019276875066271
 40
0.0019276875066271
 40
0.0021849586934995
 40
0.0021849586934995
 40
0.0021849586934995
 40
0.0032467285945232
 40
0.0032467285945232
 40
0.0032467285945232
 40
0.0043422594702083
 40
0.0043422594702083
 40
0.0043422594702083
 40
0.0048079558180209
 40
0.0048079558180209
 40
0.0048079558180209
 40
0.0051129363365716
 40
0.0051129363365716
 40
0.0051129363365716
 40
0.0053389402675496
 40
0.0053389402675496
 40
0.0053389402675496
 40
0.0055665697590737
 40
0.0055665697590737
 40
0.0055665697590737
 40
0.0058327552012287
 40
0.0058327552012287
 40
0.0058327552012287
 40
0.0062867053461925
 40
0.0062867053461925
 40
0.0062867053461925
 40
0.00719773143926
 40
0.00719773143926
 40
0.00719773143926
 40
0.00719773143926
 10
502.6879569160809
 20
-44.03959555083981
 30
0.0
 10
502.2969465520147
 20
-44.03959555083981
 30
0.0
 10
501.9027253196651
 20
-44.00301343796306
 30
0.0
 10
501.5150102688099
 20
-44.05367056132681
 30
0.0
 10
501.4224130874567
 20
-44.065768897021
 30
0.0
 10
501.3298717050475
 20
-44.08677100986706
 30
0.0
 10
501.2432053931588
 20
-44.1215497117507
 30
0.0
 10
501.1703505933244
 20
-44.15078593178841
 30
0.0
 10
501.1003698563225
 20
-44.19083357891923
 30
0.0
 10
501.0408290369709
 20
-44.24199478738775
 30
0.0
 10
500.980886526675
 20
-44.29350115392379
 30
0.0
 10
500.9303651924836
 20
-44.35800024885399
 30
0.0
 10
500.8940528130689
 20
-44.42819584298615
 30
0.0
 10
500.8547698552475
 20
-44.50413387315636
 30
0.0
 10
500.8303140208902
 20
-44.5884297398251
 30
0.0
 10
500.8172795940259
 20
-44.67292730735014
 30
0.0
 10
500.7634055743415
 20
-45.02217347394556
 30
0.0
 10
500.8042590441909
 20
-45.37960131882939
 30
0.0
 10
500.8042590441909
 20
-45.73297830574074
 30
0.0
 10
500.8042590441909
 20
-46.09761908351445
 30
0.0
 10
500.8042590441909
 20
-46.46225986128815
 30
0.0
 10
500.8042590441909
 20
-46.82690063906185
 30
0.0
 10
500.8042590441909
 20
-46.98190483131388
 30
0.0
 10
500.8042590441909
 20
-47.13690902356592
 30
0.0
 10
500.8042590441909
 20
-47.29191321581795
 30
0.0
 10
500.8042590441909
 20
-47.3926022833706
 30
0.0
 10
500.8143756167547
 20
-47.49488800335069
 30
0.0
 10
500.8426187317269
 20
-47.59153485938485
 30
0.0
 10
500.8635528437463
 20
-47.66317058768677
 30
0.0
 10
500.8951914263178
 20
-47.73295371578048
 30
0.0
 10
500.937956128575
 20
-47.79411820593815
 30
0.0
 10
500.9809264769398
 20
-47.8555768227626
 30
0.0
 10
501.0364107048306
 20
-47.90960061973226
 30
0.0
 10
501.0983566156509
 20
-47.95186545799325
 30
0.0
 10
501.1708621761851
 20
-48.0013349992177
 30
0.0
 10
501.2537378358396
 20
-48.03665105046255
 30
0.0
 10
501.3381835268619
 20
-48.06059300287085
 30
0.0
 10
501.481839787756
 20
-48.10132227300699
 30
0.0
 10
501.6340510769772
 20
-48.11032621293536
 30
0.0
 10
501.7833695110029
 20
-48.11032621293536
 30
0.0
 10
502.0848986460289
 20
-48.11032621293536
 30
0.0
 10
502.3864277810549
 20
-48.11032621293536
 30
0.0
 10
502.6879569160809
 20
-48.11032621293536
 30
0.0
  0
LINE
  5
104
330
1F
100
AcDbEntity
  8
0
  6
Continuous
 62
     7
370
    25
100
AcDbLine
 10
502.6879569161
 20
-48.1103262129
 30
0.0
 11
502.6879569161
 21
-48.9249608819
 31
0.0
  0
SPLINE
  5
105
330
1F
100
AcDbEntity
  8
0
  6
Continuous
 62
     7
370
    25
100
AcDbSpline
210
0.0
220
0.0
230
1.0
 70
     8
 71
     3
 72
    44
 73
    40
 74
     0
 42
0.000000001
 43
0.00000001
 40
0.0288870688146533
 40
0.0288870688146533
 40
0.0288870688146533
 40
0.0288870688146533
 40
0.030191297708022
 40
0.030191297708022
 40
0.030191297708022
 40
0.0311959171606146
 40
0.0311959171606146
 40
0.0311959171606146
 40
0.0317639448156713
 40
0.0317639448156713
 40
0.0317639448156713
 40
0.0322119746629595
 40
0.0322119746629595
 40
0.0322119746629595
 40
0.0326581956192994
 40
0.0326581956192994
 40
0.0326581956192994
 40
0.0333213066908888
 40
0.0333213066908888
 40
0.0333213066908888
 40
0.0355243167196325
 40
0.0355243167196325
 40
0.0355243167196325
 40
0.0360404392749678
 40
0.0360404392749678
 40
0.0360404392749678
 40
0.0365164746801293
 40
0.0365164746801293
 40
0.0365164746801293
 40
0.0370578594462738
 40
0.0370578594462738
 40
0.0370578594462738
 40
0.0375898426459467
 40
0.0375898426459467
 40
0.0375898426459467
 40
0.0388998257713045
 40
0.0388998257713045
 40
0.0388998257713045
 40
0.0397578481028076
 40
0.0397578481028076
 40
0.0397578481028076
 40
0.0397578481028076
 10
502.6879569160809
 20
-48.92496088188755
 30
0.0
 10
502.2532067397858
 20
-48.92496088188755
 30
0.0
 10
501.8177092378014
 20
-48.94065344586997
 30
0.0
 10
501.3837486316659
 20
-48.91446359838665
 30
0.0
 10
501.0515027805138
 20
-48.89441231251966
 30
0.0
 10
500.714924966246
 20
-48.84508609259742
 30
0.0
 10
500.4021530547529
 20
-48.73123052157165
 30
0.0
 10
500.2248194205899
 20
-48.66667733940353
 30
0.0
 10
500.0523359289205
 20
-48.57871940715926
 30
0.0
 10
499.904266716869
 20
-48.46171581928325
 30
0.0
 10
499.7873942138714
 20
-48.36936372268403
 30
0.0
 10
499.6838784216085
 20
-48.25619617494554
 30
0.0
 10
499.605056215838
 20
-48.12980332870556
 30
0.0
 10
499.526470117129
 20
-48.00378908445018
 30
0.0
 10
499.4704306916857
 20
-47.86194023000319
 30
0.0
 10
499.436668309725
 20
-47.71731842587295
 30
0.0
 10
499.3865135732764
 20
-47.50247966007451
 30
0.0
 10
499.391132358602
 20
-47.27765577925454
 30
0.0
 10
499.391132358602
 20
-47.05704029276725
 30
0.0
 10
499.391132358602
 20
-46.32236315466456
 30
0.0
 10
499.391132358602
 20
-45.58768601656189
 30
0.0
 10
499.391132358602
 20
-44.8530088784592
 30
0.0
 10
499.391132358602
 20
-44.68242260667368
 30
0.0
 10
499.4108225133593
 20
-44.50936156045201
 30
0.0
 10
499.4593120721859
 20
-44.34581206089155
 30
0.0
 10
499.5038776841319
 20
-44.19549756623046
 30
0.0
 10
499.5750591685896
 20
-44.05010853560469
 30
0.0
 10
499.66981598383
 20
-43.92520182225896
 30
0.0
 10
499.77723222354
 20
-43.78360768543518
 30
0.0
 10
499.9178608570995
 20
-43.66444258284746
 30
0.0
 10
500.0705703463069
 20
-43.5735197581976
 30
0.0
 10
500.2217527043285
 20
-43.48350618340342
 30
0.0
 10
500.3878114044928
 20
-43.41713145084832
 30
0.0
 10
500.5567511059028
 20
-43.36795903671455
 30
0.0
 10
500.9694213646357
 20
-43.24784521685011
 30
0.0
 10
501.4083878024402
 20
-43.22496088188755
 30
0.0
 10
501.838183186507
 20
-43.22496088188755
 30
0.0
 10
502.1214410963649
 20
-43.22496088188755
 30
0.0
 10
502.404699006223
 20
-43.22496088188755
 30
0.0
 10
502.6879569160809
 20
-43.22496088188755
 30
0.0
  0
LINE
  5
106
330
1F
100
AcDbEntity
  8
0
  6
Continuous
 62
     7
370
    25
100
AcDbLine
 10
503.1599412291
 20
-48.9249608819
 30
0.0
 11
503.1599412291
 21
-43.2249608819
 31
0.0
  0
LINE
  5
107
330
1F
100
AcDbEntity
  8
0
  6
Continuous
 62
     7
370
    25
100
AcDbLine
 10
503.1599412291
 20
-43.2249608819
 30
0.0
 11
504.5730679147
 21
-43.2249608819
 31
0.0
  0
LINE
  5
108
330
1F
100
AcDbEntity
  8
0
  6
Continuous
 62
     7
370
    25
100
AcDbLine
 10
504.5730679147
 20
-43.2249608819
 30
0.0
 11
504.5730679147
 21
-48.9249608819
 31
0.0
  0
LINE
  5
109
330
1F
100
AcDbEntity
  8
0
  6
Continuous
 62
     7
370
    25
100
AcDbLine
 10
504.5730679147
 20
-48.9249608819
 30
0.0
 11
503.1599412291
 21
-48.9249608819
 31
0.0
  0
LINE
  5
10A
330
1F
100
AcDbEntity
  8
0
  6
Continuous
 62
     7
370
    25
100
AcDbLine
 10
507.9080468926
 20
-43.2249608819
 30
0.0
 11
509.3211735782
 21
-43.2249608819
 31
0.0
  0
LINE
  5
10B
330
1F
100
AcDbEntity
  8
0
  6
Continuous
 62
     7
370
    25
100
AcDbLine
 10
509.3211735782
 20
-43.2249608819
 30
0.0
 11
509.3211735782
 21
-48.9249608819
 31
0.0
  0
LINE
  5
10C
330
1F
100
AcDbEntity
  8
0
  6
Continuous
 62
     7
370
    25
100
AcDbLine
 10
509.3211735782
 20
-48.9249608819
 30
0.0
 11
507.9080468926
 21
-48.9249608819
 31
0.0
  0
LINE
  5
10D
330
1F
100
AcDbEntity
  8
0
  6
Continuous
 62
     7
370
    25
100
AcDbLine
 10
507.9080468926
 20
-48.9249608819
 30
0.0
 11
507.9080468926
 21
-43.2249608819
 31
0.0
  0
LINE
  5
10E
330
1F
100
AcDbEntity
  8
0
  6
Continuous
 62
     7
370
    25
100
AcDbLine
 10
513.088569322
 20
-44.0395955508
 30
0.0
 11
510.2623159508
 21
-44.0395955508
 31
0.0
  0
LINE
  5
10F
330
1F
100
AcDbEntity
  8
0
  6
Continuous
 62
     7
370
    25
100
AcDbLine
 10
510.2623159508
 20
-44.0395955508
 30
0.0
 11
510.2623159508
 21
-43.2249608819
 31
0.0
  0
LINE
  5
110
330
1F
100
AcDbEntity
  8
0
  6
Continuous
 62
     7
370
    25
100
AcDbLine
 10
510.2623159508
 20
-43.2249608819
 30
0.0
 11
513.088569322
 21
-43.2249608819
 31
0.0
  0
LINE
  5
111
330
1F
100
AcDbEntity
  8
0
  6
Continuous
 62
     7
370
    25
100
AcDbLine
 10
513.088569322
 20
-43.2249608819
 30
0.0
 11
513.088569322
 21
-44.0395955508
 31
0.0
  0
LINE
  5
112
330
1F
100
AcDbEntity
  8
0
  6
Continuous
 62
     7
370
    25
100
AcDbLine
 10
513.560553635
 20
-43.2249608819
 30
0.0
 11
513.560553635
 21
-48.9249608819
 31
0.0
  0
LINE
  5
113
330
1F
100
AcDbEntity
  8
0
  6
Continuous
 62
     7
370
    25
100
AcDbLine
 10
514.9736803206
 20
-43.2249608819
 30
0.0
 11
513.560553635
 21
-43.2249608819
 31
0.0
  0
LINE
  5
114
330
1F
100
AcDbEntity
  8
0
  6
Continuous
 62
     7
370
    25
100
AcDbLine
 10
514.9736803206
 20
-48.9249608819
 30
0.0
 11
514.9736803206
 21
-43.2249608819
 31
0.0
  0
LINE
  5
115
330
1F
100
AcDbEntity
  8
0
  6
Continuous
 62
     7
370
    25
100
AcDbLine
 10
513.560553635
 20
-48.9249608819
 30
0.0
 11
514.9736803206
 21
-48.9249608819
 31
0.0
  0
LINE
  5
116
330
1F
100
AcDbEntity
  8
0
  6
Continuous
 62
     7
370
    25
100
AcDbLine
 10
518.2719180048
 20
-44.0395955508
 30
0.0
 11
518.2719180048
 21
-43.2249608819
 31
0.0
  0
SPLINE
  5
117
330
1F
100
AcDbEntity
  8
0
  6
Continuous
 62
     7
370
    25
100
AcDbSpline
210
0.0
220
0.0
230
1.0
 70
     8
 71
     3
 72
    44
 73
    40
 74
     0
 42
0.000000001
 43
0.00000001
 40
0.0
 40
0.0
 40
0.0
 40
0.0
 40
0.0004344678100984
 40
0.0004344678100984
 40
0.0004344678100984
 40
0.0006720875280765
 40
0.0006720875280765
 40
0.0006720875280765
 40
0.0009131797661151
 40
0.0009131797661151
 40
0.0009131797661151
 40
0.0011216176470445
 40
0.0011216176470445
 40
0.0011216176470445
 40
0.0014542882990509
 40
0.0014542882990509
 40
0.0014542882990509
 40
0.0029916854303796
 40
0.0029916854303796
 40
0.0029916854303796
 40
0.0035398001194237
 40
0.0035398001194237
 40
0.0035398001194237
 40
0.0039925455688655
 40
0.0039925455688655
 40
0.0039925455688655
 40
0.004234447376765
 40
0.004234447376765
 40
0.004234447376765
 40
0.0044802006942442
 40
0.0044802006942442
 40
0.0044802006942442
 40
0.0046907669798519
 40
0.0046907669798519
 40
0.0046907669798519
 40
0.0050117924876069
 40
0.0050117924876069
 40
0.0050117924876069
 40
0.0052569109596179
 40
0.0052569109596179
 40
0.0052569109596179
 40
0.0052569109596179
 10
518.271918004754
 20
-48.11032621293536
 30
0.0
 10
518.1270954013878
 20
-48.11032621293536
 30
0.0
 10
517.9795142496231
 20
-48.09667935447914
 30
0.0
 10
517.8411121113119
 20
-48.05403624768985
 30
0.0
 10
517.7650628080884
 20
-48.03060468371129
 30
0.0
 10
517.6907396168751
 20
-47.99751980303661
 30
0.0
 10
517.624890342368
 20
-47.95283862402215
 30
0.0
 10
517.5584643973025
 20
-47.90776615261095
 30
0.0
 10
517.4994004788656
 20
-47.84905219516585
 30
0.0
 10
517.4549409494749
 20
-47.78221445056506
 30
0.0
 10
517.4162373066459
 20
-47.72402975473094
 30
0.0
 10
517.387336931504
 20
-47.65864466898665
 30
0.0
 10
517.3677322936069
 20
-47.59156942041865
 30
0.0
 10
517.3365630315423
 20
-47.48492700184284
 30
0.0
 10
517.329362505466
 20
-47.37157701992654
 30
0.0
 10
517.329362505466
 20
-47.26047288707205
 30
0.0
 10
517.329362505466
 20
-46.74358229650768
 30
0.0
 10
517.329362505466
 20
-46.22669170594332
 30
0.0
 10
517.329362505466
 20
-45.70980111537895
 30
0.0
 10
517.329362505466
 20
-45.52551865540575
 30
0.0
 10
517.329362505466
 20
-45.34123619543255
 30
0.0
 10
517.329362505466
 20
-45.15695373545935
 30
0.0
 10
517.329362505466
 20
-45.00476611407623
 30
0.0
 10
517.319400175788
 20
-44.85146480906104
 30
0.0
 10
517.3385172899449
 20
-44.7004826642605
 30
0.0
 10
517.3486956282248
 20
-44.62009671628652
 30
0.0
 10
517.3684776980807
 20
-44.53974086018737
 30
0.0
 10
517.4012339671078
 20
-44.4656292818663
 30
0.0
 10
517.4342987551631
 20
-44.39081967434966
 30
0.0
 10
517.4822853141194
 20
-44.32075705051031
 30
0.0
 10
517.5414001945479
 20
-44.2642310520861
 30
0.0
 10
517.5923979810116
 20
-44.21546666693668
 30
0.0
 10
517.6525338789799
 20
-44.17535751679345
 30
0.0
 10
517.7160453725999
 20
-44.1446161820577
 30
0.0
 10
517.8125462056624
 20
-44.0979070867056
 30
0.0
 10
517.9189878726589
 20
-44.07070319480347
 30
0.0
 10
518.0251444489159
 20
-44.05570547205095
 30
0.0
 10
518.1067668365519
 20
-44.04417392136114
 30
0.0
 10
518.1894850573075
 20
-44.03959555083981
 30
0.0
 10
518.271918004754
 20
-44.03959555083981
 30
0.0
  0
LINE
  5
118
330
1F
100
AcDbEntity
  8
0
  6
Continuous
 62
     7
370
    25
100
AcDbLine
 10
518.2719180048
 20
-48.9249608819
 30
0.0
 11
518.2719180048
 21
-48.1103262129
 31
0.0
  0
SPLINE
  5
119
330
1F
100
AcDbEntity
  8
0
  6
Continuous
 62
     7
370
    25
100
AcDbSpline
210
0.0
220
0.0
230
1.0
 70
     8
 71
     3
 72
    44
 73
    40
 74
     0
 42
0.000000001
 43
0.00000001
 40
0.0269067546288789
 40
0.0269067546288789
 40
0.0269067546288789
 40
0.0269067546288789
 40
0.0270311595952135
 40
0.0270311595952135
 40
0.0270311595952135
 40
0.0281506531149865
 40
0.0281506531149865
 40
0.0281506531149865
 40
0.0286700668406919
 40
0.0286700668406919
 40
0.0286700668406919
 40
0.029198395413931
 40
0.029198395413931
 40
0.029198395413931
 40
0.0296650529743584
 40
0.0296650529743584
 40
0.0296650529743584
 40
0.030164776220956
 40
0.030164776220956
 40
0.030164776220956
 40
0.0323529093353576
 40
0.0323529093353576
 40
0.0323529093353576
 40
0.033011542421611
 40
0.033011542421611
 40
0.033011542421611
 40
0.033454750050341
 40
0.033454750050341
 40
0.033454750050341
 40
0.033899754354589
 40
0.033899754354589
 40
0.033899754354589
 40
0.0344639461220842
 40
0.0344639461220842
 40
0.0344639461220842
 40
0.0354617813851617
 40
0.0354617813851617
 40
0.0354617813851617
 40
0.0358224184328711
 40
0.0358224184328711
 40
0.0358224184328711
 40
0.0358224184328711
 10
518.271918004754
 20
-43.22496088188755
 30
0.0
 10
518.2304482768108
 20
-43.22496088188755
 30
0.0
 10
518.1889765341465
 20
-43.22533826846593
 30
0.0
 10
518.1475142654899
 20
-43.22612478834876
 30
0.0
 10
517.7769790940472
 20
-43.23315366759403
 30
0.0
 10
517.4005531262287
 20
-43.27002365801766
 30
0.0
 10
517.0462143760928
 20
-43.37860435875105
 30
0.0
 10
516.8808561547861
 20
-43.4292753946867
 30
0.0
 10
516.7186333935191
 20
-43.49714048085662
 30
0.0
 10
516.5715692717129
 20
-43.5881516851885
 30
0.0
 10
516.4230566446565
 20
-43.68005930263384
 30
0.0
 10
516.2870761630411
 20
-43.79960977302876
 30
0.0
 10
516.1836247588778
 20
-43.94032515071115
 30
0.0
 10
516.0919358445542
 20
-44.06504110128412
 30
0.0
 10
516.0235393888973
 20
-44.20930058482102
 30
0.0
 10
515.980834618655
 20
-44.35808643070605
 30
0.0
 10
515.9349350382622
 20
-44.51800317667496
 30
0.0
 10
515.9162358198769
 20
-44.68663539162466
 30
0.0
 10
515.9162358198769
 20
-44.8530088784593
 30
0.0
 10
515.9162358198769
 20
-45.58768601656115
 30
0.0
 10
515.9162358198769
 20
-46.32236315466299
 30
0.0
 10
515.9162358198769
 20
-47.05704029276485
 30
0.0
 10
515.9162358198769
 20
-47.27765577925307
 30
0.0
 10
515.911617034551
 20
-47.50247966007401
 30
0.0
 10
515.9617717709999
 20
-47.71731842587335
 30
0.0
 10
515.9955341529608
 20
-47.86194023000352
 30
0.0
 10
516.051573578404
 20
-48.00378908445045
 30
0.0
 10
516.1301596771129
 20
-48.12980332870575
 30
0.0
 10
516.2089818828836
 20
-48.25619617494571
 30
0.0
 10
516.3124976751465
 20
-48.36936372268418
 30
0.0
 10
516.4293701781439
 20
-48.46171581928335
 30
0.0
 10
516.5774393901957
 20
-48.57871940715933
 30
0.0
 10
516.7499228818649
 20
-48.66667733940376
 30
0.0
 10
516.9272565160279
 20
-48.73123052157185
 30
0.0
 10
517.2400284275213
 20
-48.84508609259765
 30
0.0
 10
517.5766062417895
 20
-48.8944123125197
 30
0.0
 10
517.9088520929419
 20
-48.91446359838665
 30
0.0
 10
518.0297047519205
 20
-48.92175714683746
 30
0.0
 10
518.150845460256
 20
-48.92496088188755
 30
0.0
 10
518.271918004754
 20
-48.92496088188755
 30
0.0
  0
LINE
  5
11A
330
1F
100
AcDbEntity
  8
0
  6
Continuous
 62
     7
370
    25
100
AcDbLine
 10
518.7424891911
 20
-48.1103262129
 30
0.0
 11
518.7424891911
 21
-48.9249608819
 31
0.0
  0
SPLINE
  5
11B
330
1F
100
AcDbEntity
  8
0
  6
Continuous
 62
     7
370
    25
100
AcDbSpline
210
0.0
220
0.0
230
1.0
 70
     8
 71
     3
 72
    44
 73
    40
 74
     0
 42
0.000000001
 43
0.00000001
 40
0.0
 40
0.0
 40
0.0
 40
0.0
 40
0.0004348886675445
 40
0.0004348886675445
 40
0.0004348886675445
 40
0.0006727783039154
 40
0.0006727783039154
 40
0.0006727783039154
 40
0.0009141284053133
 40
0.0009141284053133
 40
0.0009141284053133
 40
0.0011229070450047
 40
0.0011229070450047
 40
0.0011229070450047
 40
0.0014549825534329
 40
0.0014549825534329
 40
0.0014549825534329
 40
0.0029969883847379
 40
0.0029969883847379
 40
0.0029969883847379
 40
0.0035433113509417
 40
0.0035433113509417
 40
0.0035433113509417
 40
0.0040008598774592
 40
0.0040008598774592
 40
0.0040008598774592
 40
0.0042404590540763
 40
0.0042404590540763
 40
0.0042404590540763
 40
0.00448371395473
 40
0.00448371395473
 40
0.00448371395473
 40
0.0046940086425948
 40
0.0046940086425948
 40
0.0046940086425948
 40
0.0050174468866426
 40
0.0050174468866426
 40
0.0050174468866426
 40
0.0052555929362291
 40
0.0052555929362291
 40
0.0052555929362291
 40
0.0052555929362291
 10
518.7424891910548
 20
-44.03959555083981
 30
0.0
 10
518.8874520802364
 20
-44.03959555083981
 30
0.0
 10
519.0351890767417
 20
-44.05334613349142
 30
0.0
 10
519.1736823208889
 20
-44.0961697317225
 30
0.0
 10
519.2497990559982
 20
-44.11970584355998
 30
0.0
 10
519.3241723208547
 20
-44.15292264184304
 30
0.0
 10
519.390046867979
 20
-44.19773614388536
 30
0.0
 10
519.4564957328325
 20
-44.2429403459758
 30
0.0
 10
519.5155615265356
 20
-44.30178486254336
 30
0.0
 10
519.5600056718159
 20
-44.36874447333415
 30
0.0
 10
519.5987161809734
 20
-44.42706578000689
 30
0.0
 10
519.6275972200095
 20
-44.49259478425623
 30
0.0
 10
519.6471442950469
 20
-44.55980929302281
 30
0.0
 10
519.6781174204111
 20
-44.66631338135037
 30
0.0
 10
519.6850446903429
 20
-44.77947667287646
 30
0.0
 10
519.6850446903429
 20
-44.89039310684961
 30
0.0
 10
519.6850446903429
 20
-45.40881177917732
 30
0.0
 10
519.6850446903419
 20
-45.92723045150503
 30
0.0
 10
519.6850446903419
 20
-46.44564912383275
 30
0.0
 10
519.6850446903419
 20
-46.62932159837962
 30
0.0
 10
519.6850446903419
 20
-46.81299407292648
 30
0.0
 10
519.6850446903419
 20
-46.99666654747335
 30
0.0
 10
519.6850446903419
 20
-47.15045400730838
 30
0.0
 10
519.6953518222527
 20
-47.30552729827895
 30
0.0
 10
519.6746217310838
 20
-47.45791117578125
 30
0.0
 10
519.6637974390144
 20
-47.5374789684802
 30
0.0
 10
519.6433668427446
 20
-47.61691557799426
 30
0.0
 10
519.610160085824
 20
-47.69002857429865
 30
0.0
 10
519.5766524460788
 20
-47.76380403953649
 30
0.0
 10
519.5284850587809
 20
-47.83271057431788
 30
0.0
 10
519.4695510404639
 20
-47.88831959046955
 30
0.0
 10
519.4182668862462
 20
-47.9367103406958
 30
0.0
 10
519.3579674118904
 20
-47.9764382435704
 30
0.0
 10
519.2943634200259
 20
-48.00687278644805
 30
0.0
 10
519.1968853485298
 20
-48.05351609388227
 30
0.0
 10
519.0894768685353
 20
-48.08044733652202
 30
0.0
 10
518.9824127636439
 20
-48.09510509879365
 30
0.0
 10
518.9030180669523
 20
-48.10597474171379
 30
0.0
 10
518.8226244953842
 20
-48.11032621293536
 30
0.0
 10
518.7424891910548
 20
-48.11032621293536
 30
0.0
  0
LINE
  5
11C
330
1F
100
AcDbEntity
  8
0
  6
Continuous
 62
     7
370
    25
100
AcDbLine
 10
518.7424891911
 20
-43.2249608819
 30
0.0
 11
518.7424891911
 21
-44.0395955508
 31
0.0
  0
SPLINE
  5
11D
330
1F
100
AcDbEntity
  8
0
  6
Continuous
 62
     7
370
    25
100
AcDbSpline
210
0.0
220
0.0
230
1.0
 70
     8
 71
     3
 72
    41
 73
    37
 74
     0
 42
0.000000001
 43
0.00000001
 40
0.0135849742018221
 40
0.0135849742018221
 40
0.0135849742018221
 40
0.0135849742018221
 40
0.0145491432310871
 40
0.0145491432310871
 40
0.0145491432310871
 40
0.0151548702656702
 40
0.0151548702656702
 40
0.0151548702656702
 40
0.0156598797114504
 40
0.0156598797114504
 40
0.0156598797114504
 40
0.0161718028732349
 40
0.0161718028732349
 40
0.0161718028732349
 40
0.0165992394399151
 40
0.0165992394399151
 40
0.0165992394399151
 40
0.0186276234450928
 40
0.0186276234450928
 40
0.0186276234450928
 40
0.0192648421954523
 40
0.0192648421954523
 40
0.0192648421954523
 40
0.0198286144509272
 40
0.0198286144509272
 40
0.0198286144509272
 40
0.0202644261781185
 40
0.0202644261781185
 40
0.0202644261781185
 40
0.0206998521044442
 40
0.0206998521044442
 40
0.0206998521044442
 40
0.0213316230640711
 40
0.0213316230640711
 40
0.0213316230640711
 40
0.022529615381203
 40
0.022529615381203
 40
0.022529615381203
 40
0.022529615381203
 10
518.7424891910548
 20
-48.92496088188755
 30
0.0
 10
519.0632172305293
 20
-48.92496088188755
 30
0.0
 10
519.386712437525
 20
-48.9037018830552
 30
0.0
 10
519.700809877147
 20
-48.83882296715775
 30
0.0
 10
519.8987047270627
 20
-48.79794646927965
 30
0.0
 10
520.0951333980336
 20
-48.73876155347215
 30
0.0
 10
520.2772882111378
 20
-48.65128079121585
 30
0.0
 10
520.428726016237
 20
-48.57855202605882
 30
0.0
 10
520.5728825629043
 20
-48.48383048910362
 30
0.0
 10
520.6930846350299
 20
-48.36646633805585
 30
0.0
 10
520.8143059862437
 20
-48.24810697267663
 30
0.0
 10
520.9132840500948
 20
-48.1023727296146
 30
0.0
 10
520.9788806288129
 20
-47.94616567400075
 30
0.0
 10
521.0341539243205
 20
-47.81454175528336
 30
0.0
 10
521.0682047324992
 20
-47.6729948059706
 30
0.0
 10
521.0848694654129
 20
-47.53121229699396
 30
0.0
 10
521.164170384789
 20
-46.85652501748112
 30
0.0
 10
521.0981713759309
 20
-46.17259230454552
 30
0.0
 10
521.0981713759309
 20
-45.49326060283395
 30
0.0
 10
521.0981713759309
 20
-45.27984336137571
 30
0.0
 10
521.0981713759309
 20
-45.06642611991749
 30
0.0
 10
521.0981713759309
 20
-44.85300887845925
 30
0.0
 10
521.0981713759309
 20
-44.66627677726854
 30
0.0
 10
521.0743539556762
 20
-44.47609175915929
 30
0.0
 10
521.0151225375279
 20
-44.29900275125865
 30
0.0
 10
520.9692625840943
 20
-44.16189150338036
 30
0.0
 10
520.900459696939
 20
-44.03011786772196
 30
0.0
 10
520.8119496903159
 20
-43.91579985360671
 30
0.0
 10
520.7234294136613
 20
-43.80146857489382
 30
0.0
 10
520.6134882539027
 20
-43.70195303926408
 30
0.0
 10
520.4935305235429
 20
-43.62122123885015
 30
0.0
 10
520.3199718430818
 20
-43.50441588825653
 30
0.0
 10
520.1218439839939
 20
-43.42232591514448
 30
0.0
 10
519.9207267939299
 20
-43.36472399372271
 30
0.0
 10
519.5405146289643
 20
-43.25582752772196
 30
0.0
 10
519.1379885345377
 20
-43.22496088188755
 30
0.0
 10
518.7424891910548
 20
-43.22496088188755
 30
0.0
  0
LINE
  5
11E
330
1F
100
AcDbEntity
  8
0
  6
Continuous
 62
     7
370
    25
100
AcDbLine
 10
524.3964090601
 20
-46.4822782164
 30
0.0
 11
524.3964090601
 21
-45.6676435474
 31
0.0
  0
SPLINE
  5
11F
330
1F
100
AcDbEntity
  8
0
  6
Continuous
 62
     7
370
    25
100
AcDbSpline
210
0.0
220
0.0
230
1.0
 70
     8
 71
     3
 72
    38
 73
    34
 74
     0
 42
0.000000001
 43
0.00000001
 40
0.0
 40
0.0
 40
0.0
 40
0.0
 40
0.0011338885747465
 40
0.0011338885747465
 40
0.0011338885747465
 40
0.0016976944241952
 40
0.0016976944241952
 40
0.0016976944241952
 40
0.0021677208390161
 40
0.0021677208390161
 40
0.0021677208390161
 40
0.0026416346836116
 40
0.0026416346836116
 40
0.0026416346836116
 40
0.0031804901422579
 40
0.0031804901422579
 40
0.0031804901422579
 40
0.0037394726962015
 40
0.0037394726962015
 40
0.0037394726962015
 40
0.0041769143362281
 40
0.0041769143362281
 40
0.0041769143362281
 40
0.0046149055286205
 40
0.0046149055286205
 40
0.0046149055286205
 40
0.0052129809988544
 40
0.0052129809988544
 40
0.0052129809988544
 40
0.0063176381932775
 40
0.0063176381932775
 40
0.0063176381932775
 40
0.0064813128882337
 40
0.0064813128882337
 40
0.0064813128882337
 40
0.0064813128882337
 10
524.3964090600949
 20
-43.22496088188755
 30
0.0
 10
524.018446201846
 20
-43.22496088188755
 30
0.0
 10
523.634786796641
 20
-43.25340984693856
 30
0.0
 10
523.2694803744769
 20
-43.35040025956395
 30
0.0
 10
523.0871214151189
 20
-43.39881734078933
 30
0.0
 10
522.9072666550236
 20
-43.46591881337793
 30
0.0
 10
522.7436129222849
 20
-43.5598148174101
 30
0.0
 10
522.607482275868
 20
-43.63791950534446
 30
0.0
 10
522.4803484752802
 20
-43.73705477590527
 30
0.0
 10
522.3767780840759
 20
-43.8549745335245
 30
0.0
 10
522.2726429165884
 20
-43.97353731548352
 30
0.0
 10
522.1904011911917
 20
-44.11451692651768
 30
0.0
 10
522.1363145805119
 20
-44.26275964950495
 30
0.0
 10
522.074707605498
 20
-44.43161448467217
 30
0.0
 10
522.0463933785771
 20
-44.61391375695778
 30
0.0
 10
522.041524449019
 20
-44.7935903226381
 30
0.0
 10
522.0364681691523
 20
-44.98018061742667
 30
0.0
 10
522.0541433396014
 20
-45.17050640675006
 30
0.0
 10
522.1058544628638
 20
-45.34985930972715
 30
0.0
 10
522.14634501182
 20
-45.49029519740982
 30
0.0
 10
522.2095352235418
 20
-45.62657118838457
 30
0.0
 10
522.2937376558049
 20
-45.74603529807855
 30
0.0
 10
522.3780568391765
 20
-45.86566505105451
 30
0.0
 10
522.4852691192239
 20
-45.97109711299974
 30
0.0
 10
522.6038844111749
 20
-46.05683750602965
 30
0.0
 10
522.7655446713595
 20
-46.17369271093256
 30
0.0
 10
522.9517060284986
 20
-46.25847456911693
 30
0.0
 10
523.141689182601
 20
-46.31926584968575
 30
0.0
 10
523.4915696149505
 20
-46.43122145769219
 30
0.0
 10
523.8647031978628
 20
-46.47086539157038
 30
0.0
 10
524.2319399680049
 20
-46.48022112568855
 30
0.0
 10
524.2867495031212
 20
-46.48161745492184
 30
0.0
 10
524.3415817414026
 20
-46.48227821636365
 30
0.0
 10
524.3964090600949
 20
-46.48227821636365
 30
0.0
  0
LINE
  5
120
330
1F
100
AcDbEntity
  8
0
  6
Continuous
 62
     7
370
    25
100
AcDbLine
 10
524.3964090601
 20
-44.0395955508
 30
0.0
 11
524.3964090601
 21
-43.2249608819
 31
0.0
  0
SPLINE
  5
121
330
1F
100
AcDbEntity
  8
0
  6
Continuous
 62
     7
370
    25
100
AcDbSpline
210
0.0
220
0.0
230
1.0
 70
     8
 71
     3
 72
    38
 73
    34
 74
     0
 42
0.000000001
 43
0.00000001
 40
0.0039850124245678
 40
0.0039850124245678
 40
0.0039850124245678
 40
0.0039850124245678
 40
0.0043130673789168
 40
0.0043130673789168
 40
0.0043130673789168
 40
0.0045625582737428
 40
0.0045625582737428
 40
0.0045625582737428
 40
0.0048163041701735
 40
0.0048163041701735
 40
0.0048163041701735
 40
0.0050394473783086
 40
0.0050394473783086
 40
0.0050394473783086
 40
0.0053292728209087
 40
0.0053292728209087
 40
0.0053292728209087
 40
0.0054071837181597
 40
0.0054071837181597
 40
0.0054071837181597
 40
0.0057421068577447
 40
0.0057421068577447
 40
0.0057421068577447
 40
0.0059578426620578
 40
0.0059578426620578
 40
0.0059578426620578
 40
0.006174501101866
 40
0.006174501101866
 40
0.006174501101866
 40
0.0064477995981402
 40
0.0064477995981402
 40
0.0064477995981402
 40
0.0068291612878341
 40
0.0068291612878341
 40
0.0068291612878341
 40
0.0068291612878341
 10
524.3964090600949
 20
-45.66764354741145
 30
0.0
 10
524.2870858453043
 20
-45.66764354741145
 30
0.0
 10
524.1769076009565
 20
-45.65970129004757
 30
0.0
 10
524.0697995512888
 20
-45.63780537744875
 30
0.0
 10
523.9880488481214
 20
-45.62109322316152
 30
0.0
 10
523.907019537444
 20
-45.59579567041649
 30
0.0
 10
523.832355030997
 20
-45.55854402553565
 30
0.0
 10
523.7569572102495
 20
-45.52092651519609
 30
0.0
 10
523.6864719055046
 20
-45.46929814977922
 30
0.0
 10
523.6306526329649
 20
-45.40617828546755
 30
0.0
 10
523.5813700585965
 20
-45.35045005280648
 30
0.0
 10
523.5422729158149
 20
-45.28452751622901
 30
0.0
 10
523.5149414354239
 20
-45.21533648912615
 30
0.0
 10
523.479460919329
 20
-45.12551576534433
 30
0.0
 10
523.4619459983339
 20
-45.02804045416256
 30
0.0
 10
523.4561551672239
 20
-44.93163975023305
 30
0.0
 10
523.454582863857
 20
-44.90546541558761
 30
0.0
 10
523.4538535608069
 20
-44.87923039504363
 30
0.0
 10
523.4538535608069
 20
-44.8530088784588
 30
0.0
 10
523.4538535608069
 20
-44.74149092486886
 30
0.0
 10
523.4671537743826
 20
-44.62757736556668
 30
0.0
 10
523.5035538776528
 20
-44.52216727850285
 30
0.0
 10
523.5271042822664
 20
-44.45396829065178
 30
0.0
 10
523.5612321242395
 20
-44.38820841997578
 30
0.0
 10
523.6054676070569
 20
-44.33120889751025
 30
0.0
 10
523.6498415319908
 20
-44.27403098579612
 30
0.0
 10
523.7055035117415
 20
-44.22446824632178
 30
0.0
 10
523.7666074725698
 20
-44.18567823764531
 30
0.0
 10
523.8436361181073
 20
-44.13677892263812
 30
0.0
 10
523.9309600038713
 20
-44.10305232400894
 30
0.0
 10
524.0194580419529
 20
-44.08085654744676
 30
0.0
 10
524.142061597813
 20
-44.05010692643152
 30
0.0
 10
524.2700082250417
 20
-44.03959555083981
 30
0.0
 10
524.3964090600949
 20
-44.03959555083981
 30
0.0
  0
LINE
  5
122
330
1F
100
AcDbEntity
  8
0
  6
Continuous
 62
     7
370
    25
100
AcDbLine
 10
524.3964090601
 20
-48.1103262129
 30
0.0
 11
524.3964090601
 21
-48.9249608819
 31
0.0
  0
SPLINE
  5
123
330
1F
100
AcDbEntity
  8
0
  6
Continuous
 62
     7
370
    25
100
AcDbSpline
210
0.0
220
0.0
230
1.0
 70
     8
 71
     3
 72
    20
 73
    16
 74
     0
 42
0.000000001
 43
0.00000001
 40
0.0
 40
0.0
 40
0.0
 40
0.0
 40
0.0011322231844265
 40
0.0011322231844265
 40
0.0011322231844265
 40
0.001697263536512
 40
0.001697263536512
 40
0.001697263536512
 40
0.0021677299966381
 40
0.0021677299966381
 40
0.0021677299966381
 40
0.0026420798235237
 40
0.0026420798235237
 40
0.0026420798235237
 40
0.0032416579769816
 40
0.0032416579769816
 40
0.0032416579769816
 40
0.0032416579769816
 10
524.3964090600949
 20
-48.92496088188755
 30
0.0
 10
524.0190013319528
 20
-48.92496088188755
 30
0.0
 10
523.6359218143102
 20
-48.89650616541556
 30
0.0
 10
523.2711328161079
 20
-48.79973023838865
 30
0.0
 10
523.0883735891123
 20
-48.75124551515859
 30
0.0
 10
522.908121142246
 20
-48.68400639280196
 30
0.0
 10
522.7441335729059
 20
-48.58987998555835
 30
0.0
 10
522.6078917947352
 20
-48.51167924664092
 30
0.0
 10
522.4806619154593
 20
-48.41242796774157
 30
0.0
 10
522.3770132164378
 20
-48.29438507351465
 30
0.0
 10
522.2728004149246
 20
-48.1756997371598
 30
0.0
 10
522.1904956066076
 20
-48.03458885161251
 30
0.0
 10
522.136365578632
 20
-47.88620941524665
 30
0.0
 10
522.0680267589305
 20
-47.69888131052473
 30
0.0
 10
522.0407268752189
 20
-47.49509568911785
 30
0.0
 10
522.0407268752189
 20
-47.29569154398315
 30
0.0
  0
LINE
  5
124
330
1F
100
AcDbEntity
  8
0
  6
Continuous
 62
     7
370
    25
100
AcDbLine
 10
522.0407268752
 20
-47.295691544
 30
0.0
 11
523.4538535608
 21
-47.295691544
 31
0.0
  0
SPLINE
  5
125
330
1F
100
AcDbEntity
  8
0
  6
Continuous
 62
     7
370
    25
100
AcDbSpline
210
0.0
220
0.0
230
1.0
 70
     8
 71
     3
 72
    23
 73
    19
 74
     0
 42
0.000000001
 43
0.00000001
 40
0.0020609662897747
 40
0.0020609662897747
 40
0.0020609662897747
 40
0.0020609662897747
 40
0.0023413687124813
 40
0.0023413687124813
 40
0.0023413687124813
 40
0.0025674084485225
 40
0.0025674084485225
 40
0.0025674084485225
 40
0.0027369934117371
 40
0.0027369934117371
 40
0.0027369934117371
 40
0.0030001262912337
 40
0.0030001262912337
 40
0.0030001262912337
 40
0.0033873908850935
 40
0.0033873908850935
 40
0.0033873908850935
 40
0.0034903731306097
 40
0.0034903731306097
 40
0.0034903731306097
 40
0.0034903731306097
 10
523.4538535608069
 20
-47.29569154398315
 30
0.0
 10
523.4538535608069
 20
-47.38872150194956
 30
0.0
 10
523.4630007623871
 20
-47.48292222609574
 30
0.0
 10
523.4869811498469
 20
-47.57280834346935
 30
0.0
 10
523.5063377209458
 20
-47.64536292686171
 30
0.0
 10
523.5361814003114
 20
-47.71637504675429
 30
0.0
 10
523.577401571129
 20
-47.77914241035766
 30
0.0
 10
523.6084678182522
 20
-47.82644804714426
 30
0.0
 10
523.6464974902957
 20
-47.86981308186169
 30
0.0
 10
523.689315794794
 20
-47.90682021336365
 30
0.0
 10
523.7551840518452
 20
-47.96374902638094
 30
0.0
 10
523.8340040755928
 20
-48.00694474837699
 30
0.0
 10
523.9156584580559
 20
-48.03714539179885
 30
0.0
 10
524.0358064291565
 20
-48.08158325200449
 30
0.0
 10
524.165488829335
 20
-48.10119202766
 30
0.0
 10
524.2934229015749
 20
-48.10775948831085
 30
0.0
 10
524.3277171239095
 20
-48.10951997284629
 30
0.0
 10
524.3620696804946
 20
-48.11032621293536
 30
0.0
 10
524.3964090600949
 20
-48.11032621293536
 30
0.0
  0
LINE
  5
126
330
1F
100
AcDbEntity
  8
0
  6
Continuous
 62
     7
370
    25
100
AcDbLine
 10
524.8669802464
 20
-44.0395955508
 30
0.0
 11
524.8669802464
 21
-43.2249608819
 31
0.0
  0
SPLINE
  5
127
330
1F
100
AcDbEntity
  8
0
  6
Continuous
 62
     7
370
    25
100
AcDbSpline
210
0.0
220
0.0
230
1.0
 70
     8
 71
     3
 72
    20
 73
    16
 74
     0
 42
0.000000001
 43
0.00000001
 40
0.0
 40
0.0
 40
0.0
 40
0.0
 40
0.0011321507915941
 40
0.0011321507915941
 40
0.0011321507915941
 40
0.0016972507704233
 40
0.0016972507704233
 40
0.0016972507704233
 40
0.0021676314222604
 40
0.0021676314222604
 40
0.0021676314222604
 40
0.0026419157670728
 40
0.0026419157670728
 40
0.0026419157670728
 40
0.0032407286480526
 40
0.0032407286480526
 40
0.0032407286480526
 40
0.0032407286480526
 10
524.8669802463959
 20
-43.22496088188755
 30
0.0
 10
525.244363843594
 20
-43.22496088188755
 30
0.0
 10
525.6274112703694
 20
-43.25339854114123
 30
0.0
 10
525.9921929524739
 20
-43.35010791935834
 30
0.0
 10
526.1749779214423
 20
-43.3985670979947
 30
0.0
 10
526.3552607864503
 20
-43.46577150400752
 30
0.0
 10
526.519288722305
 20
-43.55986440030785
 30
0.0
 10
526.655524781124
 20
-43.63801477931519
 30
0.0
 10
526.7827625212178
 20
-43.7372042903742
 30
0.0
 10
526.886426990233
 20
-43.8551933717561
 30
0.0
 10
526.9906582432784
 20
-43.97382755678555
 30
0.0
 10
527.0729867317001
 20
-44.11490116135661
 30
0.0
 10
527.1271171760109
 20
-44.2632524976086
 30
0.0
 10
527.1953802889994
 20
-44.45033620175168
 30
0.0
 10
527.222662431273
 20
-44.65386027828643
 30
0.0
 10
527.222662431273
 20
-44.85300887845925
 30
0.0
  0
LINE
  5
128
330
1F
100
AcDbEntity
  8
0
  6
Continuous
 62
     7
370
    25
100
AcDbLine
 10
527.2226624313
 20
-44.8530088785
 30
0.0
 11
525.8095357457
 21
-44.8530088785
 31
0.0
  0
SPLINE
  5
129
330
1F
100
AcDbEntity
  8
0
  6
Continuous
 62
     7
370
    25
100
AcDbSpline
210
0.0
220
0.0
230
1.0
 70
     8
 71
     3
 72
    23
 73
    19
 74
     0
 42
0.000000001
 43
0.00000001
 40
0.0020427097230834
 40
0.0020427097230834
 40
0.0020427097230834
 40
0.0020427097230834
 40
0.0023246115030513
 40
0.0023246115030513
 40
0.0023246115030513
 40
0.0025502877772524
 40
0.0025502877772524
 40
0.0025502877772524
 40
0.002718075200091
 40
0.002718075200091
 40
0.002718075200091
 40
0.0029821005705127
 40
0.0029821005705127
 40
0.0029821005705127
 40
0.0033705571268812
 40
0.0033705571268812
 40
0.0033705571268812
 40
0.0034709719945345
 40
0.0034709719945345
 40
0.0034709719945345
 40
0.0034709719945345
 10
525.8095357456839
 20
-44.85300887845925
 30
0.0
 10
525.8095357456839
 20
-44.75950777642014
 30
0.0
 10
525.8002021723346
 20
-44.66479805330501
 30
0.0
 10
525.7757714525738
 20
-44.5745450975944
 30
0.0
 10
525.7561859258051
 20
-44.50219145032816
 30
0.0
 10
525.7260689617989
 20
-44.43143467450489
 30
0.0
 10
525.6846427556519
 20
-44.36896458105365
 30
0.0
 10
525.6536942542245
 20
-44.32229470813609
 30
0.0
 10
525.615952080471
 20
-44.27951945350978
 30
0.0
 10
525.573543589191
 20
-44.2429488827447
 30
0.0
 10
525.5073992547707
 20
-44.18590992687498
 30
0.0
 10
525.428275821307
 20
-44.14266583558022
 30
0.0
 10
525.3463257909859
 20
-44.1124547781181
 30
0.0
 10
525.2257816538806
 20
-44.06801591899211
 30
0.0
 10
525.0957020203158
 20
-44.04847506439877
 30
0.0
 10
524.9673886693879
 20
-44.04204193417055
 30
0.0
 10
524.9339512606784
 20
-44.04036551310317
 30
0.0
 10
524.900459653332
 20
-44.03959555083981
 30
0.0
 10
524.8669802463959
 20
-44.03959555083981
 30
0.0
  0
LINE
  5
12A
330
1F
100
AcDbEntity
  8
0
  6
Continuous
 62
     7
370
    25
100
AcDbLine
 10
524.8669802464
 20
-46.4822782164
 30
0.0
 11
524.8669802464
 21
-45.6676435474
 31
0.0
  0
SPLINE
  5
12B
330
1F
100
AcDbEntity
  8
0
  6
Continuous
 62
     7
370
    25
100
AcDbSpline
210
0.0
220
0.0
230
1.0
 70
     8
 71
     3
 72
    38
 73
    34
 74
     0
 42
0.000000001
 43
0.00000001
 40
0.0
 40
0.0
 40
0.0
 40
0.0
 40
0.0011321507915941
 40
0.0011321507915941
 40
0.0011321507915941
 40
0.0016972507704234
 40
0.0016972507704234
 40
0.0016972507704234
 40
0.0021676314222606
 40
0.0021676314222606
 40
0.0021676314222606
 40
0.0026419157670732
 40
0.0026419157670732
 40
0.0026419157670732
 40
0.0031805263912814
 40
0.0031805263912814
 40
0.0031805263912814
 40
0.0037391166824709
 40
0.0037391166824709
 40
0.0037391166824709
 40
0.0041766920348463
 40
0.0041766920348463
 40
0.0041766920348463
 40
0.0046147971492761
 40
0.0046147971492761
 40
0.0046147971492761
 40
0.0052134672136039
 40
0.0052134672136039
 40
0.0052134672136039
 40
0.006318726924786
 40
0.006318726924786
 40
0.006318726924786
 40
0.0064809323632309
 40
0.0064809323632309
 40
0.0064809323632309
 40
0.0064809323632309
 10
524.8669802463959
 20
-45.66764354741145
 30
0.0
 10
525.244363843594
 20
-45.66764354741145
 30
0.0
 10
525.6274112703694
 20
-45.69608120666512
 30
0.0
 10
525.9921929524739
 20
-45.79279058488225
 30
0.0
 10
526.1749779214423
 20
-45.84124976351862
 30
0.0
 10
526.3552607864503
 20
-45.9084541695315
 30
0.0
 10
526.519288722305
 20
-46.00254706583185
 30
0.0
 10
526.655524781124
 20
-46.08069744483923
 30
0.0
 10
526.7827625212178
 20
-46.17988695589835
 30
0.0
 10
526.886426990233
 20
-46.29787603728035
 30
0.0
 10
526.9906582432784
 20
-46.41651022230991
 30
0.0
 10
527.0729867317001
 20
-46.55758382688099
 30
0.0
 10
527.1271171760109
 20
-46.70593516313306
 30
0.0
 10
527.1886988777286
 20
-46.87470761373473
 30
0.0
 10
527.2170147589735
 20
-47.05691941542308
 30
0.0
 10
527.2218698747819
 20
-47.23651026685775
 30
0.0
 10
527.2269105406502
 20
-47.42296461950686
 30
0.0
 10
527.2092040618455
 20
-47.61315178636509
 30
0.0
 10
527.1574890720459
 20
-47.79236170172755
 30
0.0
 10
527.1169547390243
 20
-47.93282686314832
 30
0.0
 10
527.0536975437066
 20
-48.0691192495256
 30
0.0
 10
526.969435302774
 20
-48.18859045308315
 30
0.0
 10
526.8850585681014
 20
-48.30822399156985
 30
0.0
 10
526.7777995132292
 20
-48.41365442073365
 30
0.0
 10
526.6591466140519
 20
-48.49940467671965
 30
0.0
 10
526.4973192987107
 20
-48.61635701258534
 30
0.0
 10
526.3109715536123
 20
-48.70120552835486
 30
0.0
 10
526.1207991238758
 20
-48.76203624282635
 30
0.0
 10
525.7707280828658
 20
-48.87401394416794
 30
0.0
 10
525.3973963050282
 20
-48.91365030752551
 30
0.0
 10
525.0299694663869
 20
-48.92293780437006
 30
0.0
 10
524.9756528909305
 20
-48.92431077163892
 30
0.0
 10
524.9213141714192
 20
-48.92496088188755
 30
0.0
 10
524.8669802463959
 20
-48.92496088188755
 30
0.0
  0
LINE
  5
12C
330
1F
100
AcDbEntity
  8
0
  6
Continuous
 62
     7
370
    25
100
AcDbLine
 10
524.8669802464
 20
-48.9249608819
 30
0.0
 11
524.8669802464
 21
-48.1103262129
 31
0.0
  0
SPLINE
  5
12D
330
1F
100
AcDbEntity
  8
0
  6
Continuous
 62
     7
370
    25
100
AcDbSpline
210
0.0
220
0.0
230
1.0
 70
     8
 71
     3
 72
    38
 73
    34
 74
     0
 42
0.000000001
 43
0.00000001
 40
0.0040605349643188
 40
0.0040605349643188
 40
0.0040605349643188
 40
0.0040605349643188
 40
0.0043789621925188
 40
0.0043789621925188
 40
0.0043789621925188
 40
0.0046303115560799
 40
0.0046303115560799
 40
0.0046303115560799
 40
0.0048859638653981
 40
0.0048859638653981
 40
0.0048859638653981
 40
0.0051112169754074
 40
0.0051112169754074
 40
0.0051112169754074
 40
0.0053987316940143
 40
0.0053987316940143
 40
0.0053987316940143
 40
0.0054826561331033
 40
0.0054826561331033
 40
0.0054826561331033
 40
0.0058185764274351
 40
0.0058185764274351
 40
0.0058185764274351
 40
0.0060345506995404
 40
0.0060345506995404
 40
0.0060345506995404
 40
0.0062514111078303
 40
0.0062514111078303
 40
0.0062514111078303
 40
0.0065257819266233
 40
0.0065257819266233
 40
0.0065257819266233
 40
0.0069045373630587
 40
0.0069045373630587
 40
0.0069045373630587
 40
0.0069045373630587
 10
524.8669802463959
 20
-48.11032621293536
 30
0.0
 10
524.9731159325937
 20
-48.11032621293536
 30
0.0
 10
525.0800147666621
 20
-48.10278928086818
 30
0.0
 10
525.1841494377328
 20
-48.08227698782975
 30
0.0
 10
525.2666067825501
 20
-48.06603466236147
 30
0.0
 10
525.3484021185183
 20
-48.04122986515208
 30
0.0
 10
525.4239499898679
 20
-48.00441212506005
 30
0.0
 10
525.5002411987933
 20
-47.9672321244677
 30
0.0
 10
525.5717743210746
 20
-47.91598716957741
 30
0.0
 10
525.6286165010648
 20
-47.85296600188494
 30
0.0
 10
525.6788840937814
 20
-47.79723410717872
 30
0.0
 10
525.7189121831344
 20
-47.73101982917071
 30
0.0
 10
525.7469012308918
 20
-47.66138156260195
 30
0.0
 10
525.7826201853217
 20
-47.57251086961907
 30
0.0
 10
525.8005984832569
 20
-47.47593940555241
 30
0.0
 10
525.8068447357349
 20
-47.38036311086175
 30
0.0
 10
525.8086862684213
 20
-47.35218511592353
 30
0.0
 10
525.8095357456839
 20
-47.32392965017546
 30
0.0
 10
525.8095357456839
 20
-47.29569154398235
 30
0.0
 10
525.8095357456838
 20
-47.18387861290467
 30
0.0
 10
525.7960907332829
 20
-47.06963762487213
 30
0.0
 10
525.7593765269019
 20
-46.96402418535806
 30
0.0
 10
525.7356635860097
 20
-46.89581066542975
 30
0.0
 10
525.7013351089586
 20
-46.83007291812279
 30
0.0
 10
525.6569191797469
 20
-46.77312897113076
 30
0.0
 10
525.6123687609116
 20
-46.71601260018796
 30
0.0
 10
525.5565567848324
 20
-46.66653940170211
 30
0.0
 10
525.4953355941699
 20
-46.62782266808546
 30
0.0
 10
525.4179336642119
 20
-46.57887311530516
 30
0.0
 10
525.3302254317415
 20
-46.5451693525317
 30
0.0
 10
525.24135825304
 20
-46.52303923666526
 30
0.0
 10
525.1195482215971
 20
-46.49270553924272
 30
0.0
 10
524.9925103900244
 20
-46.48227821636365
 30
0.0
 10
524.8669802463959
 20
-46.48227821636365
 30
0.0
  0
ENDSEC
  0
SECTION
  2
OBJECTS
  0
DICTIONARY
  5
C
330
0
100
AcDbDictionary
281
     1
  3
ACAD_GROUP
350
D
  3
ACAD_LAYOUT
350
1A
  3
ACAD_MLINESTYLE
350
17
  3
ACAD_PLOTSETTINGS
350
19
  3
ACAD_PLOTSTYLENAME
350
E
  3
ACAD_SCALELIST
350
47
  0
DICTIONARY
  5
D
102
{ACAD_REACTORS
330
C
102
}
330
C
100
AcDbDictionary
281
     1
  0
DICTIONARY
  5
1A
102
{ACAD_REACTORS
330
C
102
}
330
C
100
AcDbDictionary
281
     1
  3
Layout1
350
1E
  3
Layout2
350
26
  3
Model
350
22
  0
DICTIONARY
  5
17
102
{ACAD_REACTORS
330
C
102
}
330
C
100
AcDbDictionary
281
     1
  3
Standard
350
18
  0
DICTIONARY
  5
19
102
{ACAD_REACTORS
330
C
102
}
330
C
100
AcDbDictionary
281
     1
  0
ACDBDICTIONARYWDFLT
  5
E
102
{ACAD_REACTORS
330
C
102
}
330
C
100
AcDbDictionary
281
     1
  3
Normal
350
F
100
AcDbDictionaryWithDefault
340
F
  0
DICTIONARY
  5
47
102
{ACAD_REACTORS
330
C
102
}
330
C
100
AcDbDictionary
281
     1
  3
A0
350
48
  3
A1
350
49
  3
A2
350
4A
  3
A3
350
4B
  3
A4
350
4C
  3
A5
350
4D
  3
A6
350
4E
  3
A7
350
4F
  3
A8
350
50
  3
A9
350
51
  3
B0
350
52
  3
B1
350
53
  3
B2
350
54
  3
B3
350
55
  3
B4
350
56
  3
B5
350
57
  3
B6
350
58
  3
B7
350
59
  3
B8
350
5A
  3
B9
350
5B
  3
C0
350
5C
  3
C1
350
5D
  3
C2
350
5E
  3
C3
350
5F
  3
C4
350
60
  3
C5
350
61
  3
C6
350
62
  3
C7
350
63
  3
C8
350
64
  3
C9
350
65
  3
D0
350
66
  3
D1
350
67
  3
D2
350
68
  0
LAYOUT
  5
1E
102
{ACAD_REACTORS
330
1A
102
}
330
1A
100
AcDbPlotSettings
  1

  2
none_device
  4

  6

 40
0.0
 41
0.0
 42
0.0
 43
0.0
 44
0.0
 45
0.0
 46
0.0
 47
0.0
 48
0.0
 49
0.0
140
0.0
141
0.0
142
1.0
143
1.0
 70
   688
 72
     1
 73
     0
 74
     5
  7

 75
    16
147
1.0
148
0.0
149
0.0
100
AcDbLayout
  1
Layout1
 70
     1
 71
     1
 10
0.0
 20
0.0
 11
420.0
 21
297.0
 12
0.0
 22
0.0
 32
0.0
 14
1.0000000000E+20
 24
1.0000000000E+20
 34
1.0000000000E+20
 15
-1.0000000000E+20
 25
-1.0000000000E+20
 35
-1.0000000000E+20
146
0.0
 13
0.0
 23
0.0
 33
0.0
 16
1.0
 26
0.0
 36
0.0
 17
0.0
 27
1.0
 37
0.0
 76
     0
330
1B
  0
LAYOUT
  5
26
102
{ACAD_REACTORS
330
1A
102
}
330
1A
100
AcDbPlotSettings
  1

  2
none_device
  4

  6

 40
0.0
 41
0.0
 42
0.0
 43
0.0
 44
0.0
 45
0.0
 46
0.0
 47
0.0
 48
0.0
 49
0.0
140
0.0
141
0.0
142
1.0
143
1.0
 70
   688
 72
     1
 73
     0
 74
     5
  7

 75
    16
147
1.0
148
0.0
149
0.0
100
AcDbLayout
  1
Layout2
 70
     1
 71
     2
 10
0.0
 20
0.0
 11
0.0
 21
0.0
 12
0.0
 22
0.0
 32
0.0
 14
0.0
 24
0.0
 34
0.0
 15
0.0
 25
0.0
 35
0.0
146
0.0
 13
0.0
 23
0.0
 33
0.0
 16
1.0
 26
0.0
 36
0.0
 17
0.0
 27
1.0
 37
0.0
 76
     0
330
23
  0
LAYOUT
  5
22
102
{ACAD_REACTORS
330
1A
102
}
330
1A
100
AcDbPlotSettings
  1

  2
none_device
  4
ANSI_A_(11.00_x_8.50_Inches)
  6

 40
6.35
 41
19.05
 42
6.35000508
 43
19.05000254
 44
279.4
 45
215.9
 46
-912.8246547819
 47
217.4696457902
 48
0.0
 49
0.0
140
0.0
141
0.0
142
0.0861655854
143
1.0
 70
  1696
 72
     0
 73
     0
 74
     0
  7

 75
     0
147
0.0179189148
148
-1300.4909072572
149
0.0
100
AcDbLayout
  1
Model
 70
     1
 71
     0
 10
0.0
 20
0.0
 11
420.0
 21
297.0
 12
0.0
 22
0.0
 32
0.0
 14
414.8173343867
 24
-76.1650348567
 34
0.0
 15
541.2018991123
 25
-41.3249608819
 35
0.0
146
0.0
 13
0.0
 23
0.0
 33
0.0
 16
1.0
 26
0.0
 36
0.0
 17
0.0
 27
1.0
 37
0.0
 76
     0
330
1F
331
29
  0
MLINESTYLE
  5
18
102
{ACAD_REACTORS
330
17
102
}
330
17
100
AcDbMlineStyle
  2
Standard
 70
     0
  3

 62
   256
 51
90.0
 52
90.0
 71
     2
 49
0.5
 62
   256
  6
BYLAYER
 49
-0.5
 62
   256
  6
BYLAYER
  0
ACDBPLACEHOLDER
  5
F
102
{ACAD_REACTORS
330
E
102
}
330
E
  0
SCALE
  5
48
102
{ACAD_REACTORS
330
47
102
}
330
47
100
AcDbScale
 70
     0
300
1:1
140
1.0
141
1.0
290
     1
  0
SCALE
  5
49
102
{ACAD_REACTORS
330
47
102
}
330
47
100
AcDbScale
 70
     0
300
1:2
140
1.0
141
2.0
290
     0
  0
SCALE
  5
4A
102
{ACAD_REACTORS
330
47
102
}
330
47
100
AcDbScale
 70
     0
300
1:4
140
1.0
141
4.0
290
     0
  0
SCALE
  5
4B
102
{ACAD_REACTORS
330
47
102
}
330
47
100
AcDbScale
 70
     0
300
1:5
140
1.0
141
5.0
290
     0
  0
SCALE
  5
4C
102
{ACAD_REACTORS
330
47
102
}
330
47
100
AcDbScale
 70
     0
300
1:8
140
1.0
141
8.0
290
     0
  0
SCALE
  5
4D
102
{ACAD_REACTORS
330
47
102
}
330
47
100
AcDbScale
 70
     0
300
1:10
140
1.0
141
10.0
290
     0
  0
SCALE
  5
4E
102
{ACAD_REACTORS
330
47
102
}
330
47
100
AcDbScale
 70
     0
300
1:16
140
1.0
141
16.0
290
     0
  0
SCALE
  5
4F
102
{ACAD_REACTORS
330
47
102
}
330
47
100
AcDbScale
 70
     0
300
1:20
140
1.0
141
20.0
290
     0
  0
SCALE
  5
50
102
{ACAD_REACTORS
330
47
102
}
330
47
100
AcDbScale
 70
     0
300
1:30
140
1.0
141
30.0
290
     0
  0
SCALE
  5
51
102
{ACAD_REACTORS
330
47
102
}
330
47
100
AcDbScale
 70
     0
300
1:40
140
1.0
141
40.0
290
     0
  0
SCALE
  5
52
102
{ACAD_REACTORS
330
47
102
}
330
47
100
AcDbScale
 70
     0
300
1:50
140
1.0
141
50.0
290
     0
  0
SCALE
  5
53
102
{ACAD_REACTORS
330
47
102
}
330
47
100
AcDbScale
 70
     0
300
1:100
140
1.0
141
100.0
290
     0
  0
SCALE
  5
54
102
{ACAD_REACTORS
330
47
102
}
330
47
100
AcDbScale
 70
     0
300
2:1
140
2.0
141
1.0
290
     0
  0
SCALE
  5
55
102
{ACAD_REACTORS
330
47
102
}
330
47
100
AcDbScale
 70
     0
300
4:1
140
4.0
141
1.0
290
     0
  0
SCALE
  5
56
102
{ACAD_REACTORS
330
47
102
}
330
47
100
AcDbScale
 70
     0
300
8:1
140
8.0
141
1.0
290
     0
  0
SCALE
  5
57
102
{ACAD_REACTORS
330
47
102
}
330
47
100
AcDbScale
 70
     0
300
10:1
140
10.0
141
1.0
290
     0
  0
SCALE
  5
58
102
{ACAD_REACTORS
330
47
102
}
330
47
100
AcDbScale
 70
     0
300
100:1
140
100.0
141
1.0
290
     0
  0
SCALE
  5
59
102
{ACAD_REACTORS
330
47
102
}
330
47
100
AcDbScale
 70
     0
300
1/128" = 1'-0"
140
0.0078125
141
12.0
290
     0
  0
SCALE
  5
5A
102
{ACAD_REACTORS
330
47
102
}
330
47
100
AcDbScale
 70
     0
300
1/64" = 1'-0"
140
0.015625
141
12.0
290
     0
  0
SCALE
  5
5B
102
{ACAD_REACTORS
330
47
102
}
330
47
100
AcDbScale
 70
     0
300
1/32" = 1'-0"
140
0.03125
141
12.0
290
     0
  0
SCALE
  5
5C
102
{ACAD_REACTORS
330
47
102
}
330
47
100
AcDbScale
 70
     0
300
1/16" = 1'-0"
140
0.0625
141
12.0
290
     0
  0
SCALE
  5
5D
102
{ACAD_REACTORS
330
47
102
}
330
47
100
AcDbScale
 70
     0
300
3/32" = 1'-0"
140
0.09375
141
12.0
290
     0
  0
SCALE
  5
5E
102
{ACAD_REACTORS
330
47
102
}
330
47
100
AcDbScale
 70
     0
300
1/8" = 1'-0"
140
0.125
141
12.0
290
     0
  0
SCALE
  5
5F
102
{ACAD_REACTORS
330
47
102
}
330
47
100
AcDbScale
 70
     0
300
3/16" = 1'-0"
140
0.1875
141
12.0
290
     0
  0
SCALE
  5
60
102
{ACAD_REACTORS
330
47
102
}
330
47
100
AcDbScale
 70
     0
300
1/4" = 1'-0"
140
0.25
141
12.0
290
     0
  0
SCALE
  5
61
102
{ACAD_REACTORS
330
47
102
}
330
47
100
AcDbScale
 70
     0
300
3/8" = 1'-0"
140
0.375
141
12.0
290
     0
  0
SCALE
  5
62
102
{ACAD_REACTORS
330
47
102
}
330
47
100
AcDbScale
 70
     0
300
1/2" = 1'-0"
140
0.5
141
12.0
290
     0
  0
SCALE
  5
63
102
{ACAD_REACTORS
330
47
102
}
330
47
100
AcDbScale
 70
     0
300
3/4" = 1'-0"
140
0.75
141
12.0
290
     0
  0
SCALE
  5
64
102
{ACAD_REACTORS
330
47
102
}
330
47
100
AcDbScale
 70
     0
300
1" = 1'-0"
140
1.0
141
12.0
290
     0
  0
SCALE
  5
65
102
{ACAD_REACTORS
330
47
102
}
330
47
100
AcDbScale
 70
     0
300
1-1/2" = 1'-0"
140
1.5
141
12.0
290
     0
  0
SCALE
  5
66
102
{ACAD_REACTORS
330
47
102
}
330
47
100
AcDbScale
 70
     0
300
3" = 1'-0"
140
3.0
141
12.0
290
     0
  0
SCALE
  5
67
102
{ACAD_REACTORS
330
47
102
}
330
47
100
AcDbScale
 70
     0
300
6" = 1'-0"
140
6.0
141
12.0
290
     0
  0
SCALE
  5
68
102
{ACAD_REACTORS
330
47
102
}
330
47
100
AcDbScale
 70
     0
300
1'-0" = 1'-0"
140
12.0
141
12.0
290
     0
  0
ENDSEC
  0
EOF
