  0
SECTION
  2
HEADER
  9
$ACADVER
  1
AC1015
  9
$ACADMAINTVER
 70
     6
  9
$DWGCODEPAGE
  3
ANSI_1252
  9
$INSBASE
 10
0.0
 20
0.0
 30
0.0
  9
$EXTMIN
 10
-1506.6310885723
 20
-239.8872617678
 30
0.0
  9
$EXTMAX
 10
-63.6014170041
 20
264.2815614623
 30
0.0
  9
$LIMMIN
 10
0.0
 20
0.0
  9
$LIMMAX
 10
420.0
 20
297.0
  9
$ORTHOMODE
 70
     0
  9
$REGENMODE
 70
     1
  9
$FILLMODE
 70
     1
  9
$QTEXTMODE
 70
     0
  9
$MIRRTEXT
 70
     1
  9
$LTSCALE
 40
1.0
  9
$ATTMODE
 70
     1
  9
$TEXTSIZE
 40
3.5
  9
$TRACEWID
 40
1.0
  9
$TEXTSTYLE
  7
Standard
  9
$CLAYER
  8
0
  9
$CELTYPE
  6
ByLayer
  9
$CECOLOR
 62
   256
  9
$CELTSCALE
 40
1.0
  9
$DISPSILH
 70
     0
  9
$DIMSCALE
 40
1.0
  9
$DIMASZ
 40
3.302
  9
$DIMEXO
 40
0.0
  9
$DIMDLI
 40
3.75
  9
$DIMRND
 40
0.0
  9
$DIMDLE
 40
0.0
  9
$DIMEXE
 40
1.0
  9
$DIMTP
 40
0.0
  9
$DIMTM
 40
0.0
  9
$DIMTXT
 40
3.5
  9
$DIMCEN
 40
2.5
  9
$DIMTSZ
 40
0.0
  9
$DIMTOL
 70
     0
  9
$DIMLIM
 70
     0
  9
$DIMTIH
 70
     1
  9
$DIMTOH
 70
     1
  9
$DIMSE1
 70
     0
  9
$DIMSE2
 70
     0
  9
$DIMTAD
 70
     1
  9
$DIMZIN
 70
     1
  9
$DIMBLK
  1

  9
$DIMASO
 70
     1
  9
$DIMSHO
 70
     1
  9
$DIMPOST
  1

  9
$DIMAPOST
  1

  9
$DIMALT
 70
     0
  9
$DIMALTD
 70
     3
  9
$DIMALTF
 40
0.0393700787
  9
$DIMLFAC
 40
1.0
  9
$DIMTOFL
 70
     1
  9
$DIMTVP
 40
0.0
  9
$DIMTIX
 70
     0
  9
$DIMSOXD
 70
     0
  9
$DIMSAH
 70
     0
  9
$DIMBLK1
  1

  9
$DIMBLK2
  1

  9
$DIMSTYLE
  2
ISO-25
  9
$DIMCLRD
 70
     0
  9
$DIMCLRE
 70
     0
  9
$DIMCLRT
 70
     0
  9
$DIMTFAC
 40
1.0
  9
$DIMGAP
 40
1.524
  9
$DIMJUST
 70
     0
  9
$DIMSD1
 70
     0
  9
$DIMSD2
 70
     0
  9
$DIMTOLJ
 70
     0
  9
$DIMTZIN
 70
     1
  9
$DIMALTZ
 70
     0
  9
$DIMALTTZ
 70
     0
  9
$DIMUPT
 70
     0
  9
$DIMDEC
 70
     2
  9
$DIMTDEC
 70
     2
  9
$DIMALTU
 70
     2
  9
$DIMALTTD
 70
     3
  9
$DIMTXSTY
  7
Standard
  9
$DIMAUNIT
 70
     0
  9
$DIMADEC
 70
     2
  9
$DIMALTRND
 40
0.0
  9
$DIMAZIN
 70
     0
  9
$DIMDSEP
 70
    44
  9
$DIMATFIT
 70
     3
  9
$DIMFRAC
 70
     0
  9
$DIMLDRBLK
  1

  9
$DIMLUNIT
 70
     2
  9
$DIMLWD
 70
    -2
  9
$DIMLWE
 70
    -2
  9
$DIMTMOVE
 70
     0
  9
$LUNITS
 70
     2
  9
$LUPREC
 70
     6
  9
$SKETCHINC
 40
1.0
  9
$FILLETRAD
 40
0.0
  9
$AUNITS
 70
     0
  9
$AUPREC
 70
     2
  9
$MENU
  1
.
  9
$ELEVATION
 40
0.0
  9
$PELEVATION
 40
0.0
  9
$THICKNESS
 40
0.0
  9
$LIMCHECK
 70
     0
  9
$CHAMFERA
 40
0.0
  9
$CHAMFERB
 40
0.0
  9
$CHAMFERC
 40
0.0
  9
$CHAMFERD
 40
0.0
  9
$SKPOLY
 70
     0
  9
$TDCREATE
 40
2460094.564134422
  9
$TDUCREATE
 40
2460094.480801088
  9
$TDUPDATE
 40
2460094.564189572
  9
$TDUUPDATE
 40
2460094.480856239
  9
$TDINDWG
 40
0.0000000116
  9
$TDUSRTIMER
 40
0.0000000116
  9
$USRTIMER
 70
     1
  9
$ANGBASE
 50
0.0
  9
$ANGDIR
 70
     0
  9
$PDMODE
 70
     0
  9
$PDSIZE
 40
-1.0
  9
$PLINEWID
 40
0.0
  9
$SPLFRAME
 70
     0
  9
$SPLINETYPE
 70
     6
  9
$SPLINESEGS
 70
     8
  9
$HANDSEED
  5
238
  9
$SURFTAB1
 70
     6
  9
$SURFTAB2
 70
     6
  9
$SURFTYPE
 70
     6
  9
$SURFU
 70
     6
  9
$SURFV
 70
     6
  9
$UCSBASE
  2

  9
$UCSNAME
  2

  9
$UCSORG
 10
0.0
 20
0.0
 30
0.0
  9
$UCSXDIR
 10
1.0
 20
0.0
 30
0.0
  9
$UCSYDIR
 10
0.0
 20
1.0
 30
0.0
  9
$UCSORTHOREF
  2

  9
$UCSORTHOVIEW
 70
     0
  9
$UCSORGTOP
 10
0.0
 20
0.0
 30
0.0
  9
$UCSORGBOTTOM
 10
0.0
 20
0.0
 30
0.0
  9
$UCSORGLEFT
 10
0.0
 20
0.0
 30
0.0
  9
$UCSORGRIGHT
 10
0.0
 20
0.0
 30
0.0
  9
$UCSORGFRONT
 10
0.0
 20
0.0
 30
0.0
  9
$UCSORGBACK
 10
0.0
 20
0.0
 30
0.0
  9
$PUCSBASE
  2

  9
$PUCSNAME
  2

  9
$PUCSORG
 10
0.0
 20
0.0
 30
0.0
  9
$PUCSXDIR
 10
1.0
 20
0.0
 30
0.0
  9
$PUCSYDIR
 10
0.0
 20
1.0
 30
0.0
  9
$PUCSORTHOREF
  2

  9
$PUCSORTHOVIEW
 70
     0
  9
$PUCSORGTOP
 10
0.0
 20
0.0
 30
0.0
  9
$PUCSORGBOTTOM
 10
0.0
 20
0.0
 30
0.0
  9
$PUCSORGLEFT
 10
0.0
 20
0.0
 30
0.0
  9
$PUCSORGRIGHT
 10
0.0
 20
0.0
 30
0.0
  9
$PUCSORGFRONT
 10
0.0
 20
0.0
 30
0.0
  9
$PUCSORGBACK
 10
0.0
 20
0.0
 30
0.0
  9
$USERI1
 70
     0
  9
$USERI2
 70
     0
  9
$USERI3
 70
     0
  9
$USERI4
 70
     0
  9
$USERI5
 70
     0
  9
$USERR1
 40
0.0
  9
$USERR2
 40
0.0
  9
$USERR3
 40
0.0
  9
$USERR4
 40
0.0
  9
$USERR5
 40
0.0
  9
$WORLDVIEW
 70
     1
  9
$SHADEDGE
 70
     3
  9
$SHADEDIF
 70
    70
  9
$TILEMODE
 70
     1
  9
$MAXACTVP
 70
    64
  9
$PINSBASE
 10
0.0
 20
0.0
 30
0.0
  9
$PLIMCHECK
 70
     0
  9
$PEXTMIN
 10
1.0000000000E+20
 20
1.0000000000E+20
 30
1.0000000000E+20
  9
$PEXTMAX
 10
-1.0000000000E+20
 20
-1.0000000000E+20
 30
-1.0000000000E+20
  9
$PLIMMIN
 10
0.0
 20
0.0
  9
$PLIMMAX
 10
420.0
 20
297.0
  9
$UNITMODE
 70
     0
  9
$VISRETAIN
 70
     1
  9
$PLINEGEN
 70
     0
  9
$PSLTSCALE
 70
     1
  9
$TREEDEPTH
 70
  3020
  9
$CMLSTYLE
  2
Standard
  9
$CMLJUST
 70
     0
  9
$CMLSCALE
 40
20.0
  9
$PROXYGRAPHICS
 70
     1
  9
$MEASUREMENT
 70
     1
  9
$CELWEIGHT
370
    -1
  9
$ENDCAPS
280
     0
  9
$JOINSTYLE
280
     0
  9
$LWDISPLAY
290
     1
  9
$INSUNITS
 70
     4
  9
$HYPERLINKBASE
  1

  9
$STYLESHEET
  1

  9
$XEDIT
290
     1
  9
$CEPSNTYPE
380
     0
  9
$PSTYLEMODE
290
     1
  9
$FINGERPRINTGUID
  2
{047d4180-3f0c-40dc-adb3-531d64f86cf4}
  9
$VERSIONGUID
  2
{FAEB1C32-E019-11D5-929B-00C0DF256EC4}
  9
$EXTNAMES
290
     1
  9
$PSVPSCALE
 40
0.0
  9
$OLESTARTUP
290
     0
  0
ENDSEC
  0
SECTION
  2
CLASSES
  0
CLASS
  1
ACDBDICTIONARYWDFLT
  2
AcDbDictionaryWithDefault
  3
ObjectDBX Classes
 90
        0
280
     0
281
     0
  0
CLASS
  1
VISUALSTYLE
  2
AcDbVisualStyle
  3
ObjectDBX Classes
 90
     4095
280
     0
281
     0
  0
CLASS
  1
MATERIAL
  2
AcDbMaterial
  3
ObjectDBX Classes
 90
     1153
280
     0
281
     0
  0
CLASS
  1
SCALE
  2
AcDbScale
  3
ObjectDBX Classes
 90
     1153
280
     0
281
     0
  0
CLASS
  1
TABLESTYLE
  2
AcDbTableStyle
  3
ObjectDBX Classes
 90
     4095
280
     0
281
     0
  0
CLASS
  1
MLEADERSTYLE
  2
AcDbMLeaderStyle
  3
ACDB_MLEADERSTYLE_CLASS
 90
     4095
280
     0
281
     0
  0
CLASS
  1
SUN
  2
AcDbSun
  3
SCENEOE
 90
     1153
280
     0
281
     0
  0
CLASS
  1
ACDBPLACEHOLDER
  2
AcDbPlaceHolder
  3
ObjectDBX Classes
 90
        0
280
     0
281
     0
  0
CLASS
  1
LAYOUT
  2
AcDbLayout
  3
ObjectDBX Classes
 90
        0
280
     0
281
     0
  0
ENDSEC
  0
SECTION
  2
TABLES
  0
TABLE
  2
VPORT
  5
8
330
0
100
AcDbSymbolTable
 70
     1
  0
VPORT
  5
29
330
8
100
AcDbSymbolTableRecord
100
AcDbViewportTableRecord
  2
*Active
 70
     0
 10
0.0
 20
0.0
 11
1.0
 21
1.0
 12
-785.1162527882
 22
12.1971498472
 13
0.0
 23
0.0
 14
10.0
 24
10.0
 15
10.0
 25
10.0
 16
0.0
 26
0.0
 36
1.0
 17
0.0
 27
0.0
 37
0.0
 40
514.2521996947
 41
2.86219537
 42
50.0
 43
0.0
 44
0.0
 50
0.0
 51
0.0
 71
     0
 72
   100
 73
     1
 74
     3
 75
     0
 76
     0
 77
     0
 78
     0
281
     0
 65
     1
110
0.0
120
0.0
130
0.0
111
1.0
121
0.0
131
0.0
112
0.0
122
1.0
132
0.0
 79
     0
146
0.0
  0
ENDTAB
  0
TABLE
  2
LTYPE
  5
5
330
0
100
AcDbSymbolTable
 70
     6
  0
LTYPE
  5
14
330
5
100
AcDbSymbolTableRecord
100
AcDbLinetypeTableRecord
  2
ByBlock
 70
     0
  3

 72
    65
 73
     0
 40
0.0
  0
LTYPE
  5
15
330
5
100
AcDbSymbolTableRecord
100
AcDbLinetypeTableRecord
  2
ByLayer
 70
     0
  3

 72
    65
 73
     0
 40
0.0
  0
LTYPE
  5
16
330
5
100
AcDbSymbolTableRecord
100
AcDbLinetypeTableRecord
  2
Continuous
 70
     0
  3
Solid line
 72
    65
 73
     0
 40
0.0
  0
LTYPE
  5
5E
330
5
100
AcDbSymbolTableRecord
100
AcDbLinetypeTableRecord
  2
HIDDEN
 70
     0
  3
Hidden __ __ __ __ __ __ __ __ __ __ __ __ __ __
 72
    65
 73
     2
 40
1.905
 49
1.27
 74
     0
 49
-0.635
 74
     0
  0
LTYPE
  5
5F
330
5
100
AcDbSymbolTableRecord
100
AcDbLinetypeTableRecord
  2
PHANTOM
 70
     0
  3
Phantom ______  __  __  ______  __  __  ______
 72
    65
 73
     6
 40
12.7
 49
6.35
 74
     0
 49
-1.27
 74
     0
 49
1.27
 74
     0
 49
-1.27
 74
     0
 49
1.27
 74
     0
 49
-1.27
 74
     0
  0
LTYPE
  5
60
330
5
100
AcDbSymbolTableRecord
100
AcDbLinetypeTableRecord
  2
CENTER
 70
     0
  3
Center ____ _ ____ _ ____ _ ____ _ ____ _ ____
 72
    65
 73
     4
 40
10.16
 49
6.35
 74
     0
 49
-1.27
 74
     0
 49
1.27
 74
     0
 49
-1.27
 74
     0
  0
LTYPE
  5
61
330
5
100
AcDbSymbolTableRecord
100
AcDbLinetypeTableRecord
  2
CENTERX2
 70
     0
  3
Center (2x) ________  __  ________  __  _____
 72
    65
 73
     4
 40
20.32
 49
12.7
 74
     0
 49
-2.54
 74
     0
 49
2.54
 74
     0
 49
-2.54
 74
     0
  0
LTYPE
  5
62
330
5
100
AcDbSymbolTableRecord
100
AcDbLinetypeTableRecord
  2
DOT2
 70
     0
  3
Dot (.5x) ........................................
 72
    65
 73
     2
 40
0.635
 49
0.0
 74
     0
 49
-0.635
 74
     0
  0
ENDTAB
  0
TABLE
  2
LAYER
  5
2
330
0
100
AcDbSymbolTable
 70
     1
  0
LAYER
  5
10
330
2
100
AcDbSymbolTableRecord
100
AcDbLayerTableRecord
  2
0
 70
     0
 62
     7
  6
Continuous
370
    -3
390
F
  0
ENDTAB
  0
TABLE
  2
STYLE
  5
3
330
0
100
AcDbSymbolTable
 70
     1
  0
STYLE
  5
11
330
3
100
AcDbSymbolTableRecord
100
AcDbTextStyleTableRecord
  2
Standard
 70
     0
 40
0.0
 41
1.0
 50
0.0
 71
     0
 42
3.5
  3
txt
  4

  0
ENDTAB
  0
TABLE
  2
VIEW
  5
6
330
0
100
AcDbSymbolTable
 70
     0
  0
ENDTAB
  0
TABLE
  2
UCS
  5
7
330
0
100
AcDbSymbolTable
 70
     0
  0
ENDTAB
  0
TABLE
  2
APPID
  5
9
330
0
100
AcDbSymbolTable
 70
     1
  0
APPID
  5
12
330
9
100
AcDbSymbolTableRecord
100
AcDbRegAppTableRecord
  2
ACAD
 70
     0
  0
ENDTAB
  0
TABLE
  2
DIMSTYLE
  5
A
330
0
100
AcDbSymbolTable
 70
     1
100
AcDbDimStyleTable
  0
DIMSTYLE
105
27
330
A
100
AcDbSymbolTableRecord
100
AcDbDimStyleTableRecord
  2
ISO-25
 70
     0
 41
2.5
 42
0.625
 43
3.75
 44
1.25
 73
     0
 74
     0
 77
     1
 78
     8
140
2.5
141
2.5
143
0.0393700787
147
0.625
171
     3
172
     1
178
     0
271
     2
272
     2
274
     3
278
    44
283
     0
284
     8
340
11
  0
ENDTAB
  0
TABLE
  2
BLOCK_RECORD
  5
1
330
0
100
AcDbSymbolTable
 70
     1
  0
BLOCK_RECORD
  5
1F
330
1
100
AcDbSymbolTableRecord
100
AcDbBlockTableRecord
  2
*Model_Space
340
22
  0
BLOCK_RECORD
  5
1B
330
1
100
AcDbSymbolTableRecord
100
AcDbBlockTableRecord
  2
*Paper_Space
340
1E
  0
BLOCK_RECORD
  5
23
330
1
100
AcDbSymbolTableRecord
100
AcDbBlockTableRecord
  2
*Paper_Space0
340
26
  0
ENDTAB
  0
ENDSEC
  0
SECTION
  2
BLOCKS
  0
BLOCK
  5
20
330
1F
100
AcDbEntity
  8
0
100
AcDbBlockBegin
  2
*Model_Space
 70
     0
 10
0.0
 20
0.0
 30
0.0
  3
*Model_Space
  1

  0
ENDBLK
  5
21
330
1F
100
AcDbEntity
  8
0
100
AcDbBlockEnd
  0
BLOCK
  5
1C
330
1B
100
AcDbEntity
 67
     1
  8
0
100
AcDbBlockBegin
  2
*Paper_Space
 70
     0
 10
0.0
 20
0.0
 30
0.0
  3
*Paper_Space
  1

  0
ENDBLK
  5
1D
330
1B
100
AcDbEntity
 67
     1
  8
0
100
AcDbBlockEnd
  0
BLOCK
  5
24
330
23
100
AcDbEntity
  8
0
100
AcDbBlockBegin
  2
*Paper_Space0
 70
     0
 10
0.0
 20
0.0
 30
0.0
  3
*Paper_Space0
  1

  0
ENDBLK
  5
25
330
23
100
AcDbEntity
  8
0
100
AcDbBlockEnd
  0
ENDSEC
  0
SECTION
  2
ENTITIES
  0
CIRCLE
  5
8B
330
1F
100
AcDbEntity
  8
0
  6
Continuous
 62
     7
370
    25
100
AcDbCircle
 10
-217.5342952071
 20
-73.6002141386
 30
0.0
 40
2.250000000000045
  0
CIRCLE
  5
8C
330
1F
100
AcDbEntity
  8
0
  6
Continuous
 62
     7
370
    25
100
AcDbCircle
 10
-214.3849733327
 20
-39.7463846398
 30
0.0
 40
2.250000000000046
  0
CIRCLE
  5
8D
330
1F
100
AcDbEntity
  8
0
  6
Continuous
 62
     7
370
    25
100
AcDbCircle
 10
-1333.9760341846
 20
-149.0603842983
 30
0.0
 40
2.250000000001007
  0
CIRCLE
  5
8E
330
1F
100
AcDbEntity
  8
0
  6
Continuous
 62
     7
370
    25
100
AcDbCircle
 10
-1341.6522537054
 20
-115.9382519112
 30
0.0
 40
2.250000000000057
  0
LINE
  5
14F
330
1F
100
AcDbEntity
  8
0
  6
Continuous
 62
     7
370
    25
100
AcDbLine
 10
-268.9861294309
 20
245.3732230609
 30
0.0
 11
-265.9929586301
 21
245.5755311349
 31
0.0
  0
LINE
  5
150
330
1F
100
AcDbEntity
  8
0
  6
Continuous
 62
     7
370
    25
100
AcDbLine
 10
-268.7838213569
 20
242.38005226
 30
0.0
 11
-268.9861294309
 21
245.3732230609
 31
0.0
  0
LINE
  5
151
330
1F
100
AcDbEntity
  8
0
  6
Continuous
 62
     7
370
    25
100
AcDbLine
 10
-265.790650556
 20
242.582360334
 30
0.0
 11
-268.7838213569
 21
242.38005226
 31
0.0
  0
LINE
  5
152
330
1F
100
AcDbEntity
  8
0
  6
Continuous
 62
     7
370
    25
100
AcDbLine
 10
-265.9929586301
 20
245.5755311349
 30
0.0
 11
-265.790650556
 21
242.582360334
 31
0.0
  0
LINE
  5
153
330
1F
100
AcDbEntity
  8
0
  6
Continuous
 62
     7
370
    25
100
AcDbLine
 10
-263.0005686855
 20
245.7893920664
 30
0.0
 11
-260.0073978846
 21
245.9917001404
 31
0.0
  0
LINE
  5
154
330
1F
100
AcDbEntity
  8
0
  6
Continuous
 62
     7
370
    25
100
AcDbLine
 10
-262.7982606115
 20
242.7962212655
 30
0.0
 11
-263.0005686855
 21
245.7893920664
 31
0.0
  0
LINE
  5
155
330
1F
100
AcDbEntity
  8
0
  6
Continuous
 62
     7
370
    25
100
AcDbLine
 10
-259.8050898106
 20
242.9985293396
 30
0.0
 11
-262.7982606115
 21
242.7962212655
 31
0.0
  0
LINE
  5
156
330
1F
100
AcDbEntity
  8
0
  6
Continuous
 62
     7
370
    25
100
AcDbLine
 10
-260.0073978846
 20
245.9917001404
 30
0.0
 11
-259.8050898106
 21
242.9985293396
 31
0.0
  0
LINE
  5
157
330
1F
100
AcDbEntity
  8
0
  6
Continuous
 62
     7
370
    25
100
AcDbLine
 10
-1324.7472722139
 20
-211.290190782
 30
0.0
 11
-1329.7358902153
 21
-211.6273709053
 31
0.0
  0
LINE
  5
158
330
1F
100
AcDbEntity
  8
0
  6
Continuous
 62
     7
370
    25
100
AcDbLine
 10
-1330.1742243757
 20
-205.1421675034
 30
0.0
 11
-1325.1856063742
 21
-204.8049873801
 31
0.0
  0
LINE
  5
159
330
1F
100
AcDbEntity
  8
0
  6
Continuous
 62
     7
370
    25
100
AcDbLine
 10
-1160.1112302987
 20
-200.1624594337
 30
0.0
 11
-1165.0998483001
 21
-200.499639557
 31
0.0
  0
LINE
  5
15A
330
1F
100
AcDbEntity
  8
0
  6
Continuous
 62
     7
370
    25
100
AcDbLine
 10
-1165.5381824605
 20
-194.0144361551
 30
0.0
 11
-1160.549564459
 21
-193.6772560318
 31
0.0
  0
LINE
  5
15B
330
1F
100
AcDbEntity
  8
0
  6
Continuous
 62
     7
370
    25
100
AcDbLine
 10
-995.4751883835
 20
-189.0347280854
 30
0.0
 11
-1000.4638063849
 21
-189.3719082088
 31
0.0
  0
LINE
  5
15C
330
1F
100
AcDbEntity
  8
0
  6
Continuous
 62
     7
370
    25
100
AcDbLine
 10
-1000.9021405453
 20
-182.8867048069
 30
0.0
 11
-995.9135225438
 21
-182.5495246835
 31
0.0
  0
LINE
  5
15D
330
1F
100
AcDbEntity
  8
0
  6
Continuous
 62
     7
370
    25
100
AcDbLine
 10
-830.8391464683
 20
-177.9069967371
 30
0.0
 11
-835.8277644697
 21
-178.2441768605
 31
0.0
  0
LINE
  5
15E
330
1F
100
AcDbEntity
  8
0
  6
Continuous
 62
     7
370
    25
100
AcDbLine
 10
-836.26609863
 20
-171.7589734586
 30
0.0
 11
-831.2774806286
 21
-171.4217933352
 31
0.0
  0
LINE
  5
15F
330
1F
100
AcDbEntity
  8
0
  6
Continuous
 62
     7
370
    25
100
AcDbLine
 10
-666.2031045531
 20
-166.7792653889
 30
0.0
 11
-671.1917225545
 21
-167.1164455122
 31
0.0
  0
LINE
  5
160
330
1F
100
AcDbEntity
  8
0
  6
Continuous
 62
     7
370
    25
100
AcDbLine
 10
-671.6300567148
 20
-160.6312421103
 30
0.0
 11
-666.6414387134
 21
-160.294061987
 31
0.0
  0
LINE
  5
161
330
1F
100
AcDbEntity
  8
0
  6
Continuous
 62
     7
370
    25
100
AcDbLine
 10
-501.5670626378
 20
-155.6515340406
 30
0.0
 11
-506.5556806393
 21
-155.9887141639
 31
0.0
  0
LINE
  5
162
330
1F
100
AcDbEntity
  8
0
  6
Continuous
 62
     7
370
    25
100
AcDbLine
 10
-506.9940147996
 20
-149.503510762
 30
0.0
 11
-502.0053967982
 21
-149.1663306387
 31
0.0
  0
LINE
  5
163
330
1F
100
AcDbEntity
  8
0
  6
Continuous
 62
     7
370
    25
100
AcDbLine
 10
-336.9310207226
 20
-144.5238026923
 30
0.0
 11
-341.9196387241
 21
-144.8609828156
 31
0.0
  0
LINE
  5
164
330
1F
100
AcDbEntity
  8
0
  6
Continuous
 62
     7
370
    25
100
AcDbLine
 10
-342.3579728844
 20
-138.3757794137
 30
0.0
 11
-337.369354883
 21
-138.0385992904
 31
0.0
  0
LINE
  5
165
330
1F
100
AcDbEntity
  8
0
  6
Continuous
 62
     7
370
    25
100
AcDbLine
 10
-172.2949788074
 20
-133.396071344
 30
0.0
 11
-177.2835968089
 21
-133.7332514674
 31
0.0
  0
LINE
  5
166
330
1F
100
AcDbEntity
  8
0
  6
Continuous
 62
     7
370
    25
100
AcDbLine
 10
-177.7219309692
 20
-127.2480480655
 30
0.0
 11
-172.7333129678
 21
-126.9108679421
 31
0.0
  0
LINE
  5
167
330
1F
100
AcDbEntity
  8
0
  6
Continuous
 62
     7
370
    25
100
AcDbLine
 10
-165.6543160913
 20
140.1388343992
 30
0.0
 11
-249.4630985158
 21
134.4742083271
 31
0.0
  0
LINE
  5
168
330
1F
100
AcDbEntity
  8
0
  6
Continuous
 62
     7
370
    25
100
AcDbLine
 10
-164.8190980799
 20
172.2682976825
 30
0.0
 11
-162.8634533645
 21
143.334313274
 31
0.0
  0
LINE
  5
169
330
1F
100
AcDbEntity
  8
0
  6
Continuous
 62
     7
370
    25
100
AcDbLine
 10
-251.8233593792
 20
169.3945343373
 30
0.0
 11
-168.0145769547
 21
175.0591604094
 31
0.0
  0
LINE
  5
16A
330
1F
100
AcDbEntity
  8
0
  6
Continuous
 62
     7
370
    25
100
AcDbLine
 10
-252.6585773906
 20
137.2650710539
 30
0.0
 11
-254.614222106
 21
166.1990554624
 31
0.0
  0
LINE
  5
16B
330
1F
100
AcDbEntity
  8
0
  6
Continuous
 62
     7
370
    25
100
AcDbLine
 10
-352.0135869063
 20
-87.7265452925
 30
0.0
 11
-1158.3738006612
 21
-142.2283404294
 31
0.0
  0
LINE
  5
16C
330
1F
100
AcDbEntity
  8
0
  6
Continuous
 62
     7
370
    25
100
AcDbLine
 10
-323.2901751628
 20
107.1540735946
 30
0.0
 11
-313.1275662453
 21
-43.2028729692
 31
0.0
  0
LINE
  5
16D
330
1F
100
AcDbEntity
  8
0
  6
Continuous
 62
     7
370
    25
100
AcDbLine
 10
-1214.9493224373
 20
102.0124208866
 30
0.0
 11
-381.8739545355
 21
158.3198902538
 31
0.0
  0
LINE
  5
16E
330
1F
100
AcDbEntity
  8
0
  6
Continuous
 62
     7
370
    25
100
AcDbLine
 10
-1215.4798506955
 20
-100.5350846846
 30
0.0
 11
-1252.7122688011
 21
50.2896022683
 31
0.0
  0
LINE
  5
16F
330
1F
100
AcDbEntity
  8
0
  6
Continuous
 62
     7
370
    25
100
AcDbLine
 10
-1398.073841377
 20
-200.5404610194
 30
0.0
 11
-1397.5844167286
 21
-200.1473459713
 31
0.0
  0
LINE
  5
170
330
1F
100
AcDbEntity
  8
0
  6
Continuous
 62
     7
370
    25
100
AcDbLine
 10
-1399.4183831907
 20
-201.3827907662
 30
0.0
 11
-1399.5351119235
 21
-200.8791177631
 31
0.0
  0
LINE
  5
171
330
1F
100
AcDbEntity
  8
0
  6
Continuous
 62
     7
370
    25
100
AcDbLine
 10
-1399.955357755
 20
-201.5707326034
 30
0.0
 11
-1399.4183831907
 21
-201.3827907662
 31
0.0
  0
LINE
  5
172
330
1F
100
AcDbEntity
  8
0
  6
Continuous
 62
     7
370
    25
100
AcDbLine
 10
-1399.955357755
 20
-201.5707326034
 30
0.0
 11
-1416.0293337664
 21
-205.2959567826
 31
0.0
  0
LINE
  5
173
330
1F
100
AcDbEntity
  8
0
  6
Continuous
 62
     7
370
    25
100
AcDbLine
 10
-1416.5778351619
 20
-205.4341614764
 30
0.0
 11
-1416.0293337664
 21
-205.2959567826
 31
0.0
  0
LINE
  5
174
330
1F
100
AcDbEntity
  8
0
  6
Continuous
 62
     7
370
    25
100
AcDbLine
 10
-1416.6063549698
 20
-205.31110131
 30
0.0
 11
-1416.5778351619
 21
-205.4341614764
 31
0.0
  0
LINE
  5
175
330
1F
100
AcDbEntity
  8
0
  6
Continuous
 62
     7
370
    25
100
AcDbLine
 10
-1418.6979682433
 20
-205.4348254498
 30
0.0
 11
-1418.0676255163
 21
-205.6497580535
 31
0.0
  0
LINE
  5
176
330
1F
100
AcDbEntity
  8
0
  6
Continuous
 62
     7
370
    25
100
AcDbLine
 10
-1443.6994381105
 20
-195.0792313015
 30
0.0
 11
-1418.6979682433
 21
-205.4348254498
 31
0.0
  0
LINE
  5
177
330
1F
100
AcDbEntity
  8
0
  6
Continuous
 62
     7
370
    25
100
AcDbLine
 10
-1439.6453307288
 20
-174.8440753066
 30
0.0
 11
-1494.2096521034
 21
60.595605814
 31
0.0
  0
LINE
  5
178
330
1F
100
AcDbEntity
  8
0
  6
Continuous
 62
     7
370
    25
100
AcDbLine
 10
-1492.002935162
 20
110.8688983224
 30
0.0
 11
-1506.6310885723
 21
76.9195259841
 31
0.0
  0
LINE
  5
179
330
1F
100
AcDbEntity
  8
0
  6
Continuous
 62
     7
370
    25
100
AcDbLine
 10
-1491.6385676726
 20
111.8016227142
 30
0.0
 11
-1492.002935162
 21
110.8688983224
 31
0.0
  0
LINE
  5
17A
330
1F
100
AcDbEntity
  8
0
  6
Continuous
 62
     7
370
    25
100
AcDbLine
 10
-1490.4960079458
 20
113.5154853043
 30
0.0
 11
-1490.1772971261
 21
112.1402794578
 31
0.0
  0
LINE
  5
17B
330
1F
100
AcDbEntity
  8
0
  6
Continuous
 62
     7
370
    25
100
AcDbLine
 10
-1490.0393915757
 20
114.0501648471
 30
0.0
 11
-1490.4960079458
 21
113.5154853043
 31
0.0
  0
LINE
  5
17C
330
1F
100
AcDbEntity
  8
0
  6
Continuous
 62
     7
370
    25
100
AcDbLine
 10
-1490.0393915757
 20
114.0501648471
 30
0.0
 11
-1476.0916971814
 21
125.0781974155
 31
0.0
  0
LINE
  5
17D
330
1F
100
AcDbEntity
  8
0
  6
Continuous
 62
     7
370
    25
100
AcDbLine
 10
-1475.1313089718
 20
125.3110387093
 30
0.0
 11
-1475.7014183018
 21
125.2660701278
 31
0.0
  0
LINE
  5
17E
330
1F
100
AcDbEntity
  8
0
  6
Continuous
 62
     7
370
    25
100
AcDbLine
 10
-1474.9722448612
 20
124.6246927135
 30
0.0
 11
-1475.1313089718
 21
125.3110387093
 31
0.0
  0
LINE
  5
17F
330
1F
100
AcDbEntity
  8
0
  6
Continuous
 62
     7
370
    25
100
AcDbLine
 10
-1472.8730746394
 20
124.7158093649
 30
0.0
 11
-1473.5109743147
 21
124.963349457
 31
0.0
  0
LINE
  5
180
330
1F
100
AcDbEntity
  8
0
  6
Continuous
 62
     7
370
    25
100
AcDbLine
 10
-1472.299392081
 20
125.5912046328
 30
0.0
 11
-1472.2509286263
 21
125.5552878766
 31
0.0
  0
LINE
  5
181
330
1F
100
AcDbEntity
  8
0
  6
Continuous
 62
     7
370
    25
100
AcDbLine
 10
-1472.9538817567
 20
126.4800620816
 30
0.0
 11
-1472.299392081
 21
125.5912046328
 31
0.0
  0
LINE
  5
182
330
1F
100
AcDbEntity
  8
0
  6
Continuous
 62
     7
370
    25
100
AcDbLine
 10
-1473.6218584213
 20
127.9383360051
 30
0.0
 11
-1473.0550357938
 21
127.976647482
 31
0.0
  0
LINE
  5
183
330
1F
100
AcDbEntity
  8
0
  6
Continuous
 62
     7
370
    25
100
AcDbLine
 10
-1473.6487596972
 20
128.1370879404
 30
0.0
 11
-1473.6218584213
 21
127.9383360051
 31
0.0
  0
LINE
  5
184
330
1F
100
AcDbEntity
  8
0
  6
Continuous
 62
     7
370
    25
100
AcDbLine
 10
-1473.6829364603
 20
128.8673020788
 30
0.0
 11
-1473.6487596972
 21
128.1370879404
 31
0.0
  0
LINE
  5
185
330
1F
100
AcDbEntity
  8
0
  6
Continuous
 62
     7
370
    25
100
AcDbLine
 10
-1473.6829364603
 20
128.8673020788
 30
0.0
 11
-1473.669871419
 21
147.1154588951
 31
0.0
  0
LINE
  5
186
330
1F
100
AcDbEntity
  8
0
  6
Continuous
 62
     7
370
    25
100
AcDbLine
 10
-1473.7087135071
 20
147.3134037522
 30
0.0
 11
-1473.669871419
 21
147.1154588951
 31
0.0
  0
LINE
  5
187
330
1F
100
AcDbEntity
  8
0
  6
Continuous
 62
     7
370
    25
100
AcDbLine
 10
-1473.6697278108
 20
147.316038791
 30
0.0
 11
-1473.7087135071
 21
147.3134037522
 31
0.0
  0
LINE
  5
188
330
1F
100
AcDbEntity
  8
0
  6
Continuous
 62
     7
370
    25
100
AcDbLine
 10
-1474.0146407646
 20
148.796148554
 30
0.0
 11
-1473.7708818478
 21
148.8126241914
 31
0.0
  0
LINE
  5
189
330
1F
100
AcDbEntity
  8
0
  6
Continuous
 62
     7
370
    25
100
AcDbLine
 10
-1473.8577616064
 20
149.0073221879
 30
0.0
 11
-1474.0146407646
 21
148.796148554
 31
0.0
  0
LINE
  5
18A
330
1F
100
AcDbEntity
  8
0
  6
Continuous
 62
     7
370
    25
100
AcDbLine
 10
-1447.9215352958
 20
178.144828266
 30
0.0
 11
-1473.8577616064
 21
149.0073221879
 31
0.0
  0
LINE
  5
18B
330
1F
100
AcDbEntity
  8
0
  6
Continuous
 62
     7
370
    25
100
AcDbLine
 10
-1428.689276829
 20
171.0097512359
 30
0.0
 11
-169.466319561
 21
256.1204877008
 31
0.0
  0
LINE
  5
18C
330
1F
100
AcDbEntity
  8
0
  6
Continuous
 62
     7
370
    25
100
AcDbLine
 10
-129.0907376825
 20
239.8999723887
 30
0.0
 11
-152.622138399
 21
264.2815614623
 31
0.0
  0
LINE
  5
18D
330
1F
100
AcDbEntity
  8
0
  6
Continuous
 62
     7
370
    25
100
AcDbLine
 10
-128.9364298004
 20
239.7098318515
 30
0.0
 11
-129.0907376825
 21
239.8999723887
 31
0.0
  0
LINE
  5
18E
330
1F
100
AcDbEntity
  8
0
  6
Continuous
 62
     7
370
    25
100
AcDbLine
 10
-129.2925461481
 20
239.685761988
 30
0.0
 11
-128.9364298004
 21
239.7098318515
 31
0.0
  0
LINE
  5
18F
330
1F
100
AcDbEntity
  8
0
  6
Continuous
 62
     7
370
    25
100
AcDbLine
 10
-129.1479129618
 20
238.1921153383
 30
0.0
 11
-129.1913921111
 21
238.1891765876
 31
0.0
  0
LINE
  5
190
330
1F
100
AcDbEntity
  8
0
  6
Continuous
 62
     7
370
    25
100
AcDbLine
 10
-129.1775536807
 20
237.9895417361
 30
0.0
 11
-129.1479129618
 21
238.1921153383
 31
0.0
  0
LINE
  5
191
330
1F
100
AcDbEntity
  8
0
  6
Continuous
 62
     7
370
    25
100
AcDbLine
 10
-129.1775536807
 20
237.9895417361
 30
0.0
 11
-127.9185748285
 21
219.8273622219
 31
0.0
  0
LINE
  5
192
330
1F
100
AcDbEntity
  8
0
  6
Continuous
 62
     7
370
    25
100
AcDbLine
 10
-127.868908148
 20
219.0981950452
 30
0.0
 11
-127.9185748285
 21
219.8273622219
 31
0.0
  0
LINE
  5
193
330
1F
100
AcDbEntity
  8
0
  6
Continuous
 62
     7
370
    25
100
AcDbLine
 10
-127.8736405686
 20
218.897304992
 30
0.0
 11
-127.868908148
 21
219.0981950452
 31
0.0
  0
LINE
  5
194
330
1F
100
AcDbEntity
  8
0
  6
Continuous
 62
     7
370
    25
100
AcDbLine
 10
-128.3297231963
 20
218.866478419
 30
0.0
 11
-127.8736405686
 21
218.897304992
 31
0.0
  0
LINE
  5
195
330
1F
100
AcDbEntity
  8
0
  6
Continuous
 62
     7
370
    25
100
AcDbLine
 10
-128.693272583
 20
216.4053894355
 30
0.0
 11
-128.2285691593
 21
217.3698930186
 31
0.0
  0
LINE
  5
196
330
1F
100
AcDbEntity
  8
0
  6
Continuous
 62
     7
370
    25
100
AcDbLine
 10
-128.7274859681
 20
216.3663764231
 30
0.0
 11
-128.693272583
 21
216.4053894355
 31
0.0
  0
LINE
  5
197
330
1F
100
AcDbEntity
  8
0
  6
Continuous
 62
     7
370
    25
100
AcDbLine
 10
-127.3928881051
 20
216.0295452448
 30
0.0
 11
-127.9369334748
 21
215.6730826921
 31
0.0
  0
LINE
  5
198
330
1F
100
AcDbEntity
  8
0
  6
Continuous
 62
     7
370
    25
100
AcDbLine
 10
-125.9345089151
 20
216.7325610519
 30
0.0
 11
-125.8959032478
 21
216.1246048945
 31
0.0
  0
LINE
  5
199
330
1F
100
AcDbEntity
  8
0
  6
Continuous
 62
     7
370
    25
100
AcDbLine
 10
-125.3747700156
 20
216.8418842925
 30
0.0
 11
-125.9345089151
 21
216.7325610519
 31
0.0
  0
LINE
  5
19A
330
1F
100
AcDbEntity
  8
0
  6
Continuous
 62
     7
370
    25
100
AcDbLine
 10
-124.9470636416
 20
216.775162264
 30
0.0
 11
-108.4268865084
 21
210.3120372289
 31
0.0
  0
LINE
  5
19B
330
1F
100
AcDbEntity
  8
0
  6
Continuous
 62
     7
370
    25
100
AcDbLine
 10
-107.8365940635
 20
209.9402078983
 30
0.0
 11
-108.4268865084
 21
210.3120372289
 31
0.0
  0
LINE
  5
19C
330
1F
100
AcDbEntity
  8
0
  6
Continuous
 62
     7
370
    25
100
AcDbLine
 10
-107.7519373067
 20
208.6070462106
 30
0.0
 11
-107.8365940635
 21
209.9402078983
 31
0.0
  0
LINE
  5
19D
330
1F
100
AcDbEntity
  8
0
  6
Continuous
 62
     7
370
    25
100
AcDbLine
 10
-105.643012161
 20
207.9893695923
 30
0.0
 11
-106.2549524494
 21
208.7021058602
 31
0.0
  0
LINE
  5
19E
330
1F
100
AcDbEntity
  8
0
  6
Continuous
 62
     7
370
    25
100
AcDbLine
 10
-83.6231195029
 20
184.7989068645
 30
0.0
 11
-105.643012161
 21
207.9893695923
 31
0.0
  0
LINE
  5
19F
330
1F
100
AcDbEntity
  8
0
  6
Continuous
 62
     7
370
    25
100
AcDbLine
 10
-89.515140716
 20
167.0342498281
 30
0.0
 11
-74.3952503959
 21
-71.0714759013
 31
0.0
  0
LINE
  5
1A0
330
1F
100
AcDbEntity
  8
0
  6
Continuous
 62
     7
370
    25
100
AcDbLine
 10
-85.3352651426
 20
-111.8139318447
 30
0.0
 11
-63.6014170041
 21
-90.0932177158
 31
0.0
  0
LINE
  5
1A1
330
1F
100
AcDbEntity
  8
0
  6
Continuous
 62
     7
370
    25
100
AcDbLine
 10
-85.8722084932
 20
-112.2822359115
 30
0.0
 11
-85.3352651426
 21
-111.8139318447
 31
0.0
  0
LINE
  5
1A2
330
1F
100
AcDbEntity
  8
0
  6
Continuous
 62
     7
370
    25
100
AcDbLine
 10
-87.3544918602
 20
-112.6088123877
 30
0.0
 11
-87.3691933505
 21
-112.3772955611
 31
0.0
  0
LINE
  5
1A3
330
1F
100
AcDbEntity
  8
0
  6
Continuous
 62
     7
370
    25
100
AcDbLine
 10
-87.9188167419
 20
-112.6459162793
 30
0.0
 11
-87.3544918602
 21
-112.6088123877
 31
0.0
  0
LINE
  5
1A4
330
1F
100
AcDbEntity
  8
0
  6
Continuous
 62
     7
370
    25
100
AcDbLine
 10
-87.9188167419
 20
-112.6459162793
 30
0.0
 11
-104.3856501723
 21
-113.6915724248
 31
0.0
  0
LINE
  5
1A5
330
1F
100
AcDbEntity
  8
0
  6
Continuous
 62
     7
370
    25
100
AcDbLine
 10
-104.9547675887
 20
-113.6532042124
 30
0.0
 11
-104.3856501723
 21
-113.6915724248
 31
0.0
  0
LINE
  5
1A6
330
1F
100
AcDbEntity
  8
0
  6
Continuous
 62
     7
370
    25
100
AcDbLine
 10
-104.9924113954
 20
-113.060395289
 30
0.0
 11
-104.9547675887
 21
-113.6532042124
 31
0.0
  0
LINE
  5
1A7
330
1F
100
AcDbEntity
  8
0
  6
Continuous
 62
     7
370
    25
100
AcDbLine
 10
-107.0745608817
 20
-112.8643776704
 30
0.0
 11
-106.4893962527
 21
-113.1554549386
 31
0.0
  0
LINE
  5
1A8
330
1F
100
AcDbEntity
  8
0
  6
Continuous
 62
     7
370
    25
100
AcDbLine
 10
-107.3778258432
 20
-114.1589833902
 30
0.0
 11
-107.733905515
 21
-113.6162185142
 31
0.0
  0
LINE
  5
1A9
330
1F
100
AcDbEntity
  8
0
  6
Continuous
 62
     7
370
    25
100
AcDbLine
 10
-106.6737743218
 20
-115.6148190183
 30
0.0
 11
-107.2766718062
 21
-115.6555687906
 31
0.0
  0
LINE
  5
1AA
330
1F
100
AcDbEntity
  8
0
  6
Continuous
 62
     7
370
    25
100
AcDbLine
 10
-106.5628062088
 20
-116.1741509566
 30
0.0
 11
-106.6737743218
 21
-115.6148190183
 31
0.0
  0
LINE
  5
1AB
330
1F
100
AcDbEntity
  8
0
  6
Continuous
 62
     7
370
    25
100
AcDbLine
 10
-106.5628062088
 20
-116.1741509566
 30
0.0
 11
-105.4501118017
 21
-132.6365903614
 31
0.0
  0
LINE
  5
1AC
330
1F
100
AcDbEntity
  8
0
  6
Continuous
 62
     7
370
    25
100
AcDbLine
 10
-105.4643729614
 20
-133.204386532
 30
0.0
 11
-105.4501118017
 21
-132.6365903614
 31
0.0
  0
LINE
  5
1AD
330
1F
100
AcDbEntity
  8
0
  6
Continuous
 62
     7
370
    25
100
AcDbLine
 10
-106.118657001
 20
-133.2486095159
 30
0.0
 11
-105.4643729614
 21
-133.204386532
 31
0.0
  0
LINE
  5
1AE
330
1F
100
AcDbEntity
  8
0
  6
Continuous
 62
     7
370
    25
100
AcDbLine
 10
-106.6408864931
 20
-135.3541615986
 30
0.0
 11
-106.0175029641
 21
-134.7451949163
 31
0.0
  0
LINE
  5
1AF
330
1F
100
AcDbEntity
  8
0
  6
Continuous
 62
     7
370
    25
100
AcDbLine
 10
-127.9495356842
 20
-156.9996227957
 30
0.0
 11
-106.6408864931
 21
-135.3541615986
 31
0.0
  0
LINE
  5
1B0
330
1F
100
AcDbEntity
  8
0
  6
Continuous
 62
     7
370
    25
100
AcDbLine
 10
-142.765177658
 20
-153.3311630296
 30
0.0
 11
-158.5842748128
 21
-154.4003740071
 31
0.0
  0
LINE
  5
1B1
330
1F
100
AcDbEntity
  8
0
  6
Continuous
 62
     7
370
    25
100
AcDbLine
 10
-165.3429616439
 20
-148.915303938
 30
0.0
 11
-160.9494436228
 21
-153.4861532866
 31
0.0
  0
LINE
  5
1B2
330
1F
100
AcDbEntity
  8
0
  6
Continuous
 62
     7
370
    25
100
AcDbLine
 10
-179.882507525
 20
-148.8239479791
 30
0.0
 11
-167.7081304539
 21
-148.0010832175
 31
0.0
  0
LINE
  5
1B3
330
1F
100
AcDbEntity
  8
0
  6
Continuous
 62
     7
370
    25
100
AcDbLine
 10
-185.8416239121
 20
-155.1686129212
 30
0.0
 11
-182.1031424336
 21
-150.0481226513
 31
0.0
  0
LINE
  5
1B4
330
1F
100
AcDbEntity
  8
0
  6
Continuous
 62
     7
370
    25
100
AcDbLine
 10
-188.0622588207
 20
-156.3927875935
 30
0.0
 11
-323.2189521111
 21
-165.5280131211
 31
0.0
  0
LINE
  5
1B5
330
1F
100
AcDbEntity
  8
0
  6
Continuous
 62
     7
370
    25
100
AcDbLine
 10
-329.9776389421
 20
-160.0429430519
 30
0.0
 11
-325.5841209211
 21
-164.6137924005
 31
0.0
  0
LINE
  5
1B6
330
1F
100
AcDbEntity
  8
0
  6
Continuous
 62
     7
370
    25
100
AcDbLine
 10
-344.5171848233
 20
-159.951587093
 30
0.0
 11
-332.3428077521
 21
-159.1287223314
 31
0.0
  0
LINE
  5
1B7
330
1F
100
AcDbEntity
  8
0
  6
Continuous
 62
     7
370
    25
100
AcDbLine
 10
-350.4763012103
 20
-166.2962520352
 30
0.0
 11
-346.7378197319
 21
-161.1757617653
 31
0.0
  0
LINE
  5
1B8
330
1F
100
AcDbEntity
  8
0
  6
Continuous
 62
     7
370
    25
100
AcDbLine
 10
-352.696936119
 20
-167.5204267075
 30
0.0
 11
-487.8536294093
 21
-176.655652235
 31
0.0
  0
LINE
  5
1B9
330
1F
100
AcDbEntity
  8
0
  6
Continuous
 62
     7
370
    25
100
AcDbLine
 10
-494.6123162404
 20
-171.1705821659
 30
0.0
 11
-490.2187982193
 21
-175.7414315145
 31
0.0
  0
LINE
  5
1BA
330
1F
100
AcDbEntity
  8
0
  6
Continuous
 62
     7
370
    25
100
AcDbLine
 10
-509.1518621215
 20
-171.079226207
 30
0.0
 11
-496.9774850504
 21
-170.2563614454
 31
0.0
  0
LINE
  5
1BB
330
1F
100
AcDbEntity
  8
0
  6
Continuous
 62
     7
370
    25
100
AcDbLine
 10
-515.1109785086
 20
-177.4238911492
 30
0.0
 11
-511.3724970301
 21
-172.3034008793
 31
0.0
  0
LINE
  5
1BC
330
1F
100
AcDbEntity
  8
0
  6
Continuous
 62
     7
370
    25
100
AcDbLine
 10
-517.3316134172
 20
-178.6480658215
 30
0.0
 11
-652.4883067076
 21
-187.783291349
 31
0.0
  0
LINE
  5
1BD
330
1F
100
AcDbEntity
  8
0
  6
Continuous
 62
     7
370
    25
100
AcDbLine
 10
-659.2469935386
 20
-182.2982212799
 30
0.0
 11
-654.8534755176
 21
-186.8690706285
 31
0.0
  0
LINE
  5
1BE
330
1F
100
AcDbEntity
  8
0
  6
Continuous
 62
     7
370
    25
100
AcDbLine
 10
-673.7865394198
 20
-182.206865321
 30
0.0
 11
-661.6121623486
 21
-181.3840005594
 31
0.0
  0
LINE
  5
1BF
330
1F
100
AcDbEntity
  8
0
  6
Continuous
 62
     7
370
    25
100
AcDbLine
 10
-679.7456558068
 20
-188.5515302632
 30
0.0
 11
-676.0071743284
 21
-183.4310399933
 31
0.0
  0
LINE
  5
1C0
330
1F
100
AcDbEntity
  8
0
  6
Continuous
 62
     7
370
    25
100
AcDbLine
 10
-681.9662907155
 20
-189.7757049354
 30
0.0
 11
-817.1229840058
 21
-198.910930463
 31
0.0
  0
LINE
  5
1C1
330
1F
100
AcDbEntity
  8
0
  6
Continuous
 62
     7
370
    25
100
AcDbLine
 10
-823.8816708369
 20
-193.4258603939
 30
0.0
 11
-819.4881528158
 21
-197.9967097425
 31
0.0
  0
LINE
  5
1C2
330
1F
100
AcDbEntity
  8
0
  6
Continuous
 62
     7
370
    25
100
AcDbLine
 10
-838.421216718
 20
-193.334504435
 30
0.0
 11
-826.2468396469
 21
-192.5116396734
 31
0.0
  0
LINE
  5
1C3
330
1F
100
AcDbEntity
  8
0
  6
Continuous
 62
     7
370
    25
100
AcDbLine
 10
-844.3803331051
 20
-199.6791693771
 30
0.0
 11
-840.6418516266
 21
-194.5586791072
 31
0.0
  0
LINE
  5
1C4
330
1F
100
AcDbEntity
  8
0
  6
Continuous
 62
     7
370
    25
100
AcDbLine
 10
-846.6009680137
 20
-200.9033440494
 30
0.0
 11
-981.7576613041
 21
-210.038569577
 31
0.0
  0
LINE
  5
1C5
330
1F
100
AcDbEntity
  8
0
  6
Continuous
 62
     7
370
    25
100
AcDbLine
 10
-988.5163481351
 20
-204.5534995078
 30
0.0
 11
-984.1228301141
 21
-209.1243488564
 31
0.0
  0
LINE
  5
1C6
330
1F
100
AcDbEntity
  8
0
  6
Continuous
 62
     7
370
    25
100
AcDbLine
 10
-1003.0558940163
 20
-204.4621435489
 30
0.0
 11
-990.8815169451
 21
-203.6392787873
 31
0.0
  0
LINE
  5
1C7
330
1F
100
AcDbEntity
  8
0
  6
Continuous
 62
     7
370
    25
100
AcDbLine
 10
-1009.0150104033
 20
-210.8068084911
 30
0.0
 11
-1005.2765289249
 21
-205.6863182212
 31
0.0
  0
LINE
  5
1C8
330
1F
100
AcDbEntity
  8
0
  6
Continuous
 62
     7
370
    25
100
AcDbLine
 10
-1011.235645312
 20
-212.0309831634
 30
0.0
 11
-1146.3923386023
 21
-221.1662086909
 31
0.0
  0
LINE
  5
1C9
330
1F
100
AcDbEntity
  8
0
  6
Continuous
 62
     7
370
    25
100
AcDbLine
 10
-1153.1510254334
 20
-215.6811386218
 30
0.0
 11
-1148.7575074123
 21
-220.2519879704
 31
0.0
  0
LINE
  5
1CA
330
1F
100
AcDbEntity
  8
0
  6
Continuous
 62
     7
370
    25
100
AcDbLine
 10
-1167.6905713145
 20
-215.5897826629
 30
0.0
 11
-1155.5161942434
 21
-214.7669179013
 31
0.0
  0
LINE
  5
1CB
330
1F
100
AcDbEntity
  8
0
  6
Continuous
 62
     7
370
    25
100
AcDbLine
 10
-1173.6496877016
 20
-221.9344476051
 30
0.0
 11
-1169.9112062231
 21
-216.8139573352
 31
0.0
  0
LINE
  5
1CC
330
1F
100
AcDbEntity
  8
0
  6
Continuous
 62
     7
370
    25
100
AcDbLine
 10
-1175.8703226102
 20
-223.1586222774
 30
0.0
 11
-1311.0270159006
 21
-232.2938478049
 31
0.0
  0
LINE
  5
1CD
330
1F
100
AcDbEntity
  8
0
  6
Continuous
 62
     7
370
    25
100
AcDbLine
 10
-1317.7857027316
 20
-226.8087777358
 30
0.0
 11
-1313.3921847106
 21
-231.3796270844
 31
0.0
  0
LINE
  5
1CE
330
1F
100
AcDbEntity
  8
0
  6
Continuous
 62
     7
370
    25
100
AcDbLine
 10
-1332.3252486128
 20
-226.7174217769
 30
0.0
 11
-1320.1508715416
 21
-225.8945570153
 31
0.0
  0
LINE
  5
1CF
330
1F
100
AcDbEntity
  8
0
  6
Continuous
 62
     7
370
    25
100
AcDbLine
 10
-1338.2843649998
 20
-233.0620867191
 30
0.0
 11
-1334.5458835214
 21
-227.9415964492
 31
0.0
  0
LINE
  5
1D0
330
1F
100
AcDbEntity
  8
0
  6
Continuous
 62
     7
370
    25
100
AcDbLine
 10
-1340.5049999085
 20
-234.2862613913
 30
0.0
 11
-1362.5437038714
 21
-235.7758548856
 31
0.0
  0
LINE
  5
1D1
330
1F
100
AcDbEntity
  8
0
  6
Continuous
 62
     7
370
    25
100
AcDbLine
 10
-1394.8652554125
 20
-222.4251001785
 30
0.0
 11
-1374.6795606746
 21
-239.8872617678
 31
0.0
  0
LINE
  5
1D2
330
1F
100
AcDbEntity
  8
0
  6
Continuous
 62
     7
370
    25
100
AcDbLine
 10
-1395.4982398205
 20
-221.9010512622
 30
0.0
 11
-1394.8652554125
 21
-222.4251001785
 31
0.0
  0
LINE
  5
1D3
330
1F
100
AcDbEntity
  8
0
  6
Continuous
 62
     7
370
    25
100
AcDbLine
 10
-1396.2476339724
 20
-220.4482803374
 30
0.0
 11
-1395.5993938582
 21
-220.4044658618
 31
0.0
  0
LINE
  5
1D4
330
1F
100
AcDbEntity
  8
0
  6
Continuous
 62
     7
370
    25
100
AcDbLine
 10
-1396.3402844493
 20
-219.8877103121
 30
0.0
 11
-1396.2476339724
 21
-220.4482803374
 31
0.0
  0
LINE
  5
1D5
330
1F
100
AcDbEntity
  8
0
  6
Continuous
 62
     7
370
    25
100
AcDbLine
 10
-1396.3402844493
 20
-219.8877103121
 30
0.0
 11
-1397.4529788564
 21
-203.4252709073
 31
0.0
  0
LINE
  5
1D6
330
1F
100
AcDbEntity
  8
0
  6
Continuous
 62
     7
370
    25
100
AcDbLine
 10
-1397.4149980128
 20
-202.8558715259
 30
0.0
 11
-1397.4529788564
 21
-203.4252709073
 31
0.0
  0
LINE
  5
1D7
330
1F
100
AcDbEntity
  8
0
  6
Continuous
 62
     7
370
    25
100
AcDbLine
 10
-1396.9113796279
 20
-202.8218320166
 30
0.0
 11
-1397.4149980128
 21
-202.8558715259
 31
0.0
  0
LINE
  5
1D8
330
1F
100
AcDbEntity
  8
0
  6
Continuous
 62
     7
370
    25
100
AcDbLine
 10
-1396.7810014972
 20
-200.7427651228
 30
0.0
 11
-1397.0125336649
 21
-201.3252466162
 31
0.0
  0
LINE
  5
1D9
330
1F
100
AcDbEntity
  8
0
  6
Continuous
 62
     7
370
    25
100
AcDbLine
 10
-1332.822142351
 20
61.2500937693
 30
0.0
 11
-1416.6309247755
 21
55.5854676972
 31
0.0
  0
LINE
  5
1DA
330
1F
100
AcDbEntity
  8
0
  6
Continuous
 62
     7
370
    25
100
AcDbLine
 10
-1331.9869243396
 20
93.3795570527
 30
0.0
 11
-1330.0312796242
 21
64.4455726442
 31
0.0
  0
LINE
  5
1DB
330
1F
100
AcDbEntity
  8
0
  6
Continuous
 62
     7
370
    25
100
AcDbLine
 10
-1418.9911856389
 20
90.5057937074
 30
0.0
 11
-1335.1824032144
 21
96.1704197795
 31
0.0
  0
LINE
  5
1DC
330
1F
100
AcDbEntity
  8
0
  6
Continuous
 62
     7
370
    25
100
AcDbLine
 10
-1419.8264036504
 20
58.3763304241
 30
0.0
 11
-1421.7820483657
 21
87.3103148325
 31
0.0
  0
ARC
  5
1DD
330
1F
100
AcDbEntity
  8
0
  6
Continuous
 62
     7
370
    25
100
AcDbCircle
 10
-1324.9664392941
 20
-208.047589081
 30
0.0
 40
3.250000000000099
100
AcDbArc
 50
273.8667341236
 51
93.8667341236
  0
ARC
  5
1DE
330
1F
100
AcDbEntity
  8
0
  6
Continuous
 62
     7
370
    25
100
AcDbCircle
 10
-1329.9550572955
 20
-208.3847692044
 30
0.0
 40
3.250000000000073
100
AcDbArc
 50
93.8667341234
 51
273.8667341236
  0
ARC
  5
1DF
330
1F
100
AcDbEntity
  8
0
  6
Continuous
 62
     7
370
    25
100
AcDbCircle
 10
-1160.3303973789
 20
-196.9198577328
 30
0.0
 40
3.250000000000256
100
AcDbArc
 50
273.8667341236
 51
93.8667341236
  0
ARC
  5
1E0
330
1F
100
AcDbEntity
  8
0
  6
Continuous
 62
     7
370
    25
100
AcDbCircle
 10
-1165.3190153803
 20
-197.2570378561
 30
0.0
 40
3.25000000000016
100
AcDbArc
 50
93.8667341233
 51
273.8667341236
  0
ARC
  5
1E1
330
1F
100
AcDbEntity
  8
0
  6
Continuous
 62
     7
370
    25
100
AcDbCircle
 10
-995.6943554636
 20
-185.7921263845
 30
0.0
 40
3.250000000000192
100
AcDbArc
 50
273.8667341236
 51
93.8667341236
  0
ARC
  5
1E2
330
1F
100
AcDbEntity
  8
0
  6
Continuous
 62
     7
370
    25
100
AcDbCircle
 10
-1000.6829734651
 20
-186.1293065078
 30
0.0
 40
3.250000000000277
100
AcDbArc
 50
93.8667341233
 51
273.8667341236
  0
ARC
  5
1E3
330
1F
100
AcDbEntity
  8
0
  6
Continuous
 62
     7
370
    25
100
AcDbCircle
 10
-831.0583135484
 20
-174.6643950362
 30
0.0
 40
3.250000000000099
100
AcDbArc
 50
273.8667341236
 51
93.8667341236
  0
ARC
  5
1E4
330
1F
100
AcDbEntity
  8
0
  6
Continuous
 62
     7
370
    25
100
AcDbCircle
 10
-836.0469315499
 20
-175.0015751595
 30
0.0
 40
3.250000000000294
100
AcDbArc
 50
93.8667341233
 51
273.8667341236
  0
ARC
  5
1E5
330
1F
100
AcDbEntity
  8
0
  6
Continuous
 62
     7
370
    25
100
AcDbCircle
 10
-666.4222716332
 20
-163.5366636879
 30
0.0
 40
3.250000000000037
100
AcDbArc
 50
273.8667341236
 51
93.8667341236
  0
ARC
  5
1E6
330
1F
100
AcDbEntity
  8
0
  6
Continuous
 62
     7
370
    25
100
AcDbCircle
 10
-671.4108896347
 20
-163.8738438113
 30
0.0
 40
3.250000000000161
100
AcDbArc
 50
93.8667341234
 51
273.8667341236
  0
ARC
  5
1E7
330
1F
100
AcDbEntity
  8
0
  6
Continuous
 62
     7
370
    25
100
AcDbCircle
 10
-501.786229718
 20
-152.4089323396
 30
0.0
 40
3.250000000000262
100
AcDbArc
 50
273.8667341236
 51
93.8667341236
  0
ARC
  5
1E8
330
1F
100
AcDbEntity
  8
0
  6
Continuous
 62
     7
370
    25
100
AcDbCircle
 10
-506.7748477195
 20
-152.746112463
 30
0.0
 40
3.250000000000162
100
AcDbArc
 50
93.8667341233
 51
273.8667341236
  0
ARC
  5
1E9
330
1F
100
AcDbEntity
  8
0
  6
Continuous
 62
     7
370
    25
100
AcDbCircle
 10
-337.1501878028
 20
-141.2812009914
 30
0.0
 40
3.250000000000028
100
AcDbArc
 50
273.8667341236
 51
93.8667341236
  0
ARC
  5
1EA
330
1F
100
AcDbEntity
  8
0
  6
Continuous
 62
     7
370
    25
100
AcDbCircle
 10
-342.1388058043
 20
-141.6183811147
 30
0.0
 40
3.250000000000202
100
AcDbArc
 50
93.8667341233
 51
273.8667341236
  0
ARC
  5
1EB
330
1F
100
AcDbEntity
  8
0
  6
Continuous
 62
     7
370
    25
100
AcDbCircle
 10
-172.5141458876
 20
-130.1534696431
 30
0.0
 40
3.249999999999974
100
AcDbArc
 50
273.8667341236
 51
93.8667341236
  0
ARC
  5
1EC
330
1F
100
AcDbEntity
  8
0
  6
Continuous
 62
     7
370
    25
100
AcDbCircle
 10
-177.502763889
 20
-130.4906497664
 30
0.0
 40
3.250000000000187
100
AcDbArc
 50
93.8667341233
 51
273.8667341236
  0
ARC
  5
1ED
330
1F
100
AcDbEntity
  8
0
  6
Continuous
 62
     7
370
    25
100
AcDbCircle
 10
-165.8566241653
 20
143.1320052
 30
0.0
 40
2.99999999998397
100
AcDbArc
 50
273.8667341237
 51
3.8667341236
  0
ARC
  5
1EE
330
1F
100
AcDbEntity
  8
0
  6
Continuous
 62
     7
370
    25
100
AcDbCircle
 10
-167.8122688807
 20
172.0659896085
 30
0.0
 40
2.999999999974419
100
AcDbArc
 50
3.8667341235
 51
93.8667341236
  0
ARC
  5
1EF
330
1F
100
AcDbEntity
  8
0
  6
Continuous
 62
     7
370
    25
100
AcDbCircle
 10
-251.6210513051
 20
166.4013635364
 30
0.0
 40
2.999999999986648
100
AcDbArc
 50
93.8667341236
 51
183.8667341236
  0
ARC
  5
1F0
330
1F
100
AcDbEntity
  8
0
  6
Continuous
 62
     7
370
    25
100
AcDbCircle
 10
-249.6654065898
 20
137.4673791279
 30
0.0
 40
2.999999999980841
100
AcDbArc
 50
183.8667341236
 51
273.8667341237
  0
ARC
  5
1F1
330
1F
100
AcDbEntity
  8
0
  6
Continuous
 62
     7
370
    25
100
AcDbCircle
 10
-354.8324127374
 20
-46.0216988004
 30
0.0
 40
41.79999999999831
100
AcDbArc
 50
273.8667341236
 51
3.8667341236
  0
ARC
  5
1F2
330
1F
100
AcDbEntity
  8
0
  6
Continuous
 62
     7
370
    25
100
AcDbCircle
 10
-378.1649731788
 20
103.4450922378
 30
0.0
 40
55.00000000000128
100
AcDbArc
 50
3.8667341236
 51
93.8667341236
  0
ARC
  5
1F3
330
1F
100
AcDbEntity
  8
0
  6
Continuous
 62
     7
370
    25
100
AcDbCircle
 10
-1212.1304966061
 20
60.3075743945
 30
0.0
 40
41.80000000000007
100
AcDbArc
 50
93.8667341236
 51
193.8667341236
  0
ARC
  5
1F4
330
1F
100
AcDbEntity
  8
0
  6
Continuous
 62
     7
370
    25
100
AcDbCircle
 10
-1162.082782018
 20
-87.3535424134
 30
0.0
 40
55.00000000000062
100
AcDbArc
 50
193.8667341236
 51
273.8667341236
  0
ARC
  5
1F5
330
1F
100
AcDbEntity
  8
0
  6
Continuous
 62
     7
370
    25
100
AcDbCircle
 10
-1398.8044766502
 20
-200.7097893913
 30
0.0
 40
0.7499999999987808
100
AcDbArc
 50
13.0482294232
 51
193.0482294179
  0
ARC
  5
1F6
330
1F
100
AcDbEntity
  8
0
  6
Continuous
 62
     7
370
    25
100
AcDbCircle
 10
-1417.336990243
 20
-205.4804296818
 30
0.0
 40
0.7500000000002373
100
AcDbArc
 50
13.0482294175
 51
193.0482294144
  0
ARC
  5
1F7
330
1F
100
AcDbEntity
  8
0
  6
Continuous
 62
     7
370
    25
100
AcDbCircle
 10
-1463.9998398369
 20
-180.488354366
 30
0.0
 40
24.99999999999989
100
AcDbArc
 50
324.2933770942
 51
13.0482294176
  0
ARC
  5
1F8
330
1F
100
AcDbEntity
  8
0
  6
Continuous
 62
     7
370
    25
100
AcDbCircle
 10
-1518.5641612115
 20
54.9513267546
 30
0.0
 40
24.99999999999778
100
AcDbArc
 50
13.0482294176
 51
61.4892977615
  0
ARC
  5
1F9
330
1F
100
AcDbEntity
  8
0
  6
Continuous
 62
     7
370
    25
100
AcDbCircle
 10
-1490.9079323993
 20
111.970951086
 30
0.0
 40
0.7499999999998181
100
AcDbArc
 50
193.0482294176
 51
13.0482294176
  0
ARC
  5
1FA
330
1F
100
AcDbEntity
  8
0
  6
Continuous
 62
     7
370
    25
100
AcDbCircle
 10
-1475.4778618733
 20
124.3023525648
 30
0.0
 40
0.9893073425104469
100
AcDbArc
 50
103.0600816475
 51
128.3504483399
  0
ARC
  5
1FB
330
1F
100
AcDbEntity
  8
0
  6
Continuous
 62
     7
370
    25
100
AcDbCircle
 10
-1474.2416095879
 20
124.7940210853
 30
0.0
 40
0.7500000000000525
100
AcDbArc
 50
193.0482294176
 51
13.0482294174
  0
ARC
  5
1FC
330
1F
100
AcDbEntity
  8
0
  6
Continuous
 62
     7
370
    25
100
AcDbCircle
 10
-1472.5620016329
 20
125.1355486207
 30
0.0
 40
0.5224437369472098
100
AcDbArc
 50
233.4574817707
 51
53.4574817707
  0
ARC
  5
1FD
330
1F
100
AcDbEntity
  8
0
  6
Continuous
 62
     7
370
    25
100
AcDbCircle
 10
-1473.0044587753
 20
127.2283547818
 30
0.0
 40
0.7500000000017485
100
AcDbArc
 50
273.8667341276
 51
93.8667341235
  0
ARC
  5
1FE
330
1F
100
AcDbEntity
  8
0
  6
Continuous
 62
     7
370
    25
100
AcDbCircle
 10
-1473.7203048293
 20
148.0643314912
 30
0.0
 40
0.7499999999997041
100
AcDbArc
 50
273.8667341237
 51
93.8667341235
  0
ARC
  5
1FF
330
1F
100
AcDbEntity
  8
0
  6
Continuous
 62
     7
370
    25
100
AcDbCircle
 10
-1430.3751774457
 20
195.9528412432
 30
0.0
 40
25.00000000000124
100
AcDbArc
 50
225.4240341551
 51
273.8667341236
  0
ARC
  5
200
330
1F
100
AcDbEntity
  8
0
  6
Continuous
 62
     7
370
    25
100
AcDbCircle
 10
-171.1522201777
 20
281.0635777081
 30
0.0
 40
25.00000000000072
100
AcDbArc
 50
273.8667341236
 51
317.8340169251
  0
ARC
  5
201
330
1F
100
AcDbEntity
  8
0
  6
Continuous
 62
     7
370
    25
100
AcDbCircle
 10
-129.2419691296
 20
238.9374692878
 30
0.0
 40
0.7500000000003645
100
AcDbArc
 50
93.8667341236
 51
273.8667341241
  0
ARC
  5
202
330
1F
100
AcDbEntity
  8
0
  6
Continuous
 62
     7
370
    25
100
AcDbCircle
 10
-128.2791461778
 20
218.1181857188
 30
0.0
 40
0.7499999999995224
100
AcDbArc
 50
93.8667341236
 51
273.8667341234
  0
ARC
  5
203
330
1F
100
AcDbEntity
  8
0
  6
Continuous
 62
     7
370
    25
100
AcDbCircle
 10
-128.3322097215
 20
216.0197295576
 30
0.0
 40
0.5257445772819622
100
AcDbArc
 50
138.7500900615
 51
318.7500900616
  0
ARC
  5
204
330
1F
100
AcDbEntity
  8
0
  6
Continuous
 62
     7
370
    25
100
AcDbCircle
 10
-126.6443956765
 20
216.0770750697
 30
0.0
 40
0.7500000000048394
100
AcDbArc
 50
183.6334460064
 51
3.6334459993
  0
ARC
  5
205
330
1F
100
AcDbEntity
  8
0
  6
Continuous
 62
     7
370
    25
100
AcDbCircle
 10
-125.3113974844
 20
215.8439012922
 30
0.0
 40
0.9999930732687367
100
AcDbArc
 50
68.6332527234
 51
93.6334385587
  0
ARC
  5
206
330
1F
100
AcDbEntity
  8
0
  6
Continuous
 62
     7
370
    25
100
AcDbCircle
 10
-107.0034448781
 20
208.6545760354
 30
0.0
 40
0.7500000000000042
100
AcDbArc
 50
183.6334459995
 51
3.6334459996
  0
ARC
  5
207
330
1F
100
AcDbEntity
  8
0
  6
Continuous
 62
     7
370
    25
100
AcDbCircle
 10
-64.5653930942
 20
168.6185773213
 30
0.0
 40
24.99999999999888
100
AcDbArc
 50
139.6681842369
 51
183.6334459995
  0
ARC
  5
208
330
1F
100
AcDbEntity
  8
0
  6
Continuous
 62
     7
370
    25
100
AcDbCircle
 10
-49.4455027741
 20
-69.4871484081
 30
0.0
 40
25.00000000000034
100
AcDbArc
 50
183.6334459995
 51
235.511794986
  0
ARC
  5
209
330
1F
100
AcDbEntity
  8
0
  6
Continuous
 62
     7
370
    25
100
AcDbCircle
 10
-86.6207009218
 20
-112.3297657363
 30
0.0
 40
0.7499999999996383
100
AcDbArc
 50
3.6334460004
 51
183.6334459995
  0
ARC
  5
20A
330
1F
100
AcDbEntity
  8
0
  6
Continuous
 62
     7
370
    25
100
AcDbCircle
 10
-105.740903824
 20
-113.1079251138
 30
0.0
 40
0.7499999999999939
100
AcDbArc
 50
3.6334459995
 51
183.6334459992
  0
ARC
  5
20B
330
1F
100
AcDbEntity
  8
0
  6
Continuous
 62
     7
370
    25
100
AcDbCircle
 10
-107.4042331984
 20
-113.2402980923
 30
0.0
 40
0.4999999999999385
100
AcDbArc
 50
48.7500900615
 51
228.7500900615
  0
ARC
  5
20C
330
1F
100
AcDbEntity
  8
0
  6
Continuous
 62
     7
370
    25
100
AcDbCircle
 10
-107.3272488246
 20
-114.9072760904
 30
0.0
 40
0.7499999999932406
100
AcDbArc
 50
93.866734132
 51
273.8667341222
  0
ARC
  5
20D
330
1F
100
AcDbEntity
  8
0
  6
Continuous
 62
     7
370
    25
100
AcDbCircle
 10
-106.0680799825
 20
-133.9969022161
 30
0.0
 40
0.7500000000000452
100
AcDbArc
 50
93.8667341236
 51
273.8667341189
  0
ARC
  5
20E
330
1F
100
AcDbEntity
  8
0
  6
Continuous
 62
     7
370
    25
100
AcDbCircle
 10
-141.0792770413
 20
-178.2742530368
 30
0.0
 40
25.00000000000446
100
AcDbArc
 50
58.3189884364
 51
93.8667341236
  0
ARC
  5
20F
330
1F
100
AcDbEntity
  8
0
  6
Continuous
 62
     7
370
    25
100
AcDbCircle
 10
-158.7865828868
 20
-151.4072032062
 30
0.0
 40
3.000000000000423
100
AcDbArc
 50
223.8667341236
 51
273.8667341236
  0
ARC
  5
210
330
1F
100
AcDbEntity
  8
0
  6
Continuous
 62
     7
370
    25
100
AcDbCircle
 10
-167.5058223799
 20
-150.9942540183
 30
0.0
 40
2.999999999997917
100
AcDbArc
 50
43.8667341236
 51
93.8667341237
  0
ARC
  5
211
330
1F
100
AcDbEntity
  8
0
  6
Continuous
 62
     7
370
    25
100
AcDbCircle
 10
-179.680199451
 20
-151.8171187799
 30
0.0
 40
2.999999999998765
100
AcDbArc
 50
93.8667341236
 51
143.8667341236
  0
ARC
  5
212
330
1F
100
AcDbEntity
  8
0
  6
Continuous
 62
     7
370
    25
100
AcDbCircle
 10
-188.2645668947
 20
-153.3996167926
 30
0.0
 40
3.000000000001436
100
AcDbArc
 50
273.8667341236
 51
323.8667341236
  0
ARC
  5
213
330
1F
100
AcDbEntity
  8
0
  6
Continuous
 62
     7
370
    25
100
AcDbCircle
 10
-323.4212601851
 20
-162.5348423202
 30
0.0
 40
3.00000000000159
100
AcDbArc
 50
223.8667341236
 51
273.8667341236
  0
ARC
  5
214
330
1F
100
AcDbEntity
  8
0
  6
Continuous
 62
     7
370
    25
100
AcDbCircle
 10
-332.1404996781
 20
-162.1218931323
 30
0.0
 40
3.000000000000528
100
AcDbArc
 50
43.8667341236
 51
93.8667341236
  0
ARC
  5
215
330
1F
100
AcDbEntity
  8
0
  6
Continuous
 62
     7
370
    25
100
AcDbCircle
 10
-344.3148767493
 20
-162.9447578939
 30
0.0
 40
2.999999999999021
100
AcDbArc
 50
93.8667341236
 51
143.8667341236
  0
ARC
  5
216
330
1F
100
AcDbEntity
  8
0
  6
Continuous
 62
     7
370
    25
100
AcDbCircle
 10
-352.899244193
 20
-164.5272559066
 30
0.0
 40
2.999999999998327
100
AcDbArc
 50
273.8667341236
 51
323.8667341236
  0
ARC
  5
217
330
1F
100
AcDbEntity
  8
0
  6
Continuous
 62
     7
370
    25
100
AcDbCircle
 10
-488.0559374833
 20
-173.6624814342
 30
0.0
 40
2.999999999998398
100
AcDbArc
 50
223.8667341236
 51
273.8667341236
  0
ARC
  5
218
330
1F
100
AcDbEntity
  8
0
  6
Continuous
 62
     7
370
    25
100
AcDbCircle
 10
-496.7751769764
 20
-173.2495322463
 30
0.0
 40
2.999999999999179
100
AcDbArc
 50
43.8667341236
 51
93.8667341236
  0
ARC
  5
219
330
1F
100
AcDbEntity
  8
0
  6
Continuous
 62
     7
370
    25
100
AcDbCircle
 10
-508.9495540475
 20
-174.0723970079
 30
0.0
 40
2.999999999999807
100
AcDbArc
 50
93.8667341236
 51
143.8667341236
  0
ARC
  5
21A
330
1F
100
AcDbEntity
  8
0
  6
Continuous
 62
     7
370
    25
100
AcDbCircle
 10
-517.5339214912
 20
-175.6548950206
 30
0.0
 40
2.999999999997156
100
AcDbArc
 50
273.8667341236
 51
323.8667341237
  0
ARC
  5
21B
330
1F
100
AcDbEntity
  8
0
  6
Continuous
 62
     7
370
    25
100
AcDbCircle
 10
-652.6906147816
 20
-184.7901205481
 30
0.0
 40
3.000000000001618
100
AcDbArc
 50
223.8667341236
 51
273.8667341236
  0
ARC
  5
21C
330
1F
100
AcDbEntity
  8
0
  6
Continuous
 62
     7
370
    25
100
AcDbCircle
 10
-661.4098542746
 20
-184.3771713603
 30
0.0
 40
3.000000000000581
100
AcDbArc
 50
43.8667341236
 51
93.8667341236
  0
ARC
  5
21D
330
1F
100
AcDbEntity
  8
0
  6
Continuous
 62
     7
370
    25
100
AcDbCircle
 10
-673.5842313458
 20
-185.2000361219
 30
0.0
 40
2.999999999998953
100
AcDbArc
 50
93.8667341236
 51
143.8667341236
  0
ARC
  5
21E
330
1F
100
AcDbEntity
  8
0
  6
Continuous
 62
     7
370
    25
100
AcDbCircle
 10
-682.1685987895
 20
-186.7825341346
 30
0.0
 40
2.999999999999363
100
AcDbArc
 50
273.8667341236
 51
323.8667341236
  0
ARC
  5
21F
330
1F
100
AcDbEntity
  8
0
  6
Continuous
 62
     7
370
    25
100
AcDbCircle
 10
-817.3252920798
 20
-195.9177596621
 30
0.0
 40
3.000000000000666
100
AcDbArc
 50
223.8667341236
 51
273.8667341236
  0
ARC
  5
220
330
1F
100
AcDbEntity
  8
0
  6
Continuous
 62
     7
370
    25
100
AcDbCircle
 10
-826.0445315729
 20
-195.5048104742
 30
0.0
 40
3.000000000000984
100
AcDbArc
 50
43.8667341236
 51
93.8667341236
  0
ARC
  5
221
330
1F
100
AcDbEntity
  8
0
  6
Continuous
 62
     7
370
    25
100
AcDbCircle
 10
-838.218908644
 20
-196.3276752358
 30
0.0
 40
2.999999999998275
100
AcDbArc
 50
93.8667341236
 51
143.8667341236
  0
ARC
  5
222
330
1F
100
AcDbEntity
  8
0
  6
Continuous
 62
     7
370
    25
100
AcDbCircle
 10
-846.8032760877
 20
-197.9101732485
 30
0.0
 40
3.000000000003931
100
AcDbArc
 50
273.8667341237
 51
323.8667341236
  0
ARC
  5
223
330
1F
100
AcDbEntity
  8
0
  6
Continuous
 62
     7
370
    25
100
AcDbCircle
 10
-981.9599693781
 20
-207.0453987761
 30
0.0
 40
3.000000000000446
100
AcDbArc
 50
223.8667341236
 51
273.8667341236
  0
ARC
  5
224
330
1F
100
AcDbEntity
  8
0
  6
Continuous
 62
     7
370
    25
100
AcDbCircle
 10
-990.6792088711
 20
-206.6324495882
 30
0.0
 40
3.000000000001158
100
AcDbArc
 50
43.8667341236
 51
93.8667341236
  0
ARC
  5
225
330
1F
100
AcDbEntity
  8
0
  6
Continuous
 62
     7
370
    25
100
AcDbCircle
 10
-1002.8535859423
 20
-207.4553143498
 30
0.0
 40
3.000000000000207
100
AcDbArc
 50
93.8667341236
 51
143.8667341236
  0
ARC
  5
226
330
1F
100
AcDbEntity
  8
0
  6
Continuous
 62
     7
370
    25
100
AcDbCircle
 10
-1011.437953386
 20
-209.0378123625
 30
0.0
 40
2.999999999999876
100
AcDbArc
 50
273.8667341236
 51
323.8667341236
  0
ARC
  5
227
330
1F
100
AcDbEntity
  8
0
  6
Continuous
 62
     7
370
    25
100
AcDbCircle
 10
-1146.5946466763
 20
-218.1730378901
 30
0.0
 40
3.000000000003541
100
AcDbArc
 50
223.8667341237
 51
273.8667341236
  0
ARC
  5
228
330
1F
100
AcDbEntity
  8
0
  6
Continuous
 62
     7
370
    25
100
AcDbCircle
 10
-1155.3138861694
 20
-217.7600887022
 30
0.0
 40
3.000000000000029
100
AcDbArc
 50
43.8667341236
 51
93.8667341236
  0
ARC
  5
229
330
1F
100
AcDbEntity
  8
0
  6
Continuous
 62
     7
370
    25
100
AcDbCircle
 10
-1167.4882632405
 20
-218.5829534638
 30
0.0
 40
3.000000000002325
100
AcDbArc
 50
93.8667341236
 51
143.8667341236
  0
ARC
  5
22A
330
1F
100
AcDbEntity
  8
0
  6
Continuous
 62
     7
370
    25
100
AcDbCircle
 10
-1176.0726306842
 20
-220.1654514765
 30
0.0
 40
2.999999999996777
100
AcDbArc
 50
273.8667341236
 51
323.8667341237
  0
ARC
  5
22B
330
1F
100
AcDbEntity
  8
0
  6
Continuous
 62
     7
370
    25
100
AcDbCircle
 10
-1311.2293239746
 20
-229.300677004
 30
0.0
 40
2.999999999999812
100
AcDbArc
 50
223.8667341236
 51
273.8667341236
  0
ARC
  5
22C
330
1F
100
AcDbEntity
  8
0
  6
Continuous
 62
     7
370
    25
100
AcDbCircle
 10
-1319.9485634676
 20
-228.8877278162
 30
0.0
 40
2.999999999999694
100
AcDbArc
 50
43.8667341236
 51
93.8667341236
  0
ARC
  5
22D
330
1F
100
AcDbEntity
  8
0
  6
Continuous
 62
     7
370
    25
100
AcDbCircle
 10
-1332.1229405388
 20
-229.7105925778
 30
0.0
 40
2.999999999998335
100
AcDbArc
 50
93.8667341236
 51
143.8667341236
  0
ARC
  5
22E
330
1F
100
AcDbEntity
  8
0
  6
Continuous
 62
     7
370
    25
100
AcDbCircle
 10
-1340.7073079825
 20
-231.2930905905
 30
0.0
 40
3.000000000000176
100
AcDbArc
 50
273.8667341236
 51
323.8667341236
  0
ARC
  5
22F
330
1F
100
AcDbEntity
  8
0
  6
Continuous
 62
     7
370
    25
100
AcDbCircle
 10
-1360.8578032547
 20
-260.7189448929
 30
0.0
 40
24.99999999998902
100
AcDbArc
 50
93.8667341236
 51
123.5641510392
  0
ARC
  5
230
330
1F
100
AcDbEntity
  8
0
  6
Continuous
 62
     7
370
    25
100
AcDbCircle
 10
-1395.5488168397
 20
-221.152758562
 30
0.0
 40
0.7499999999971368
100
AcDbArc
 50
273.8667341772
 51
93.8667341245
  0
ARC
  5
231
330
1F
100
AcDbEntity
  8
0
  6
Continuous
 62
     7
370
    25
100
AcDbCircle
 10
-1396.9619566465
 20
-202.0735393164
 30
0.0
 40
0.7500000000000087
100
AcDbArc
 50
273.86673413
 51
93.8667341182
  0
ARC
  5
232
330
1F
100
AcDbEntity
  8
0
  6
Continuous
 62
     7
370
    25
100
AcDbCircle
 10
-1397.1827091129
 20
-200.445055547
 30
0.0
 40
0.499999999999972
100
AcDbArc
 50
323.4574817705
 51
143.4574817707
  0
ARC
  5
233
330
1F
100
AcDbEntity
  8
0
  6
Continuous
 62
     7
370
    25
100
AcDbCircle
 10
-1333.024450425
 20
64.2432645702
 30
0.0
 40
2.99999999998373
100
AcDbArc
 50
273.8667341237
 51
3.8667341236
  0
ARC
  5
234
330
1F
100
AcDbEntity
  8
0
  6
Continuous
 62
     7
370
    25
100
AcDbCircle
 10
-1334.9800951404
 20
93.1772489787
 30
0.0
 40
2.999999999974915
100
AcDbArc
 50
3.8667341235
 51
93.8667341236
  0
ARC
  5
235
330
1F
100
AcDbEntity
  8
0
  6
Continuous
 62
     7
370
    25
100
AcDbCircle
 10
-1418.7888775649
 20
87.5126229065
 30
0.0
 40
2.999999999986607
100
AcDbArc
 50
93.8667341236
 51
183.8667341236
  0
ARC
  5
236
330
1F
100
AcDbEntity
  8
0
  6
Continuous
 62
     7
370
    25
100
AcDbCircle
 10
-1416.8332328495
 20
58.5786384981
 30
0.0
 40
2.999999999980869
100
AcDbArc
 50
183.8667341236
 51
273.8667341237
  0
ENDSEC
  0
SECTION
  2
OBJECTS
  0
DICTIONARY
  5
C
330
0
100
AcDbDictionary
281
     1
  3
ACAD_GROUP
350
D
  3
ACAD_LAYOUT
350
1A
  3
ACAD_MLINESTYLE
350
17
  3
ACAD_PLOTSETTINGS
350
19
  3
ACAD_PLOTSTYLENAME
350
E
  3
ACAD_SCALELIST
350
47
  3
DWGPROPS
350
237
  0
DICTIONARY
  5
D
102
{ACAD_REACTORS
330
C
102
}
330
C
100
AcDbDictionary
281
     1
  0
DICTIONARY
  5
1A
102
{ACAD_REACTORS
330
C
102
}
330
C
100
AcDbDictionary
281
     1
  3
Layout1
350
1E
  3
Layout2
350
26
  3
Model
350
22
  0
DICTIONARY
  5
17
102
{ACAD_REACTORS
330
C
102
}
330
C
100
AcDbDictionary
281
     1
  3
Standard
350
18
  0
DICTIONARY
  5
19
102
{ACAD_REACTORS
330
C
102
}
330
C
100
AcDbDictionary
281
     1
  0
ACDBDICTIONARYWDFLT
  5
E
102
{ACAD_REACTORS
330
C
102
}
330
C
100
AcDbDictionary
281
     1
  3
Normal
350
F
100
AcDbDictionaryWithDefault
340
F
  0
DICTIONARY
  5
47
102
{ACAD_REACTORS
330
C
102
}
330
C
100
AcDbDictionary
281
     1
  3
A0
350
48
  3
A1
350
49
  3
A2
350
4A
  3
A3
350
4B
  3
A4
350
4C
  3
A5
350
4D
  3
A6
350
4E
  3
A7
350
4F
  3
A8
350
50
  3
A9
350
51
  3
B0
350
52
  3
B1
350
53
  3
B2
350
54
  3
B3
350
55
  3
B4
350
56
  3
B5
350
57
  3
B6
350
58
  0
XRECORD
  5
237
102
{ACAD_REACTORS
330
C
102
}
330
C
100
AcDbXrecord
280
     1
  1
DWGPROPS COOKIE
  2

  3

  4

  6

  7

  8
User
  9

300
=
301
=
302
=
303
=
304
=
305
=
306
=
307
=
308
=
309
=
 40
0.0
 41
2460094.480801088
 42
2460094.480856239
  1

 90
        0
  0
LAYOUT
  5
1E
102
{ACAD_REACTORS
330
1A
102
}
330
1A
100
AcDbPlotSettings
  1

  2
none_device
  4

  6

 40
0.0
 41
0.0
 42
0.0
 43
0.0
 44
0.0
 45
0.0
 46
0.0
 47
0.0
 48
0.0
 49
0.0
140
0.0
141
0.0
142
1.0
143
1.0
 70
   688
 72
     1
 73
     0
 74
     5
  7

 75
    16
147
1.0
148
0.0
149
0.0
100
AcDbLayout
  1
Layout1
 70
     1
 71
     1
 10
0.0
 20
0.0
 11
420.0
 21
297.0
 12
0.0
 22
0.0
 32
0.0
 14
1.0000000000E+20
 24
1.0000000000E+20
 34
1.0000000000E+20
 15
-1.0000000000E+20
 25
-1.0000000000E+20
 35
-1.0000000000E+20
146
0.0
 13
0.0
 23
0.0
 33
0.0
 16
1.0
 26
0.0
 36
0.0
 17
0.0
 27
1.0
 37
0.0
 76
     0
330
1B
  0
LAYOUT
  5
26
102
{ACAD_REACTORS
330
1A
102
}
330
1A
100
AcDbPlotSettings
  1

  2
none_device
  4

  6

 40
0.0
 41
0.0
 42
0.0
 43
0.0
 44
0.0
 45
0.0
 46
0.0
 47
0.0
 48
0.0
 49
0.0
140
0.0
141
0.0
142
1.0
143
1.0
 70
   688
 72
     1
 73
     0
 74
     5
  7

 75
    16
147
1.0
148
0.0
149
0.0
100
AcDbLayout
  1
Layout2
 70
     1
 71
     2
 10
0.0
 20
0.0
 11
0.0
 21
0.0
 12
0.0
 22
0.0
 32
0.0
 14
0.0
 24
0.0
 34
0.0
 15
0.0
 25
0.0
 35
0.0
146
0.0
 13
0.0
 23
0.0
 33
0.0
 16
1.0
 26
0.0
 36
0.0
 17
0.0
 27
1.0
 37
0.0
 76
     0
330
23
  0
LAYOUT
  5
22
102
{ACAD_REACTORS
330
1A
102
}
330
1A
100
AcDbPlotSettings
  1

  2
none_device
  4
ANSI_A_(11.00_x_8.50_Inches)
  6

 40
6.35
 41
19.05
 42
6.35000508
 43
19.05000254
 44
279.4
 45
215.9
 46
283.8443847187
 47
86.5619977193
 48
0.0
 49
0.0
140
0.0
141
0.0
142
0.0075466224
143
1.0
 70
  1696
 72
     0
 73
     0
 74
     0
  7

 75
     0
147
0.0179189148
148
-1300.4909072572
149
0.0
100
AcDbLayout
  1
Model
 70
     1
 71
     0
 10
0.0
 20
0.0
 11
420.0
 21
297.0
 12
0.0
 22
0.0
 32
0.0
 14
-1506.6310885723
 24
-239.8872617678
 34
0.0
 15
-63.6014170041
 25
264.2815614623
 35
0.0
146
0.0
 13
0.0
 23
0.0
 33
0.0
 16
1.0
 26
0.0
 36
0.0
 17
0.0
 27
1.0
 37
0.0
 76
     0
330
1F
331
29
  0
MLINESTYLE
  5
18
102
{ACAD_REACTORS
330
17
102
}
330
17
100
AcDbMlineStyle
  2
Standard
 70
     0
  3

 62
   256
 51
90.0
 52
90.0
 71
     2
 49
0.5
 62
   256
  6
BYLAYER
 49
-0.5
 62
   256
  6
BYLAYER
  0
ACDBPLACEHOLDER
  5
F
102
{ACAD_REACTORS
330
E
102
}
330
E
  0
SCALE
  5
48
102
{ACAD_REACTORS
330
47
102
}
330
47
100
AcDbScale
 70
     0
300
1:1
140
1.0
141
1.0
290
     1
  0
SCALE
  5
49
102
{ACAD_REACTORS
330
47
102
}
330
47
100
AcDbScale
 70
     0
300
1:2
140
1.0
141
2.0
290
     0
  0
SCALE
  5
4A
102
{ACAD_REACTORS
330
47
102
}
330
47
100
AcDbScale
 70
     0
300
1:4
140
1.0
141
4.0
290
     0
  0
SCALE
  5
4B
102
{ACAD_REACTORS
330
47
102
}
330
47
100
AcDbScale
 70
     0
300
1:5
140
1.0
141
5.0
290
     0
  0
SCALE
  5
4C
102
{ACAD_REACTORS
330
47
102
}
330
47
100
AcDbScale
 70
     0
300
1:8
140
1.0
141
8.0
290
     0
  0
SCALE
  5
4D
102
{ACAD_REACTORS
330
47
102
}
330
47
100
AcDbScale
 70
     0
300
1:10
140
1.0
141
10.0
290
     0
  0
SCALE
  5
4E
102
{ACAD_REACTORS
330
47
102
}
330
47
100
AcDbScale
 70
     0
300
1:16
140
1.0
141
16.0
290
     0
  0
SCALE
  5
4F
102
{ACAD_REACTORS
330
47
102
}
330
47
100
AcDbScale
 70
     0
300
1:20
140
1.0
141
20.0
290
     0
  0
SCALE
  5
50
102
{ACAD_REACTORS
330
47
102
}
330
47
100
AcDbScale
 70
     0
300
1:30
140
1.0
141
30.0
290
     0
  0
SCALE
  5
51
102
{ACAD_REACTORS
330
47
102
}
330
47
100
AcDbScale
 70
     0
300
1:40
140
1.0
141
40.0
290
     0
  0
SCALE
  5
52
102
{ACAD_REACTORS
330
47
102
}
330
47
100
AcDbScale
 70
     0
300
1:50
140
1.0
141
50.0
290
     0
  0
SCALE
  5
53
102
{ACAD_REACTORS
330
47
102
}
330
47
100
AcDbScale
 70
     0
300
1:100
140
1.0
141
100.0
290
     0
  0
SCALE
  5
54
102
{ACAD_REACTORS
330
47
102
}
330
47
100
AcDbScale
 70
     0
300
2:1
140
2.0
141
1.0
290
     0
  0
SCALE
  5
55
102
{ACAD_REACTORS
330
47
102
}
330
47
100
AcDbScale
 70
     0
300
4:1
140
4.0
141
1.0
290
     0
  0
SCALE
  5
56
102
{ACAD_REACTORS
330
47
102
}
330
47
100
AcDbScale
 70
     0
300
8:1
140
8.0
141
1.0
290
     0
  0
SCALE
  5
57
102
{ACAD_REACTORS
330
47
102
}
330
47
100
AcDbScale
 70
     0
300
10:1
140
10.0
141
1.0
290
     0
  0
SCALE
  5
58
102
{ACAD_REACTORS
330
47
102
}
330
47
100
AcDbScale
 70
     0
300
100:1
140
100.0
141
1.0
290
     0
  0
ENDSEC
  0
EOF
